<?xml version="1.0" encoding="UTF-8"?>
<svg width="219px" height="250px" viewBox="0 0 219 250" version="1.1" xmlns="http://www.w3.org/2000/svg" xmlns:xlink="http://www.w3.org/1999/xlink">
    <!-- Generator: Sketch 52.6 (67491) - http://www.bohemiancoding.com/sketch -->
    <title>1</title>
    <desc>Created with Sketch.</desc>
    <defs>
        <path d="M172.24481,202.397726 L164.16381,202.397726 C152.374981,194.615335 125.806512,185.103093 94.792524,178.186273 C71.6696233,173.027726 50.8721903,170.383211 36.7488497,170.383211 C26.9612144,170.383211 20.3788488,171.653147 18.4461267,174.236942 C6.90793106,157.328586 0.180869712,137.022539 0.180869712,115.171382 C0.180869712,56.2414715 49.0712447,0 109.383542,0 C112.596563,0 115.773411,0.158903409 118.916668,0.470250738 L118.916668,101.709809 C118.916668,102.366093 118.965761,103.030128 119.060072,103.694163 L119.060072,104.781941 C119.060072,112.380883 125.265195,120.824726 132.895313,123.60489 L188.899035,144.020748 C190.564328,144.626648 192.16115,144.914741 193.641697,144.914741 C198.94118,144.914741 202.734276,141.222498 202.734276,135.283644 L202.734276,57.4558553 C212.793216,74.9197275 218.586214,94.8860054 218.586214,115.171382 C218.586214,151.226953 200.265405,183.081273 172.24481,202.397726 M129.947136,156.699431 C124.681244,156.699431 121.505689,157.39964 121.548322,158.824603 C121.640049,161.910946 136.829229,167.233565 155.474312,170.711353 C165.519041,172.584605 174.517309,173.539317 180.666879,173.539317 C185.932772,173.539317 189.109619,172.839109 189.066986,171.415437 C188.975259,168.32651 173.786079,163.003892 155.140995,159.527395 C145.097559,157.655436 136.096707,156.699431 129.947136,156.699431 M37.9606767,144.474204 C40.5587409,149.27102 42.6012768,154.330091 43.6025198,159.87104 C43.6464453,160.111333 43.8195635,160.215977 44.0043089,160.215977 C44.2833651,160.215977 44.5908436,159.97956 44.5249553,159.616536 C43.5585943,154.269372 41.629748,149.361453 39.168628,144.704162 C38.8249756,142.137161 34.8380903,114.109442 24.5556472,114.109442 C23.0634721,114.109442 21.4395205,114.698548 19.6734569,116.042121 C19.6657054,116.048581 19.6566619,116.05504 19.6476184,116.0615 C7.09138463,125.657715 27.7014883,140.673441 37.9606767,144.474204 M43.3596376,120.77951 C47.4782993,132.406588 48.4084864,144.993547 48.9588471,157.468111 C48.9717664,157.77429 49.2185244,157.928026 49.4575308,157.928026 C49.6965372,157.928026 49.9290839,157.775582 49.9148727,157.468111 C49.6422763,151.270878 49.2727853,145.038763 48.469207,138.907417 C48.5325114,138.832487 48.5673934,138.730427 48.557058,138.599946 C47.889132,130.054043 49.646152,120.885445 52.3553219,112.063076 C52.6899309,111.862832 53.0891362,111.577323 53.5361428,111.216883 C59.5707315,106.361932 74.4718119,88.0518669 60.9660121,85.6683158 C60.3084215,85.552045 59.6934645,85.4964934 59.1133895,85.4964934 C47.9601879,85.4964934 50.7455815,106.042833 51.61634,111.176835 C49.3890587,118.271936 47.7612312,125.59958 47.4938025,132.721811 C46.6372552,128.154953 45.4706455,123.672068 43.8479858,119.327417 C44.4306447,112.706441 46.0390932,86.5325953 35.0292955,86.5325953 C34.0448475,86.5325953 32.9609211,86.7418827 31.7658891,87.1914631 C15.0096022,93.5075506 35.4711343,119.184016 43.3596376,120.77951 M53.0594219,140.36597 C51.7674954,145.644663 51.4380541,151.185612 51.2016316,156.704599 C51.1874204,157.012071 51.4199671,157.165806 51.6589735,157.165806 C51.8979799,157.165806 52.1447379,157.012071 52.1576572,156.704599 C52.4005394,151.047379 52.7261048,145.394035 54.1239693,140.024909 C58.225836,137.177566 61.5202486,134.100266 63.8754306,131.144404 C63.8780145,131.140529 63.8793064,131.137945 63.8818903,131.135361 C63.887058,131.128902 63.8922257,131.122442 63.8973934,131.117275 C63.8999772,131.112107 63.903853,131.108231 63.9077288,131.103064 C63.9116046,131.099188 63.9141884,131.09402 63.9180642,131.090145 C63.92194,131.084977 63.9271077,131.078518 63.9309835,131.07335 C63.9348593,131.068182 63.9374431,131.065599 63.9413189,131.060431 C63.9464866,131.053972 63.9503624,131.048804 63.956822,131.041053 C63.9581139,131.039761 63.9581139,131.038469 63.9594059,131.037177 C69.6438825,123.840015 69.7433609,117.386986 62.3625847,116.772043 C62.1778392,116.75654 61.9969695,116.748789 61.8199756,116.748789 C56.8240957,116.748789 54.481833,122.723816 53.4818818,128.69755 C52.6098315,133.909065 52.7596949,139.12058 53.0594219,140.36597 M72.8866181,202.397726 L46.5209818,202.397726 C39.2086777,197.356742 32.5552562,191.460521 26.7170403,184.858924 C36.2889238,190.483846 52.8850118,196.834815 72.8866181,202.397726" id="path-1"></path>
        <linearGradient x1="50%" y1="92.3404418%" x2="50%" y2="-18.7231517%" id="linearGradient-3">
            <stop stop-color="#FFFFFE" offset="0%"></stop>
            <stop stop-color="#FBE47B" stop-opacity="0.306216033" offset="100%"></stop>
        </linearGradient>
        <path d="M146.076839,32.5309958 L54.7996469,32.5309958 C34.7980406,26.9680846 18.2019526,20.6171159 8.63006911,14.9921936 C5.65605427,11.629384 2.89133154,8.08054124 0.359155571,4.37021124 C2.29187763,1.78641597 8.87424322,0.516480599 18.6618785,0.516480599 C32.7852191,0.516480599 53.5826521,3.16099505 76.7055528,8.3195423 C107.719541,15.2363622 134.288009,24.7486045 146.076839,32.5309958" id="path-4"></path>
        <linearGradient x1="62.406575%" y1="51.575804%" x2="62.406575%" y2="-650.575037%" id="linearGradient-6">
            <stop stop-color="#FFF0A9" stop-opacity="0.488536005" offset="0%"></stop>
            <stop stop-color="#FFF0A9" offset="100%"></stop>
        </linearGradient>
        <path d="M59.2257871,17.2197035 C53.0762169,17.2197035 44.0779488,16.2649912 34.0332201,14.3917396 C15.3881367,10.9139512 0.198956683,5.59133295 0.107229901,2.50498951 C0.0645963256,1.08002642 3.24015169,0.379817904 8.50604416,0.379817904 C14.6556144,0.379817904 23.6564664,1.33582215 33.6999031,3.20778182 C52.3449865,6.68427835 67.5341665,12.0068966 67.6258933,15.0958238 C67.6685269,16.519495 64.4916796,17.2197035 59.2257871,17.2197035" id="path-7"></path>
        <path d="M1.1549823,9.54324781 C5.25814091,6.69590543 8.54996966,3.61989717 10.9064436,0.662743485 C8.55126159,3.61860527 5.25684898,6.69590543 1.1549823,9.54324781" id="path-9"></path>
        <linearGradient x1="561.841587%" y1="621.489148%" x2="561.841587%" y2="-1879.5889%" id="linearGradient-11">
            <stop stop-color="#BBC1C2" offset="0%"></stop>
            <stop stop-color="#8DABB9" offset="100%"></stop>
        </linearGradient>
        <path d="M0.678261419,2.25177757 C1.01287039,2.05153344 1.41207568,1.76602406 1.85908225,1.40558462 C1.41207568,1.76602406 1.01287039,2.05153344 0.678261419,2.25177757" id="path-12"></path>
        <linearGradient x1="4418.5%" y1="5875.15%" x2="4418.5%" y2="-11524.85%" id="linearGradient-14">
            <stop stop-color="#A6B7C1" offset="0%"></stop>
            <stop stop-color="#82A4BA" offset="100%"></stop>
        </linearGradient>
        <path d="M19.7897303,31.0171703 C19.7897303,31.0158784 19.7897303,31.0158784 19.7897303,31.0158784 C19.4447859,28.4424183 15.4579007,0.425034321 5.17674954,0.422450526 C15.4591927,0.422450526 19.4460779,28.4501697 19.7897303,31.0171703" id="path-15"></path>
        <linearGradient x1="459.688948%" y1="237.902204%" x2="459.688948%" y2="-496.833038%" id="linearGradient-17">
            <stop stop-color="#A6B7C1" offset="0%"></stop>
            <stop stop-color="#82A4BA" offset="100%"></stop>
        </linearGradient>
    </defs>
    <g id="assets" stroke="none" stroke-width="1" fill="none" fill-rule="evenodd">
        <g id="homepage-and-login/signup" transform="translate(-53.000000, -269.000000)">
            <g id="1" transform="translate(53.000000, 269.000000)">
                <g id="Group-11" transform="translate(0.000000, 34.253095)">
                    <mask id="mask-2" fill="white">
                        <use xlink:href="#path-1"></use>
                    </mask>
                    <g id="Clip-10"></g>
                    <path d="M172.24481,202.397726 L164.16381,202.397726 C152.374981,194.615335 125.806512,185.103093 94.792524,178.186273 C71.6696233,173.027726 50.8721903,170.383211 36.7488497,170.383211 C26.9612144,170.383211 20.3788488,171.653147 18.4461267,174.236942 C6.90793106,157.328586 0.180869712,137.022539 0.180869712,115.171382 C0.180869712,56.2414715 49.0712447,0 109.383542,0 C112.596563,0 115.773411,0.158903409 118.916668,0.470250738 L118.916668,101.709809 C118.916668,102.366093 118.965761,103.030128 119.060072,103.694163 L119.060072,104.781941 C119.060072,112.380883 125.265195,120.824726 132.895313,123.60489 L188.899035,144.020748 C190.564328,144.626648 192.16115,144.914741 193.641697,144.914741 C198.94118,144.914741 202.734276,141.222498 202.734276,135.283644 L202.734276,57.4558553 C212.793216,74.9197275 218.586214,94.8860054 218.586214,115.171382 C218.586214,151.226953 200.265405,183.081273 172.24481,202.397726 M129.947136,156.699431 C124.681244,156.699431 121.505689,157.39964 121.548322,158.824603 C121.640049,161.910946 136.829229,167.233565 155.474312,170.711353 C165.519041,172.584605 174.517309,173.539317 180.666879,173.539317 C185.932772,173.539317 189.109619,172.839109 189.066986,171.415437 C188.975259,168.32651 173.786079,163.003892 155.140995,159.527395 C145.097559,157.655436 136.096707,156.699431 129.947136,156.699431 M37.9606767,144.474204 C40.5587409,149.27102 42.6012768,154.330091 43.6025198,159.87104 C43.6464453,160.111333 43.8195635,160.215977 44.0043089,160.215977 C44.2833651,160.215977 44.5908436,159.97956 44.5249553,159.616536 C43.5585943,154.269372 41.629748,149.361453 39.168628,144.704162 C38.8249756,142.137161 34.8380903,114.109442 24.5556472,114.109442 C23.0634721,114.109442 21.4395205,114.698548 19.6734569,116.042121 C19.6657054,116.048581 19.6566619,116.05504 19.6476184,116.0615 C7.09138463,125.657715 27.7014883,140.673441 37.9606767,144.474204 M43.3596376,120.77951 C47.4782993,132.406588 48.4084864,144.993547 48.9588471,157.468111 C48.9717664,157.77429 49.2185244,157.928026 49.4575308,157.928026 C49.6965372,157.928026 49.9290839,157.775582 49.9148727,157.468111 C49.6422763,151.270878 49.2727853,145.038763 48.469207,138.907417 C48.5325114,138.832487 48.5673934,138.730427 48.557058,138.599946 C47.889132,130.054043 49.646152,120.885445 52.3553219,112.063076 C52.6899309,111.862832 53.0891362,111.577323 53.5361428,111.216883 C59.5707315,106.361932 74.4718119,88.0518669 60.9660121,85.6683158 C60.3084215,85.552045 59.6934645,85.4964934 59.1133895,85.4964934 C47.9601879,85.4964934 50.7455815,106.042833 51.61634,111.176835 C49.3890587,118.271936 47.7612312,125.59958 47.4938025,132.721811 C46.6372552,128.154953 45.4706455,123.672068 43.8479858,119.327417 C44.4306447,112.706441 46.0390932,86.5325953 35.0292955,86.5325953 C34.0448475,86.5325953 32.9609211,86.7418827 31.7658891,87.1914631 C15.0096022,93.5075506 35.4711343,119.184016 43.3596376,120.77951 M53.0594219,140.36597 C51.7674954,145.644663 51.4380541,151.185612 51.2016316,156.704599 C51.1874204,157.012071 51.4199671,157.165806 51.6589735,157.165806 C51.8979799,157.165806 52.1447379,157.012071 52.1576572,156.704599 C52.4005394,151.047379 52.7261048,145.394035 54.1239693,140.024909 C58.225836,137.177566 61.5202486,134.100266 63.8754306,131.144404 C63.8780145,131.140529 63.8793064,131.137945 63.8818903,131.135361 C63.887058,131.128902 63.8922257,131.122442 63.8973934,131.117275 C63.8999772,131.112107 63.903853,131.108231 63.9077288,131.103064 C63.9116046,131.099188 63.9141884,131.09402 63.9180642,131.090145 C63.92194,131.084977 63.9271077,131.078518 63.9309835,131.07335 C63.9348593,131.068182 63.9374431,131.065599 63.9413189,131.060431 C63.9464866,131.053972 63.9503624,131.048804 63.956822,131.041053 C63.9581139,131.039761 63.9581139,131.038469 63.9594059,131.037177 C69.6438825,123.840015 69.7433609,117.386986 62.3625847,116.772043 C62.1778392,116.75654 61.9969695,116.748789 61.8199756,116.748789 C56.8240957,116.748789 54.481833,122.723816 53.4818818,128.69755 C52.6098315,133.909065 52.7596949,139.12058 53.0594219,140.36597 M72.8866181,202.397726 L46.5209818,202.397726 C39.2086777,197.356742 32.5552562,191.460521 26.7170403,184.858924 C36.2889238,190.483846 52.8850118,196.834815 72.8866181,202.397726" id="Fill-9" fill="url(#linearGradient-3)" mask="url(#mask-2)"></path>
                </g>
                <path d="M151.776819,249.662815 C137.653478,249.662815 116.854753,247.017008 93.7318524,241.859753 C86.4970639,240.246173 79.5064495,238.491776 72.8866181,236.650822 L164.16381,236.650822 C168.414248,239.456823 170.744884,242.038035 170.667368,244.191628 C170.5343,247.864493 163.427412,249.662815 151.776819,249.662815 M26.7170403,219.11202 C20.9795946,215.741459 17.7665734,212.630569 17.8583002,210.107493 C17.878971,209.520971 18.0779277,208.98225 18.4461267,208.490037 C20.9783027,212.200367 23.7430255,215.74921 26.7170403,219.11202" id="Fill-12" fill="#F1EAC8"></path>
                <g id="Group-15" transform="translate(18.086971, 204.119826)">
                    <mask id="mask-5" fill="white">
                        <use xlink:href="#path-4"></use>
                    </mask>
                    <g id="Clip-14"></g>
                    <path d="M146.076839,32.5309958 L54.7996469,32.5309958 C34.7980406,26.9680846 18.2019526,20.6171159 8.63006911,14.9921936 C5.65605427,11.629384 2.89133154,8.08054124 0.359155571,4.37021124 C2.29187763,1.78641597 8.87424322,0.516480599 18.6618785,0.516480599 C32.7852191,0.516480599 53.5826521,3.16099505 76.7055528,8.3195423 C107.719541,15.2363622 134.288009,24.7486045 146.076839,32.5309958" id="Fill-13" fill="url(#linearGradient-6)" mask="url(#mask-5)"></path>
                </g>
                <path d="M132.041349,153.818221 C124.803977,151.180166 118.916668,143.170401 118.916668,135.962904 L118.916668,13.6602471 C118.916668,6.45145832 124.803977,2.73466883 132.041349,5.3727238 L185.169243,24.7382693 C192.405324,27.3763243 198.292633,35.3860896 198.292633,42.5935865 L198.292633,164.896243 C198.292633,172.105032 192.405324,175.821822 185.167951,173.185059 L132.041349,153.818221" id="Fill-16" fill="#151516"></path>
                <path d="M132.895313,157.857985 C125.265195,155.077821 119.060072,146.633979 119.060072,139.035037 L119.060072,10.1088205 C119.060072,2.51117054 125.266487,-1.40844687 132.895313,1.37300873 L188.899035,21.7875751 C196.527861,24.5690307 202.734276,33.0128736 202.734276,40.6105236 L202.734276,169.53674 C202.734276,177.13439 196.527861,181.054007 188.899035,178.273843 L132.895313,157.857985" id="Fill-17" fill="#1E303C"></path>
                <path d="M132.041349,148.853459 C127.553197,147.217916 123.90092,142.25057 123.90092,137.779312 L123.90092,15.4766552 C123.90092,11.0066894 127.553197,8.7006521 132.041349,10.3374864 L185.167951,29.7030319 C189.656104,31.3385743 193.307088,36.3059207 193.307088,40.7771784 L193.307088,163.079835 C193.307088,167.549801 189.656104,169.855838 185.167951,168.219004 L132.041349,148.853459" id="Fill-18" fill="#FFD100"></path>
                <path d="M193.307088,163.116009 C193.307088,163.10309 193.307088,163.091462 193.307088,163.079835 L193.307088,40.7771784 L193.307088,163.079835 C193.307088,163.091462 193.307088,163.10309 193.307088,163.116009 M185.167951,29.7030319 L132.041349,10.3374864 C131.629225,10.1863344 131.224852,10.0700636 130.82823,9.98479835 C131.224852,10.0700636 131.629225,10.1863344 132.041349,10.3361945 L185.167951,29.7030319" id="Fill-19" fill="#243C4C"></path>
                <path d="M190.49844,168.16862 C191.051385,167.275919 191.369199,166.162303 191.369199,164.856195 L191.369199,42.5535377 C191.369199,38.08228 187.718214,33.1149336 183.230062,31.4780993 L130.103459,12.1125537 C129.129347,11.7572819 128.195284,11.5906271 127.329693,11.5906271 C126.384003,11.5906271 125.519704,11.7895793 124.772971,12.1642297 C125.701866,10.6669203 127.306439,9.81168406 129.259831,9.81168406 C129.762391,9.81168406 130.286913,9.86852756 130.82823,9.98479835 C131.224852,10.0700636 131.629225,10.1863344 132.041349,10.3374864 L185.167951,29.7030319 C189.656104,31.3385743 193.307088,36.3059207 193.307088,40.7771784 L193.307088,163.079835 C193.307088,163.091462 193.307088,163.10309 193.307088,163.116009 C193.307088,163.118592 193.307088,163.122468 193.307088,163.126344 C193.307088,163.135387 193.307088,163.145722 193.307088,163.154765 C193.307088,163.157349 193.307088,163.159933 193.307088,163.163809 C193.307088,163.174144 193.307088,163.185771 193.307088,163.197398 C193.307088,163.201274 193.307088,163.205149 193.307088,163.210317 C193.307088,163.218068 193.305796,163.224528 193.305796,163.233571 C193.305796,163.237447 193.305796,163.242614 193.305796,163.247782 C193.305796,163.258117 193.305796,163.268452 193.305796,163.278788 C193.304504,163.283955 193.304504,163.290415 193.304504,163.295582 C193.304504,163.30075 193.304504,163.305917 193.304504,163.311085 C193.304504,163.318836 193.304504,163.326588 193.303213,163.333047 C193.303213,163.335631 193.303213,163.336923 193.303213,163.338215 C193.228281,165.645544 192.15469,167.33793 190.49844,168.16862" id="Fill-20" fill="#C29F02"></path>
                <path d="M178.36725,26.2394544 L138.843342,11.8335039 L140.600362,16.5489302 C141.398773,18.6921884 143.226849,20.5576886 145.248714,21.2953621 L171.960587,31.0311027 C173.982452,31.7687762 175.810528,31.2352225 176.608938,29.6759021 L178.36725,26.2394544" id="Fill-21" fill="#1E303C"></path>
                <path d="M183.010434,46.511912 L134.198867,28.7198978 C131.580131,27.7651855 129.457496,29.1061752 129.457496,31.7132246 L129.457496,53.7168251 C129.457496,56.3251664 131.580131,59.2125576 134.198867,60.16727 L183.010434,77.9605761 C185.629169,78.9139965 187.751804,77.5742987 187.751804,74.9659574 L187.751804,52.9623569 C187.751804,50.3540156 185.629169,47.4666244 183.010434,46.511912" id="Fill-22" fill="#FFF0A9"></path>
                <path d="M183.010434,85.2016623 L134.198867,67.4083562 C131.580131,66.4536439 129.457496,67.7946336 129.457496,70.401683 L129.457496,92.4052835 C129.457496,95.0136248 131.580131,97.9023079 134.198867,98.8557284 L183.010434,116.649034 C185.629169,117.603747 187.751804,116.262757 187.751804,113.654416 L187.751804,91.6508153 C187.751804,89.0437659 185.629169,86.1550828 183.010434,85.2016623" id="Fill-23" fill="#FFF0A9"></path>
                <path d="M183.010434,124.303528 L134.198867,106.511514 C131.580131,105.556801 129.457496,106.896499 129.457496,109.504841 L129.457496,131.508441 C129.457496,134.116782 131.580131,137.004174 134.198867,137.958886 L183.010434,155.7509 C185.629169,156.705612 187.751804,155.365915 187.751804,152.757573 L187.751804,130.753973 C187.751804,128.145632 185.629169,125.25824 183.010434,124.303528" id="Fill-24" fill="#FFF0A9"></path>
                <path d="M167.370372,50.1925284 L150.508147,44.0456794 C149.939699,43.8376839 149.473314,44.1322366 149.473314,44.6980877 C149.473314,45.2652308 149.939699,45.8982606 150.508147,46.1049643 L167.370372,52.2518132 C167.938819,52.4585168 168.403913,52.165256 168.403913,51.5994049 C168.403913,51.0322618 167.938819,50.399232 167.370372,50.1925284" id="Fill-25" fill="#1E303C"></path>
                <path d="M167.370372,61.7614717 L150.508147,55.6159146 C149.939699,55.4079191 149.473314,55.7024718 149.473314,56.2696148 C149.473314,56.835466 149.939699,57.4684958 150.508147,57.6751995 L167.370372,63.8220484 C167.938819,64.028752 168.403913,63.7354912 168.403913,63.1696401 C168.403913,62.602497 167.938819,61.9694672 167.370372,61.7614717" id="Fill-26" fill="#1E303C"></path>
                <path d="M172.563916,57.9477899 L144.645384,47.7702203 C144.076937,47.5635167 143.611843,47.8580693 143.611843,48.4239205 C143.611843,48.9910636 144.076937,49.6228015 144.645384,49.830797 L172.563916,60.0070747 C173.132364,60.2150702 173.597457,59.9205175 173.597457,59.3546664 C173.597457,58.7875233 173.132364,58.1544935 172.563916,57.9477899" id="Fill-27" fill="#1E303C"></path>
                <path d="M167.370372,91.6779451 L150.508147,85.5310962 C149.939699,85.3243926 149.473314,85.6176533 149.473314,86.1847964 C149.473314,86.7506476 149.939699,87.3836774 150.508147,87.5916729 L167.370372,93.73723 C167.938819,93.9452255 168.403913,93.6519647 168.403913,93.0848217 C168.403913,92.5189705 167.938819,91.8846488 167.370372,91.6779451" id="Fill-28" fill="#1E303C"></path>
                <path d="M172.563916,99.4332066 L144.645384,89.256929 C144.076937,89.0502254 143.611843,89.3434861 143.611843,89.9106292 C143.611843,90.4764803 144.076937,91.1095102 144.645384,91.3162138 L172.563916,101.492491 C173.132364,101.700487 173.597457,101.405934 173.597457,100.840083 C173.597457,100.274232 173.132364,99.6412021 172.563916,99.4332066" id="Fill-29" fill="#1E303C"></path>
                <path d="M167.36908,127.951847 L150.508147,121.80629 C149.939699,121.598294 149.473314,121.891555 149.473314,122.458698 C149.473314,123.024549 149.939699,123.657579 150.508147,123.865575 L167.36908,130.012424 C167.938819,130.219127 168.403913,129.925866 168.403913,129.358723 C168.403913,128.792872 167.938819,128.15855 167.36908,127.951847" id="Fill-30" fill="#1E303C"></path>
                <path d="M167.36908,139.417438 L150.508147,133.271881 C149.939699,133.063886 149.473314,133.357147 149.473314,133.92429 C149.473314,134.490141 149.939699,135.124463 150.508147,135.331166 L167.36908,141.478015 C167.938819,141.684719 168.403913,141.391458 168.403913,140.824315 C168.403913,140.258464 167.938819,139.625434 167.36908,139.417438" id="Fill-31" fill="#1E303C"></path>
                <path d="M172.563916,135.707108 L144.645384,125.530831 C144.076937,125.324127 143.611843,125.617388 143.611843,126.183239 C143.611843,126.750382 144.076937,127.383412 144.645384,127.591407 L172.563916,137.766393 C173.132364,137.974389 173.597457,137.681128 173.597457,137.113985 C173.597457,136.548134 173.132364,135.915104 172.563916,135.707108" id="Fill-32" fill="#1E303C"></path>
                <path d="M119.287451,223.731845 C119.287451,223.731845 116.744939,222.818474 116.419374,217.211638 L108.986921,217.211638 L108.269901,224.904888 L113.810974,229.533758 L118.63632,227.121785 L119.287451,223.731845" id="Fill-33" fill="#EBBA72"></path>
                <path d="M108.269901,224.904888 C108.269901,224.904888 116.941312,227.774193 119.287451,223.731845 C119.287451,223.731845 135.311215,229.701704 135.194942,231.480647 C135.01278,234.30086 121.765366,234.87963 118.831401,234.162627 L116.288889,231.61888 L115.180416,234.554072 L107.878448,234.554072 C107.878448,234.554072 107.944336,225.36222 108.269901,224.904888" id="Fill-34" fill="#212121"></path>
                <path d="M91.5497885,223.792565 C91.5497885,223.792565 89.0524945,222.764214 88.9840224,217.147043 L81.5593207,216.807274 L80.4896056,224.457892 L85.8123428,229.337389 L90.7436263,227.148915 L91.5497885,223.792565" id="Fill-35" fill="#EBBA72"></path>
                <path d="M80.4896056,224.457892 C80.4896056,224.457892 89.0201964,227.722517 91.5497885,223.792565 C91.5497885,223.792565 105.572359,228.842592 106.378521,231.164133 C107.185975,233.485673 93.5122248,235.042409 90.6144337,234.192341 L88.1920715,231.534907 L86.9505301,234.414547 L79.6550211,234.079945 C79.6550211,234.079945 80.1433693,224.898429 80.4896056,224.457892" id="Fill-36" fill="#212121"></path>
                <path d="M75.4756388,135.718735 C75.4756388,135.718735 80.2996924,155.276774 81.4740536,158.536231 C82.6471229,161.795689 85.1250379,177.704117 85.2555225,178.224751 C85.3860071,178.746678 79.779046,219.689498 79.779046,219.689498 C79.779046,219.689498 87.3406919,221.384467 90.3405453,219.428534 L98.5559059,178.09427 L95.0354062,137.413705 L75.4756388,135.718735" id="Fill-37" fill="#212121"></path>
                <path d="M76.5195154,134.674882 C76.5195154,134.674882 83.9506767,147.388447 90.6015144,153.059877 C97.2510602,158.7326 105.466421,173.987327 105.466421,173.987327 L106.444409,219.362648 C109.634176,221.301786 113.613309,221.403846 116.898679,219.631362 L117.397362,219.362648 C117.397362,219.362648 118.570431,172.227763 118.375351,169.097495 C118.18027,165.968518 101.554467,129.981418 101.554467,129.981418 L76.5195154,134.674882" id="Fill-38" fill="#212121"></path>
                <path d="M105.270048,51.3552362 C105.270048,51.3552362 99.451211,71.9002843 90.1118743,71.3060114 C81.9301037,70.7840847 80.4082142,62.300193 82.3874456,51.8448654 C84.4403169,40.9890496 93.4049949,42.4243479 98.6205023,42.3584611 C98.6205023,42.3584611 105.074967,42.3584611 106.151142,37.3717363 C106.151142,37.3717363 113.68049,47.6397386 105.270048,51.3552362" id="Fill-39" fill="#212121"></path>
                <path d="M90.4348559,76.4012556 C90.4348559,76.4012556 79.0503995,74.3833115 73.7806312,98.6864898 C71.568853,108.889897 83.1690612,124.896509 83.1690612,124.896509 L95.2950834,101.555794 L90.4348559,76.4012556" id="Fill-40" fill="#9B9681"></path>
                <path d="M138.227093,62.6012051 C138.227093,62.6012051 142.530501,50.7687147 142.530501,47.5415544 C142.530501,44.3143941 144.974826,47.1501094 144.877931,49.5956717 C144.779745,52.039942 144.19321,54.778765 144.19321,54.778765 C144.19321,54.778765 147.518629,55.0720257 147.518629,56.6365138 C147.518629,58.2010018 146.442454,63.6773559 144.877931,64.55843 L138.227093,62.6012051" id="Fill-41" fill="#EBBA72"></path>
                <path d="M96.762712,78.0535927 C104.323066,81.9434965 120.526408,92.1352769 124.241989,88.8099324 C127.958861,85.4858798 138.227093,62.6012051 138.227093,62.6012051 L144.877931,64.55843 C144.877931,64.55843 130.664156,102.69654 126.458935,102.598356 C122.253714,102.501464 107.944336,99.7303431 107.944336,99.7303431 C107.944336,99.7303431 106.63949,126.656074 102.727537,134.088361 C102.727537,134.088361 83.4623285,141.031018 73.4873639,135.359588 C73.4873639,135.359588 81.7001407,124.807368 79.550375,109.249045 C77.301131,92.9659671 81.6536314,70.2789528 96.762712,78.0535927" id="Fill-42" fill="#B2AD97"></path>
                <path d="M105.270048,51.3552362 C105.270048,51.3552362 105.954769,54.9738415 107.030944,56.6365138 C108.107119,58.299186 110.454549,59.9605664 110.454549,59.9605664 L108.595467,62.3079444 C108.595467,62.3079444 109.964909,70.5231214 101.2612,72.0876094 L100.381398,80.2046023 L90.503328,76.8792578 L90.1118743,71.3060114 C90.1118743,71.3060114 91.7267824,69.594247 91.8236769,67.7855903 C91.8236769,67.7855903 89.8677002,65.8774575 90.503328,63.6282637 C91.1389558,61.37907 93.1440258,59.6673056 94.072921,60.4992877 C95.0018161,61.3299779 95.1000025,62.9926501 95.1000025,62.9926501 L96.3712582,62.9926501 C96.3712582,62.9926501 96.1477549,59.270693 96.9086996,57.7126645 C97.9357812,55.6094551 100.576479,52.431387 105.270048,51.3552362" id="Fill-43" fill="#DF8B4B"></path>
                <path d="M100.381398,80.2046023 L101.2612,72.0876094 C109.964909,70.5231214 108.595467,62.3079444 108.595467,62.3079444 L110.454549,59.9605664 C110.454549,59.9605664 108.107119,58.299186 107.030944,56.6365138 C105.954769,54.9738415 105.270048,51.3552362 105.270048,51.3552362 C104.874719,51.446961 104.514271,51.5709831 104.147364,51.6898377 C104.768781,53.4016021 105.652458,56.2192308 105.857875,58.8805399 C106.180856,63.0792072 105.515514,67.8230554 99.6398323,71.3951523 C97.6476816,72.6069523 96.9267866,75.8935399 96.7071591,78.9682562 L100.381398,80.2046023" id="Fill-44" fill="#EBBA72"></path>
                <path d="M97.1244514,161.603196 C90.6247691,160.133017 84.4816585,156.244405 79.7402882,152.451394 C78.1873926,146.596513 76.1952419,138.585456 75.6319619,136.332387 C76.3735277,136.606269 77.1564352,136.825892 77.9535539,137.005465 C80.4275931,140.948337 85.7180322,148.906426 90.5963467,153.056002 C92.6853919,154.842696 94.9255924,157.576351 97.0288488,160.476662 L97.1244514,161.603196" id="Fill-45" fill="#15232F"></path>
                <g id="Group-48" transform="translate(121.441092, 190.572709)">
                    <mask id="mask-8" fill="white">
                        <use xlink:href="#path-7"></use>
                    </mask>
                    <g id="Clip-47"></g>
                    <path d="M59.2257871,17.2197035 C53.0762169,17.2197035 44.0779488,16.2649912 34.0332201,14.3917396 C15.3881367,10.9139512 0.198956683,5.59133295 0.107229901,2.50498951 C0.0645963256,1.08002642 3.24015169,0.379817904 8.50604416,0.379817904 C14.6556144,0.379817904 23.6564664,1.33582215 33.6999031,3.20778182 C52.3449865,6.68427835 67.5341665,12.0068966 67.6258933,15.0958238 C67.6685269,16.519495 64.4916796,17.2197035 59.2257871,17.2197035" id="Fill-46" fill="url(#linearGradient-3)" mask="url(#mask-8)"></path>
                </g>
                <path d="M43.7007062,155.086865 C43.7007062,155.086865 48.2702503,115.224071 31.7658891,121.444558 C14.7628443,127.853663 36.0835075,154.199331 43.7007062,155.086865" id="Fill-49" fill="#BBA645"></path>
                <path d="M39.1931746,179.144582 C39.1931746,179.144582 34.1895432,139.249492 19.6734569,150.295216 C6.5345643,160.29192 29.481763,176.193888 39.1931746,179.144582" id="Fill-50" fill-opacity="0.5" fill="#FFD100"></path>
                <path d="M28.4559734,164.175365 C35.0913079,173.381427 41.5444809,182.738642 43.6025198,194.124135 C43.7123336,194.728744 44.6347691,194.471656 44.5249553,193.869632 C42.4527052,182.413083 35.969818,172.973187 29.2815144,163.693487 C28.9249427,163.19869 28.0955259,163.6754 28.4559734,164.175365" id="Fill-51" fill="#1E303C"></path>
                <path d="M51.8256321,146.581011 C51.8256321,146.581011 45.8582235,117.254934 60.9660121,119.921411 C76.0738008,122.587888 55.6342314,145.184469 51.8256321,146.581011" id="Fill-52" fill="#FBE47B"></path>
                <path d="M53.2222046,174.891655 C52.8397944,175.146159 52.4612599,169.048402 53.4818818,162.950646 C54.516715,156.763748 56.9920462,150.57685 62.3625847,151.025139 C73.0274381,151.913964 68.0754837,164.98926 53.2222046,174.891655" id="Fill-53" fill="#BBA645"></path>
                <path d="M48.557058,172.853041 C47.395616,157.989759 53.5697329,141.245474 59.3291412,127.706386 C59.5668557,127.146995 58.7438985,126.658657 58.5036002,127.223217 C52.6485892,140.987094 46.4163357,157.687455 47.6010324,172.853041 C47.6475417,173.461525 48.6048593,173.466692 48.557058,172.853041" id="Fill-54" fill="#1E303C"></path>
                <path d="M49.9148727,191.721206 C49.1474684,174.289631 47.6113678,156.590634 37.8456953,141.600745 C37.5110863,141.08657 36.6829614,141.564572 37.0201542,142.082623 C46.7031434,156.945905 48.1979024,174.440783 48.9588471,191.721206 C48.9859776,192.333565 49.9420032,192.336149 49.9148727,191.721206" id="Fill-55" fill="#1E303C"></path>
                <path d="M52.1576572,190.957694 C52.5516948,181.786513 53.1614841,172.628251 58.209041,164.670161 C58.5397741,164.149527 57.7116492,163.668941 57.3834999,164.188284 C52.2623032,172.261352 51.6008368,181.640529 51.2016316,190.957694 C51.1745011,191.572638 52.1318186,191.571346 52.1576572,190.957694" id="Fill-56" fill="#1E303C"></path>
                <path d="M35.3419417,189.052145 L37.8237325,211.524705 C38.1337949,214.33329 40.5070639,216.458462 43.3337991,216.458462 L57.6586803,216.458462 C60.4854155,216.458462 62.8586845,214.33329 63.1687468,211.524705 L65.6505377,189.052145 C65.78619,187.83001 64.8288724,186.761611 63.5989584,186.761611 L37.393521,186.761611 C36.1636069,186.761611 35.2062894,187.83001 35.3419417,189.052145" id="Fill-57" fill="#FFF0A9"></path>
                <path d="M63.5989584,186.761611 L54.5128392,186.761611 C55.7427532,186.761611 56.7000708,187.83001 56.5657104,189.052145 L54.0839196,211.524705 C53.7738572,214.33329 51.3992963,216.458462 48.5725611,216.458462 L57.6586803,216.458462 C60.4854155,216.458462 62.8586845,214.33329 63.1687468,211.524705 L65.6505377,189.052145 C65.78619,187.83001 64.8288724,186.761611 63.5989584,186.761611" id="Fill-58" fill="#EEE09B"></path>
                <path d="M43.3596376,155.032605 C41.9204315,154.740636 40.0626412,153.641231 38.0885774,152.012148 C39.0471869,150.570391 39.730616,149.087292 40.1853742,147.582231 C41.4139963,150.013583 42.4617487,152.500486 43.3596376,155.032605 M43.8466939,153.57922 C42.9074633,151.063896 41.8157854,148.596371 40.5419459,146.186982 C42.6090283,136.328511 35.5499419,125.940362 31.9196283,121.39805 C33.0526479,120.988519 34.0836053,120.797318 35.0241278,120.797318 C46.0313416,120.797318 44.4293528,146.959537 43.8466939,153.57922" id="Fill-59" fill="#A78D13"></path>
                <path d="M43.7007062,155.086865 C43.5896005,155.073946 43.475911,155.055859 43.3596376,155.032605 C42.4617487,152.500486 41.4139963,150.013583 40.1853742,147.582231 C40.3261942,147.119732 40.4437595,146.653357 40.5419459,146.186982 C41.8157854,148.596371 42.9074633,151.063896 43.8466939,153.57922 C43.7627187,154.537808 43.7007062,155.086865 43.7007062,155.086865" id="Fill-60" fill="#1B2D39"></path>
                <g id="Group-63" transform="translate(52.968987, 164.734756)">
                    <mask id="mask-10" fill="white">
                        <use xlink:href="#path-9"></use>
                    </mask>
                    <g id="Clip-62"></g>
                    <path d="M1.1549823,9.54324781 C5.25814091,6.69590543 8.54996966,3.61989717 10.9064436,0.662743485 C8.55126159,3.61860527 5.25684898,6.69590543 1.1549823,9.54324781" id="Fill-61" fill="url(#linearGradient-11)" mask="url(#mask-10)"></path>
                </g>
                <path d="M53.0594219,174.619065 C52.8733845,173.840051 52.7467757,171.52497 52.8863037,168.632411 C53.197658,168.655666 53.4999688,168.666001 53.7932361,168.666001 C54.235075,168.666001 54.656243,168.640163 55.0593241,168.591071 C54.2131123,170.549587 53.5632732,172.564948 53.0594219,174.619065 M54.1239693,174.278004 C54.6484915,172.266519 55.3228771,170.293792 56.2013872,168.376616 C63.6015422,166.460731 63.6041261,155.577786 63.2824364,151.138826 C69.72269,152.203349 69.3971246,158.40575 63.9594059,165.290272 C63.9581139,165.291564 63.9581139,165.292856 63.956822,165.294148 C63.9516543,165.300607 63.9464866,165.308359 63.9413189,165.313526 C63.9374431,165.317402 63.9348593,165.32257 63.9309835,165.326445 C63.9271077,165.331613 63.92194,165.338072 63.9180642,165.34324 C63.9141884,165.348408 63.9116046,165.352283 63.9077288,165.356159 C63.903853,165.360035 63.8999772,165.365202 63.8973934,165.37037 C63.8922257,165.375537 63.887058,165.381997 63.8818903,165.388456 C63.8805983,165.39104 63.8780145,165.394916 63.8754306,165.3975 C61.5189567,168.354653 58.2271279,171.430662 54.1239693,174.278004" id="Fill-64" fill="#A78D13"></path>
                <path d="M53.1989499,174.899407 C53.1511487,174.899407 53.1033474,174.802515 53.0594219,174.619065 C53.5632732,172.564948 54.2131123,170.549587 55.0593241,168.591071 C55.4585294,168.541979 55.8383558,168.469632 56.2013872,168.376616 C55.3228771,170.293792 54.6484915,172.266519 54.1239693,174.278004 C53.8281182,174.484708 53.5270993,174.688828 53.2222046,174.891655 C53.2144531,174.896823 53.2067015,174.899407 53.1989499,174.899407" id="Fill-65" fill="#1B2D39"></path>
                <g id="Group-68" transform="translate(51.677061, 144.064394)">
                    <mask id="mask-13" fill="white">
                        <use xlink:href="#path-12"></use>
                    </mask>
                    <g id="Clip-67"></g>
                    <path d="M0.678261419,2.25177757 C1.01287039,2.05153344 1.41207568,1.76602406 1.85908225,1.40558462 C1.41207568,1.76602406 1.01287039,2.05153344 0.678261419,2.25177757" id="Fill-66" fill="url(#linearGradient-14)" mask="url(#mask-13)"></path>
                </g>
                <path d="M52.3553219,146.316172 C53.1666518,143.674241 54.0632488,141.064608 55.0050632,138.510526 C61.9582117,135.725195 61.9750067,124.53607 61.6907829,120.09065 C73.8749419,123.019382 59.4505823,140.710628 53.5361428,145.469979 C53.0891362,145.830418 52.6899309,146.115928 52.3553219,146.316172 M51.61634,145.428638 C51.3967125,144.123821 51.05306,141.828119 50.8437679,139.129345 C51.0633954,139.140972 51.2765633,139.14614 51.4858554,139.14614 C52.3411107,139.14614 53.127894,139.053123 53.848789,138.878717 C53.0620057,141.031018 52.3101045,143.216909 51.61634,145.428638" id="Fill-69" fill="#FDDA3D"></path>
                <path d="M51.8256321,146.581011 C51.8256321,146.581011 51.7403649,146.162436 51.61634,145.428638 C52.3101045,143.216909 53.0620057,141.031018 53.848789,138.878717 C54.2544539,138.780533 54.639448,138.657803 55.0050632,138.510526 C54.0632488,141.064608 53.1666518,143.674241 52.3553219,146.316172 C52.1550733,146.436318 51.9767875,146.525459 51.8256321,146.581011" id="Fill-70" fill="#264357"></path>
                <g id="Group-73" transform="translate(19.378898, 147.940087)">
                    <mask id="mask-16" fill="white">
                        <use xlink:href="#path-15"></use>
                    </mask>
                    <g id="Clip-72"></g>
                    <path d="M19.7897303,31.0171703 C19.7897303,31.0158784 19.7897303,31.0158784 19.7897303,31.0158784 C19.4447859,28.4424183 15.4579007,0.425034321 5.17674954,0.422450526 C15.4591927,0.422450526 19.4460779,28.4501697 19.7897303,31.0171703" id="Fill-71" fill="url(#linearGradient-17)" mask="url(#mask-16)"></path>
                </g>
                <path d="M39.168628,178.955965 C37.6209001,176.027233 35.8625881,173.197978 33.99963,170.42169 C34.2541396,157.885115 22.3839188,152.734319 18.4319156,151.371367 C18.7988227,151.013512 19.1967361,150.659532 19.6476184,150.314595 C19.6566619,150.308135 19.6657054,150.301676 19.6734569,150.295216 C21.4395205,148.951643 23.0634721,148.361246 24.5556472,148.362538 C34.8367984,148.365121 38.8236836,176.382505 39.168628,178.955965 M37.9606767,178.7273 C36.4891724,178.180827 34.8045003,177.401813 33.0358529,176.444516 C33.4880271,174.876153 33.7696671,173.39693 33.9053194,172.002972 C35.3484013,174.199198 36.7178434,176.432889 37.9606767,178.7273" id="Fill-74" fill="#FDDA3D"></path>
                <path d="M39.1931746,179.144582 C38.8030128,179.025728 38.3908883,178.886203 37.9606767,178.7273 C36.7178434,176.432889 35.3484013,174.199198 33.9053194,172.002972 C33.9582884,171.462959 33.9892946,170.935865 33.99963,170.42169 C35.8625881,173.197978 37.6209001,176.027233 39.168628,178.955965 C39.168628,178.955965 39.168628,178.955965 39.168628,178.957257 C39.1854231,179.079988 39.1931746,179.144582 39.1931746,179.144582" id="Fill-75" fill="#264357"></path>
            </g>
        </g>
    </g>
</svg>