<?xml version="1.0" encoding="UTF-8"?>
<svg width="250px" height="250px" viewBox="0 0 250 250" version="1.1" xmlns="http://www.w3.org/2000/svg" xmlns:xlink="http://www.w3.org/1999/xlink">
    <!-- Generator: Sketch 52.6 (67491) - http://www.bohemiancoding.com/sketch -->
    <title>2</title>
    <desc>Created with Sketch.</desc>
    <defs>
        <linearGradient x1="50%" y1="92.3404418%" x2="50%" y2="-18.7231517%" id="linearGradient-1">
            <stop stop-color="#FFFFFE" offset="0%"></stop>
            <stop stop-color="#FBE47B" stop-opacity="0.306216033" offset="100%"></stop>
        </linearGradient>
    </defs>
    <g id="assets" stroke="none" stroke-width="1" fill="none" fill-rule="evenodd">
        <g id="homepage-and-login/signup" transform="translate(-382.000000, -269.000000)">
            <g id="2" transform="translate(382.000000, 269.000000)">
                <circle id="Oval" fill="url(#linearGradient-1)" cx="125" cy="125" r="125"></circle>
                <g id="Group-7" transform="translate(25.735294, 46.380090)">
                    <path d="M64.4168552,154.237839 C63.8752828,154.237839 63.3574661,154.068156 62.9261878,153.770362 C62.4092195,153.411482 62.0169683,152.864536 61.8656674,152.202206 L61.8628394,152.189762 C62.0096154,152.361143 62.177319,152.511878 62.3605769,152.63914 C62.7918552,152.936934 63.3093891,153.106618 63.8512443,153.106618 C64.0441176,153.106618 64.239819,153.085124 64.4358032,153.040441 L158.112557,131.64112 C158.121889,131.63914 158.131222,131.636878 158.140554,131.634615 L158.836538,131.475679 C160.397059,131.119344 161.373303,129.565045 161.016968,128.004242 L160.800057,127.055147 L161.107183,127.055147 L161.582579,129.135464 C161.938914,130.696267 160.96267,132.250566 159.402149,132.6069 L158.680713,132.771776 L158.678167,132.772342 L65.0011312,154.171663 C64.8051471,154.216346 64.6097285,154.237839 64.4168552,154.237839 M160.034219,122.357749 L159.727093,122.357749 L145.726527,61.0690045 L146.033654,61.0690045 L160.034219,122.357749 M144.96069,56.3713235 L144.653281,56.3713235 L141.683824,43.3718891 C141.804016,43.4544683 141.925057,43.5361991 142.046946,43.616233 L144.96069,56.3713235 M65.8523756,23.020362 L65.2816742,20.5229072 C65.1459276,19.9276018 65.5186652,19.3339932 66.1136878,19.1982466 L74.5234729,17.2771493 C75.0738122,17.1513009 75.4276018,16.6354638 75.3758484,16.0760747 C75.0356335,12.4307127 77.4408937,9.01187783 81.1040724,8.17505656 C81.6600679,8.04807692 82.2154977,7.98727376 82.7624434,7.98727376 C85.8215498,7.98727376 88.611991,9.89394796 89.6948529,12.8051471 C89.8617081,13.2528281 90.279129,13.5446833 90.7386878,13.5446833 C90.8195701,13.5446833 90.9018665,13.5356335 90.9841629,13.5169683 L100.066176,11.4423077 C100.148756,11.4233597 100.231335,11.41431 100.3125,11.41431 C100.595305,11.41431 100.864253,11.52319 101.065328,11.709276 C101.221719,11.8543552 101.339649,12.0500566 101.390837,12.2743213 L101.961538,14.771776 L84.654129,18.7253959 C86.0834276,17.9103507 86.8741516,16.2293552 86.4892534,14.543552 C86.0837104,12.7686652 84.5059389,11.5644796 82.7576357,11.5644796 C82.4751131,11.5644796 82.1877828,11.595871 81.9004525,11.6614819 C79.8385181,12.1326357 78.5472285,14.1883484 79.0183824,16.2502828 C79.4035633,17.936086 80.8472851,19.1063348 82.4881222,19.2203054 L65.8523756,23.020362 M135.188631,14.9383484 L134.150452,10.3933824 C134.14621,10.3747172 134.141686,10.3563348 134.137161,10.3379525 C134.410633,10.6727941 134.613122,11.0743778 134.716063,11.5246041 L135.409785,14.5619344 C135.334842,14.6863688 135.261029,14.8122172 135.188631,14.9383484" id="Fill-15" fill="#FFD100"></path>
                    <polyline id="Fill-16" fill="#F1AE2B" points="161.107183 127.055147 160.800057 127.055147 159.727093 122.357749 160.034219 122.357749 161.107183 127.055147"></polyline>
                    <polyline id="Fill-17" fill="#F1AE2B" points="146.033654 61.0690045 145.726527 61.0690045 144.653281 56.3713235 144.96069 56.3713235 146.033654 61.0690045"></polyline>
                    <path d="M158.836538,131.475679 L65.7055995,152.75 C64.1447964,153.106618 62.5904977,152.130373 62.2341629,150.56957 L35.3676471,32.9587104 C35.0110294,31.3979072 35.9872738,29.8436086 37.5480769,29.4872738 L130.678733,8.21295249 C132.239536,7.85633484 133.793835,8.83257919 134.150452,10.3933824 L161.016968,128.004242 C161.373303,129.565045 160.397059,131.119344 158.836538,131.475679" id="Fill-18" fill="#2B3235"></path>
                    <path d="M133.090498,10.3467195 L160.082014,128.505656 C160.404129,129.915158 159.524604,131.318722 158.112557,131.64112 L64.4358032,153.040441 C63.6886312,153.210973 62.9454186,153.042704 62.3605769,152.63914 C61.8436086,152.280543 61.4513575,151.733314 61.3000566,151.070984 L34.3082579,32.9120475 C33.9864253,31.5025452 34.8682127,30.0981335 36.2777149,29.7763009 L129.954751,8.37726244 C130.701923,8.20644796 131.447681,8.37415158 132.029977,8.77828054 C132.546946,9.13716063 132.939197,9.68410633 133.090498,10.3467195" id="Fill-19" fill="#212121"></path>
                    <path d="M132.029977,8.77828054 L62.3605769,152.63914 C61.8436086,152.280543 61.4513575,151.733314 61.3000566,151.070984 L34.3082579,32.9120475 C33.9864253,31.5025452 34.8682127,30.0981335 36.2777149,29.7763009 L129.954751,8.37726244 C130.701923,8.20644796 131.447681,8.37415158 132.029977,8.77828054" id="Fill-20" fill="#343434"></path>
                    <polyline id="Fill-21" fill="#FFFFFE" points="129.678733 13.6360294 153.295814 117.022624 145.579468 129.308258 64.7123869 147.781109 38.8108032 34.3936652 129.678733 13.6360294"></polyline>
                    <polyline id="Fill-22" fill="#E6E6E1" points="153.295814 117.022624 145.579468 129.308258 143.294966 119.30741 153.295814 117.022624"></polyline>
                    <path d="M51.8045814,47.2590498 L53.803733,56.0107466 L62.5554299,54.0113122 L60.5562783,45.2598982 L51.8045814,47.2590498 Z M52.1020928,58.7203054 L49.0950226,45.5571267 L62.2579186,42.5503394 L65.2649887,55.7132353 L52.1020928,58.7203054 Z" id="Fill-23" fill="#E6E6E1"></path>
                    <polyline id="Fill-24" fill="#212121" points="56.2157805 54.7304864 53.3993213 52.9615385 54.1513009 51.7641403 55.770362 52.7811086 59.5735294 46.7262443 60.7709276 47.478224 56.2157805 54.7304864"></polyline>
                    <polyline id="Fill-25" fill="#FFDA32" points="92.052319 39.2782805 66.9029977 45.02319 66.3665158 42.6747738 91.5158371 36.9298643 92.052319 39.2782805"></polyline>
                    <polyline id="Fill-26" fill="#E6E6E1" points="126.927319 35.9380656 67.9075226 49.4202489 67.3710407 47.0718326 126.390837 33.5896493 126.927319 35.9380656"></polyline>
                    <polyline id="Fill-27" fill="#E6E6E1" points="118.03224 42.4988688 68.8908371 53.7245475 68.3543552 51.3761312 117.495758 40.1504525 118.03224 42.4988688"></polyline>
                    <path d="M56.3800905,67.2884615 L58.3792421,76.0401584 L67.1309389,74.040724 L65.1315045,65.28931 L56.3800905,67.2884615 Z M56.677319,78.7494344 L53.6705317,65.5865385 L66.8334276,62.5797511 L69.8404977,75.7426471 L56.677319,78.7494344 Z" id="Fill-28" fill="#E6E6E1"></path>
                    <polyline id="Fill-29" fill="#212121" points="60.7912896 74.7598982 57.9748303 72.9909502 58.72681 71.793552 60.345871 72.8105204 64.1490385 66.7556561 65.3464367 67.5076357 60.7912896 74.7598982"></polyline>
                    <polyline id="Fill-30" fill="#FFDA32" points="96.6278281 59.3076923 71.4785068 65.0526018 70.9420249 62.7041855 96.0913462 56.959276 96.6278281 59.3076923"></polyline>
                    <polyline id="Fill-31" fill="#E6E6E1" points="131.502545 55.9674774 72.4827489 69.4496606 71.946267 67.1012443 130.966063 53.6190611 131.502545 55.9674774"></polyline>
                    <polyline id="Fill-32" fill="#E6E6E1" points="92.1699661 69.4813348 73.4660633 73.7539593 72.9295814 71.405543 91.6334842 67.1329186 92.1699661 69.4813348"></polyline>
                    <path d="M60.9555995,87.3178733 L62.9547511,96.0692873 L71.7061652,94.0701357 L69.7070136,85.3184389 L60.9555995,87.3178733 M61.2528281,98.7788462 L58.2460407,85.616233 L71.4089367,82.6091629 L74.415724,95.7720588 L61.2528281,98.7788462" id="Fill-33" fill="#E6E6E1"></path>
                    <polyline id="Fill-34" fill="#343C41" points="64.8402149 94.3970588 63.6425339 93.6445136 67.8215498 86.9909502 69.0192308 87.7432127 64.8402149 94.3970588"></polyline>
                    <polyline id="Fill-35" fill="#212121" points="69.2816742 93.3820701 62.6281109 89.2030543 63.3800905 88.0056561 70.0336538 92.1846719 69.2816742 93.3820701"></polyline>
                    <polyline id="Fill-36" fill="#FFDA32" points="101.203337 79.3371041 76.0540158 85.0820136 75.5175339 82.7335973 100.666855 76.9886878 101.203337 79.3371041"></polyline>
                    <polyline id="Fill-37" fill="#E6E6E1" points="136.078054 75.9968891 77.0582579 89.4790724 76.521776 87.1306561 135.541572 73.6484729 136.078054 75.9968891"></polyline>
                    <polyline id="Fill-38" fill="#E6E6E1" points="117.830034 84.6942873 78.0415724 93.783371 77.5050905 91.4349548 117.293552 82.345871 117.830034 84.6942873"></polyline>
                    <path d="M65.5308258,107.347002 L67.5299774,116.098982 L76.2816742,114.099548 L74.2825226,105.347851 L65.5308258,107.347002 Z M65.8283371,118.808258 L62.821267,105.645362 L75.9841629,102.638575 L78.991233,115.801471 L65.8283371,118.808258 Z" id="Fill-39" fill="#E6E6E1"></path>
                    <polyline id="Fill-40" fill="#212121" points="69.4154412 114.426471 68.218043 113.674208 72.3970588 107.020362 73.5947398 107.772624 69.4154412 114.426471"></polyline>
                    <polyline id="Fill-41" fill="#212121" points="73.8571833 113.411765 67.2036199 109.232466 67.9555995 108.035068 74.6091629 112.214084 73.8571833 113.411765"></polyline>
                    <polyline id="Fill-42" fill="#FFDA32" points="105.778563 99.3665158 80.6292421 105.111425 80.0927602 102.763009 105.242364 97.0180995 105.778563 99.3665158"></polyline>
                    <polyline id="Fill-43" fill="#E6E6E1" points="140.653281 96.0263009 81.633767 109.508484 81.0972851 107.160068 140.117081 93.6778846 140.653281 96.0263009"></polyline>
                    <polyline id="Fill-44" fill="#E6E6E1" points="137.845023 101.196833 82.6170814 113.812783 82.0805995 111.464367 137.308541 98.8484163 137.845023 101.196833"></polyline>
                    <path d="M70.1063348,127.376697 L72.1054864,136.128394 L80.8569005,134.129242 L78.8577489,125.377262 L70.1063348,127.376697 Z M70.4035633,138.83767 L67.396776,125.674774 L80.5596719,122.667986 L83.5664593,135.830882 L70.4035633,138.83767 Z" id="Fill-45" fill="#E6E6E1"></path>
                    <polyline id="Fill-46" fill="#212121" points="74.5175339 134.848133 71.7010747 133.079186 72.4530543 131.881505 74.0723982 132.898756 77.8752828 126.843609 79.072681 127.595871 74.5175339 134.848133"></polyline>
                    <polyline id="Fill-47" fill="#FFDA32" points="110.354072 119.395928 85.2047511 125.140837 84.6682692 122.792421 109.81759 117.047511 110.354072 119.395928"></polyline>
                    <polyline id="Fill-48" fill="#E6E6E1" points="145.22879 116.05543 86.2089932 129.537613 85.6727941 127.18948 144.692308 113.707296 145.22879 116.05543"></polyline>
                    <polyline id="Fill-49" fill="#E6E6E1" points="136.333993 122.616516 87.1923077 133.842195 86.6558258 131.493778 135.797511 120.2681 136.333993 122.616516"></polyline>
                    <path d="M81.3348416,10.5302602 C83.3993213,10.0588235 85.4524887,11.3503959 85.9236425,13.4123303 C86.3947964,15.4742647 85.106052,17.5296946 83.0415724,18.0011312 C80.979638,18.4722851 78.9239253,17.1809955 78.4527715,15.1190611 C77.9816176,13.0571267 79.2729072,11.001414 81.3348416,10.5302602 Z M100.499717,10.5780543 C100.240667,10.3385181 99.8693439,10.22681 99.5005656,10.311086 L90.418552,12.3857466 C89.8682127,12.5113122 89.325509,12.2002262 89.1292421,11.6739253 C87.8529412,8.24236425 84.2041855,6.20644796 80.5384615,7.04383484 C76.8752828,7.88065611 74.4700226,11.2992081 74.8102376,14.9448529 C74.861991,15.5042421 74.5082014,16.0200792 73.957862,16.1459276 L65.5480769,18.0670249 C64.9530543,18.2027715 64.5803167,18.7963801 64.7160633,19.3914027 L66.8351244,28.6677036 C67.2101244,30.3088235 68.1527149,31.6710973 69.4117647,32.5938914 C70.9346719,33.7211538 72.9227941,34.1999434 74.9174208,33.7443439 L97.8679299,28.501414 C101.501414,27.6716629 103.774321,24.0526018 102.944287,20.4191176 L100.825226,11.1428167 C100.774038,10.9188348 100.656109,10.7231335 100.499717,10.5780543 Z" id="Fill-50" fill="#D8DDD7"></path>
                    <path d="M83.0415724,18.0011312 C80.979638,18.4722851 78.9239253,17.1809955 78.4527715,15.1190611 C77.9816176,13.0571267 79.2729072,11.001414 81.3348416,10.5302602 C83.3993213,10.0588235 85.4524887,11.3503959 85.9236425,13.4123303 C86.3947964,15.4742647 85.106052,17.5296946 83.0415724,18.0011312 Z M99.5005656,10.311086 L90.418552,12.3857466 C89.8682127,12.5113122 89.325509,12.2002262 89.1292421,11.6739253 C87.8529412,8.24236425 84.2041855,6.20644796 80.5384615,7.04383484 C76.8752828,7.88065611 74.4700226,11.2992081 74.8102376,14.9448529 C74.861991,15.5042421 74.5082014,16.0200792 73.957862,16.1459276 L65.5480769,18.0670249 C64.9530543,18.2027715 64.5803167,18.7963801 64.7160633,19.3914027 L66.8351244,28.6677036 C67.2101244,30.3088235 68.1527149,31.6710973 69.4117647,32.5938914 L100.499717,10.5780543 C100.240667,10.3385181 99.8693439,10.22681 99.5005656,10.311086 Z" id="Fill-51" fill="#E4EAE5"></path>
                    <path d="M16.9428733,157.082014 C16.0446833,157.082014 15.1416855,156.774038 14.4049774,156.145362 L13.9442873,155.75198 C12.300905,154.349265 12.106052,151.88009 13.5084842,150.236991 L51.0599548,106.244061 L53.2918552,116.014706 L25.216629,148.905826 L25.4507919,149.230204 L19.9199661,155.709559 C19.1462104,156.616233 18.0480769,157.082014 16.9428733,157.082014" id="Fill-52" fill="#FFD100"></path>
                    <polyline id="Fill-53" fill="#3B4032" points="53.2918552 116.014706 51.0599548 106.244061 54.3447398 102.395645 56.5769231 112.16629 53.2918552 116.014706"></polyline>
                    <path d="M56.5769231,112.16629 L54.3447398,102.395645 L60.446267,95.2477376 L61.2528281,98.7788462 L69.6394231,96.8631222 L56.5769231,112.16629 M62.9547511,96.0692873 L62.2768665,93.1026584 L64.5664593,90.4205317 L65.356052,90.9165724 L63.6425339,93.6445136 L64.8402149,94.3970588 L66.553733,91.6688348 L69.2816742,93.3820701 L70.0336538,92.1846719 L67.3057127,90.4711538 L69.0192308,87.7432127 L68.7316176,87.5625 L70.0240385,86.7067308 L71.6654412,93.8916855 L71.5593891,94.1037896 L62.9547511,96.0692873 M73.2590498,90.7087104 L72.0401584,85.3721719 L72.741233,84.9078054 L72.7409502,84.9080882 L75.584276,83.0260181 L76.0328054,84.989819 L75.1388575,86.9544683 L73.2590498,90.7087104 M66.1080317,89.7191742 L65.7828054,89.5147059 L66.5593891,89.0005656 L66.1080317,89.7191742" id="Fill-54" fill="#FAE69F"></path>
                    <path d="M61.2528281,98.7788462 L60.446267,95.2477376 L62.2768665,93.1026584 L62.9547511,96.0692873 L71.5593891,94.1037896 L70.9414593,95.3376697 L69.6394231,96.8631222 L61.2528281,98.7788462 M71.6654412,93.8916855 L70.0240385,86.7067308 L72.0401584,85.3721719 L73.2590498,90.7087104 L71.6654412,93.8916855" id="Fill-55" fill="#E1CC8D"></path>
                    <path d="M64.8402149,94.3970588 L63.6425339,93.6445136 L65.356052,90.9165724 L66.553733,91.6688348 L64.8402149,94.3970588 M67.3057127,90.4711538 L66.1080317,89.7191742 L66.5593891,89.0005656 L68.7316176,87.5625 L69.0192308,87.7432127 L67.3057127,90.4711538" id="Fill-56" fill="#32362B"></path>
                    <polyline id="Fill-57" fill="#32362B" points="69.2816742 93.3820701 64.5664593 90.4205317 64.7638575 90.1891968 65.7828054 89.5147059 66.1080317 89.7191742 67.3057127 90.4711538 70.0336538 92.1846719 69.2816742 93.3820701"></polyline>
                    <polyline id="Fill-58" fill="#FAE69F" points="76.293552 82.5562783 77.5056561 81.7539593 77.2386878 82.3404977 76.293552 82.5562783"></polyline>
                    <polyline id="Fill-59" fill="#DE4B3D" points="76.0328054 84.989819 75.584276 83.0260181 76.293552 82.5562783 77.2386878 82.3404977 76.0328054 84.989819"></polyline>
                    <polyline id="Fill-60" fill="#596C7A" points="20.4021493 153.495475 70.7977941 94.4547511 77.1278281 80.5469457 64.3863122 88.9821833 13.9906674 148.022624 20.4021493 153.495475"></polyline>
                    <polyline id="Fill-61" fill="#556773" points="20.4021493 153.495475 70.7977941 94.4547511 68.790724 92.7417986 18.3950792 151.78224 20.4021493 153.495475"></polyline>
                    <polyline id="Fill-62" fill="#63747D" points="13.9906674 148.022624 64.3863122 88.9821833 66.3933824 90.6951357 15.9977376 149.73586 13.9906674 148.022624"></polyline>
                    <path d="M23.1179299,150.313631 L16.706448,144.840781 L13.1309389,149.029977 C11.728224,150.673077 11.9233597,153.142251 13.5664593,154.544966 L14.0274321,154.938348 C15.6705317,156.341063 18.1397059,156.145928 19.5424208,154.502545 L23.1179299,150.313631" id="Fill-63" fill="#212121"></path>
                    <polyline id="Fill-64" fill="#FFD100" points="25.0729638 148.02319 18.6614819 142.550622 16.706448 144.840781 23.1179299 150.313631 25.0729638 148.02319"></polyline>
                    <polyline id="Fill-65" fill="#F0AC2B" points="25.0729638 148.02319 23.0661765 146.309955 21.1111425 148.600396 23.1179299 150.313631 25.0729638 148.02319"></polyline>
                    <polyline id="Fill-66" fill="#FBD776" points="20.668552 144.263575 18.6614819 142.550622 16.706448 144.840781 18.7135181 146.554016 20.668552 144.263575"></polyline>
                    <polyline id="Fill-67" fill="#FBF7BE" points="70.7977941 94.4547511 77.1278281 80.5469457 64.3863122 88.9821833 70.7977941 94.4547511"></polyline>
                    <polyline id="Fill-68" fill="#ECEAB3" points="70.7977941 94.4547511 74.7610294 85.7474548 68.790724 92.7417986 70.7977941 94.4547511"></polyline>
                    <polyline id="Fill-69" fill="#FCF7CC" points="64.3863122 88.9821833 72.3636878 83.7007919 66.3933824 90.6951357 64.3863122 88.9821833"></polyline>
                    <polyline id="Fill-70" fill="#212121" points="74.7610294 85.7471719 77.1278281 80.5469457 72.3636878 83.7010747 74.7610294 85.7471719"></polyline>
                    <polyline id="Fill-71" fill="#FFD100" points="159.933824 102.128959 159.933824 102.127828 159.932975 102.128111 158.06052 88.5353507 178.38914 85.7350113 184.462387 84.8984729 186.334842 98.491233 186.335124 98.4923643 180.261595 99.3289027 159.933824 102.128959"></polyline>
                    <polyline id="Fill-72" fill="#DF5250" points="186.052036 97.3600113 159.65017 100.996889 157.777715 87.404129 184.179581 83.7672511 186.052036 97.3600113"></polyline>
                    <polyline id="Fill-73" fill="#FBF7BE" points="184.179581 83.7672511 185.582296 93.9499434 179.50905 94.7864819 178.106335 84.6037896 184.179581 83.7672511"></polyline>
                    <polyline id="Fill-74" fill="#ECEAB3" points="185.582296 93.9499434 186.052319 97.3611425 179.979072 98.197681 179.50905 94.7864819 185.582296 93.9499434"></polyline>
                    <polyline id="Fill-75" fill="#D14C4C" points="179.50905 94.7864819 179.979072 98.197681 159.651018 100.997738 159.181278 97.5868213 179.50905 94.7864819"></polyline>
                    <path d="M165.779695,50.6094457 C164.658088,50.6091629 163.577771,49.9601244 163.097285,48.8472851 L161.721154,45.6606335 C159.285916,46.6167986 156.636878,47.1476244 153.862557,47.1476244 C149.497738,47.1476244 145.438066,45.8486991 142.046946,43.616233 L135.409785,14.5619344 C139.171946,8.30345023 146.027715,4.11736425 153.862557,4.11736425 C159.118213,4.11736425 163.934672,5.99943439 167.670532,9.1303733 C166.836538,9.49095023 166.252828,10.3209842 166.252828,11.2873303 C166.252828,12.5845588 167.304581,13.6360294 168.601527,13.6360294 L171.727093,13.6360294 C174.033937,17.0630656 175.380656,21.1906109 175.380656,25.6323529 C175.380656,32.3317308 172.318156,38.3147624 167.517251,42.2604638 L169.61595,45.0885181 C170.655826,46.4895362 170.241799,48.4838801 168.730204,49.3554864 L167.23388,50.2183258 C166.772624,50.4841629 166.272342,50.6094457 165.779695,50.6094457" id="Fill-76" fill="#FFD100"></path>
                    <path d="M171.727093,13.6360294 L168.601527,13.6360294 C167.304581,13.6360294 166.252828,12.5845588 166.252828,11.2873303 C166.252828,10.3209842 166.836538,9.49095023 167.670532,9.1303733 C168.076075,9.47030543 168.468609,9.82466063 168.847851,10.1931561 C169.922229,11.2358597 170.888292,12.3894231 171.727093,13.6360294" id="Fill-77" fill="#F1AE2B"></path>
                    <path d="M142.046946,43.616233 C141.925057,43.5361991 141.804016,43.4544683 141.683824,43.3718891 L135.188631,14.9383484 C135.261029,14.8122172 135.334842,14.6863688 135.409785,14.5619344 L142.046946,43.616233" id="Fill-78" fill="#F1AE2B"></path>
                    <path d="M141.683824,43.3718891 C141.251131,43.0743778 140.829468,42.7610294 140.420249,42.4332579 L134.457014,16.3289027 C134.684106,15.8557692 134.928733,15.3914027 135.188631,14.9383484 L141.683824,43.3718891" id="Fill-79" fill="#282B22"></path>
                    <path d="M140.420249,42.4332579 C140.363688,42.388009 140.30741,42.3424774 140.251414,42.2966629 C137.91431,40.3848982 135.986425,37.9909502 134.61991,35.2666855 L132.349548,25.3274887 C132.393948,22.1069005 133.145928,19.0588235 134.457014,16.3289027 L140.420249,42.4332579" id="Fill-80" fill="#32362B"></path>
                    <path d="M134.61991,35.2666855 C133.166007,32.3682127 132.347285,29.095871 132.347285,25.6323529 C132.347285,25.5308258 132.348133,25.428733 132.349548,25.3274887 L134.61991,35.2666855" id="Fill-81" fill="#FAE69F"></path>
                    <path d="M174.53224,23.9355204 C174.53224,35.8190045 164.897624,45.4507919 153.01414,45.4507919 C147.849265,45.4507919 143.111143,43.6317873 139.402998,40.5998303 C134.579468,36.6538462 131.498869,30.6544118 131.498869,23.9355204 C131.498869,12.0520362 141.130656,2.42053167 153.01414,2.42053167 C158.839932,2.42053167 164.126697,4.73303167 167.999434,8.49632353 C172.027715,12.405543 174.53224,17.8781109 174.53224,23.9355204" id="Fill-82" fill="#B5A66D"></path>
                    <path d="M174.53224,23.9355204 C174.53224,35.8190045 164.897624,45.4507919 153.01414,45.4507919 C147.849265,45.4507919 143.111143,43.6317873 139.402998,40.5998303 L167.999434,8.49632353 C172.027715,12.405543 174.53224,17.8781109 174.53224,23.9355204" id="Fill-83" fill="#A99C67"></path>
                    <path d="M168.767534,43.3916855 L164.297794,37.3687783 C163.414876,36.1790158 161.780543,35.8399321 160.497172,36.5800339 C159.213518,37.3201357 158.688348,38.9044118 159.275735,40.2647059 L162.248869,47.1504525 C162.940611,48.7522624 164.873869,49.3930995 166.385464,48.5214932 L167.881787,47.6586538 C169.393382,46.7870475 169.80741,44.7927036 168.767534,43.3916855" id="Fill-84" fill="#F5F0D8"></path>
                    <path d="M169.931844,28.4445701 C172.4556,19.0477941 166.883767,9.38433258 157.486708,6.86057692 C148.089932,4.33682127 138.426471,9.90865385 135.902715,19.3057127 C133.379242,28.7024887 138.951075,38.3659502 148.347851,40.8897059 C157.74491,43.4131787 167.408371,37.8413462 169.931844,28.4445701" id="Fill-85" fill="#F5F0D8"></path>
                    <path d="M167.700509,27.8453054 C169.8931,19.6807127 165.052036,11.2847851 156.887443,9.09191176 C148.723133,6.89932127 140.326923,11.7403846 138.134333,19.9049774 C135.941742,28.0692873 140.782805,36.4654977 148.947115,38.6580882 C157.111708,40.8509615 165.507919,36.0098982 167.700509,27.8453054" id="Fill-86" fill="#DCD7C2"></path>
                    <path d="M166.317873,27.4739819 C168.30543,20.0729638 163.917138,12.4621041 156.51612,10.4745475 C149.115385,8.48699095 141.504525,12.8752828 139.516968,20.2763009 C137.529412,27.6770362 141.917704,35.2878959 149.318439,37.2754525 C156.719457,39.2632919 164.330317,34.8747172 166.317873,27.4739819" id="Fill-87" fill="#7C4C27"></path>
                    <path d="M162.344174,26.4066742 C164.037048,20.103224 160.299491,13.6207579 153.995758,11.9278846 C147.692308,10.2350113 141.209842,13.9725679 139.516968,20.2763009 C137.824095,26.5797511 141.561652,33.0622172 147.865385,34.7550905 C154.168835,36.4479638 160.651301,32.7104072 162.344174,26.4066742" id="Fill-88" fill="#AD6C34"></path>
                    <path d="M159.332579,25.5981335 C160.284219,22.0548643 158.183258,18.4111991 154.640271,17.4598416 C151.097285,16.5082014 147.45362,18.6091629 146.50198,22.1521493 C145.550622,25.6954186 147.651301,29.3388009 151.19457,30.2904412 C154.737557,31.2420814 158.381222,29.1411199 159.332579,25.5981335" id="Fill-89" fill="#BB7536"></path>
                </g>
            </g>
        </g>
    </g>
</svg>