<?xml version="1.0" encoding="UTF-8"?>
<svg width="235px" height="250px" viewBox="0 0 235 250" version="1.1" xmlns="http://www.w3.org/2000/svg" xmlns:xlink="http://www.w3.org/1999/xlink">
    <!-- Generator: Sketch 52.6 (67491) - http://www.bohemiancoding.com/sketch -->
    <title>3</title>
    <desc>Created with Sketch.</desc>
    <defs>
        <linearGradient x1="50%" y1="92.3404418%" x2="50%" y2="-18.7231517%" id="linearGradient-1">
            <stop stop-color="#FFFFFE" offset="0%"></stop>
            <stop stop-color="#FBE47B" stop-opacity="0.306216033" offset="100%"></stop>
        </linearGradient>
        <path d="M1.1168351,2.86009158 L0.581015918,2.86009158 C0.47397102,2.86009158 0.380604082,2.80493013 0.372873061,2.737906 L0.121912245,0.444257278 C0.121317551,0.441291608 0.121317551,0.438919073 0.121317551,0.436546537 C0.120722857,0.373081212 0.199817143,0.322071698 0.30210449,0.322071698 L0.838518367,0.322071698 C0.945563265,0.322071698 1.0389302,0.377233149 1.04606653,0.444257278 L1.29762204,2.737906 C1.29821673,2.74027854 1.29821673,2.74324421 1.29821673,2.74561674 C1.29881143,2.80908207 1.21971714,2.86009158 1.1168351,2.86009158 Z" id="path-2"></path>
    </defs>
    <g id="assets" stroke="none" stroke-width="1" fill="none" fill-rule="evenodd">
        <g id="homepage-and-login/signup" transform="translate(-742.000000, -269.000000)">
            <g id="3" transform="translate(742.000000, 269.000000)">
                <ellipse id="Oval" fill="url(#linearGradient-1)" cx="117.5" cy="132.707775" rx="117.5" ry="117.292225"></ellipse>
                <g id="Group-9" transform="translate(20.814286, 0.000000)">
                    <polygon id="Fill-5" fill="#ECECE8" points="40.0425229 184.996678 72.216651 184.996678 72.216651 184.848395 40.0425229 184.848395"></polygon>
                    <polygon id="Fill-6" fill="#ECECE8" points="0.271775102 192.113692 15.9223339 192.113692 15.9223339 191.965408 0.271775102 191.965408"></polygon>
                    <polygon id="Fill-9" fill="#ECECE8" points="106.5852 188.613016 139.028724 188.613016 139.028724 188.464732 106.5852 188.464732"></polygon>
                    <path d="M139.640069,123.847541 L134.008318,123.847541 C131.561748,123.847541 129.222817,122.844551 127.540428,121.073454 L146.107365,121.073454 C144.424976,122.844551 142.08664,123.847541 139.640069,123.847541" id="Fill-17" fill="#F3F2EF"></path>
                    <polygon id="Fill-112" fill="#F3F2EF" points="88.9810714 180.809153 88.9810714 173.199839 83.4866947 173.199839 86.299002 180.809153"></polygon>
                    <path d="M58.0260657,131.567178 L52.001222,131.567178 C49.384569,131.567178 46.8826918,129.835227 45.0831482,126.776436 L64.9447343,126.776436 C63.1445959,129.835227 60.6427188,131.567178 58.0260657,131.567178" id="Fill-116" fill="#F3F2EF"></path>
                    <polygon id="Fill-117" fill="#F3F2EF" points="21.0462163 180.809153 21.0462163 173.199839 26.5405931 173.199839 23.7282857 180.809153"></polygon>
                    <path d="M52.001222,147.879546 C49.384569,147.879546 46.8826918,146.147002 45.0831482,143.088804 L64.9447343,143.088804 C63.1445959,146.147002 60.6427188,147.879546 58.0260657,147.879546 L52.001222,147.879546 Z" id="Fill-119" fill="#F3F2EF"></path>
                    <path d="M52.001222,164.191321 C49.384569,164.191321 46.8826918,162.458777 45.0831482,159.400579 L64.9447343,159.400579 C63.1445959,162.458777 60.6427188,164.191321 58.0260657,164.191321 L52.001222,164.191321 Z" id="Fill-121" fill="#F3F2EF"></path>
                    <path d="M99.6677204,6.21070488 C99.1229808,2.93601272 101.344162,0.28114546 104.627467,0.28114546 L80.6416792,0.28114546 C77.3583743,0.28114546 75.1377873,2.93601272 75.6819322,6.21070488 L99.6677204,6.21070488" id="Fill-130" fill="#426AA5"></path>
                    <path d="M87.5728363,6.21070488 L75.6819322,6.21070488 C75.6266257,5.87854991 75.5998645,5.55232627 75.5998645,5.23440651 C75.5998645,2.42413818 77.6914029,0.28114546 80.6416792,0.28114546 L104.627467,0.28114546 L80.6416792,0.28114546 C83.9255788,0.28114546 87.0286914,2.93601272 87.5728363,6.21070488" id="Fill-131" fill="#DEC658"></path>
                    <path d="M104.627467,0.28114546 L80.6416792,0.28114546 C83.9255788,0.28114546 87.0286914,2.93601272 87.5728363,6.21070488 L92.8287408,37.8366035 C93.3728857,41.1118888 96.4759984,43.766756 99.7593033,43.766756 L111.854187,43.766756 C115.137492,43.766756 117.358674,41.1118888 116.813934,37.8366035 L111.55803,6.21070488 C111.013885,2.93601272 107.911367,0.28114546 104.627467,0.28114546" id="Fill-132" fill="#FCE165"></path>
                    <path d="M104.719645,37.8366035 C105.26379,41.1118888 103.043203,43.766756 99.7593033,43.766756 L123.745091,43.766756 C127.028396,43.766756 129.248983,41.1118888 128.704838,37.8366035 L104.719645,37.8366035" id="Fill-133" fill="#426AA5"></path>
                    <path d="M123.745091,43.766756 L99.7593033,43.766756 C102.70958,43.766756 104.801713,41.6237633 104.801713,38.8129018 C104.801713,38.4955752 104.774951,38.1693516 104.719645,37.8366035 L128.704838,37.8366035 C128.760145,38.1693516 128.786906,38.4955752 128.786906,38.8129018 C128.787501,41.6237633 126.695368,43.766756 123.745091,43.766756" id="Fill-134" fill="#DEC658"></path>
                    <path d="M108.580992,8.93556194 L91.4561873,8.93556194 C91.2605331,8.93556194 91.0737992,8.77600892 91.041091,8.58086787 C91.0089776,8.38572683 91.142189,8.22617381 91.3378433,8.22617381 L108.462648,8.22617381 C108.658302,8.22617381 108.845036,8.38572683 108.877744,8.58086787 C108.909858,8.77600892 108.776647,8.93556194 108.580992,8.93556194" id="Fill-135" fill="#FFFFFE"></path>
                    <path d="M99.0920567,11.4053714 L91.8665261,11.4053714 C91.6708718,11.4053714 91.484138,11.2458184 91.4514298,11.0506774 C91.4193163,10.8555363 91.5531224,10.6959833 91.748182,10.6959833 L98.9743073,10.6959833 C99.1699616,10.6959833 99.3566955,10.8555363 99.388809,11.0506774 C99.4215171,11.2458184 99.287711,11.4053714 99.0920567,11.4053714" id="Fill-136" fill="#FFFFFE"></path>
                    <path d="M105.775821,11.4053714 L100.784556,11.4053714 C100.588901,11.4053714 100.402167,11.2458184 100.369459,11.0506774 C100.337346,10.8555363 100.471152,10.6959833 100.666806,10.6959833 L105.657477,10.6959833 C105.853131,10.6959833 106.039865,10.8555363 106.072573,11.0506774 C106.104687,11.2458184 105.971476,11.4053714 105.775821,11.4053714" id="Fill-137" fill="#FFFFFE"></path>
                    <path d="M109.40167,13.8751809 L92.2768649,13.8751809 C92.0812106,13.8751809 91.8944767,13.7156279 91.8623633,13.5204868 C91.8296551,13.3253458 91.9634612,13.1657928 92.1591155,13.1657928 L109.283326,13.1657928 C109.47898,13.1657928 109.665714,13.3253458 109.698422,13.5204868 C109.73113,13.7156279 109.597324,13.8751809 109.40167,13.8751809" id="Fill-138" fill="#FFFFFE"></path>
                    <path d="M108.121294,16.3449904 L92.6872037,16.3449904 C92.4915494,16.3449904 92.3048155,16.1854374 92.272702,15.9902963 C92.2399939,15.7951553 92.3738,15.6350091 92.5694543,15.6350091 L108.003544,15.6350091 C108.199199,15.6350091 108.385338,15.7951553 108.418046,15.9902963 C108.450754,16.1854374 108.316948,16.3449904 108.121294,16.3449904" id="Fill-139" fill="#FFFFFE"></path>
                    <path d="M103.482682,18.8147999 L93.0975424,18.8147999 C92.9018882,18.8147999 92.7151543,18.6552469 92.6830408,18.4601058 C92.6503327,18.2643716 92.7841388,18.1048186 92.9797931,18.1048186 L103.364932,18.1048186 C103.560587,18.1048186 103.74732,18.2643716 103.779434,18.4601058 C103.812142,18.6552469 103.678336,18.8147999 103.482682,18.8147999" id="Fill-140" fill="#FFFFFE"></path>
                    <path d="M110.632686,21.2846094 L93.5078812,21.2846094 C93.3128216,21.2846094 93.1260878,21.1244632 93.0933796,20.9293222 C93.0612661,20.7341811 93.1944776,20.5746281 93.3901318,20.5746281 L110.514937,20.5746281 C110.710591,20.5746281 110.897325,20.7341811 110.929438,20.9293222 C110.962147,21.1244632 110.82834,21.2846094 110.632686,21.2846094" id="Fill-141" fill="#FFFFFE"></path>
                    <path d="M111.04362,23.7544188 L93.9188147,23.7544188 C93.7231604,23.7544188 93.5364265,23.5942727 93.5037184,23.3991317 C93.4716049,23.2039906 93.6048163,23.0444376 93.8004706,23.0444376 L110.925276,23.0444376 C111.12093,23.0444376 111.307664,23.2039906 111.340372,23.3991317 C111.372485,23.5942727 111.239274,23.7544188 111.04362,23.7544188" id="Fill-142" fill="#FFFFFE"></path>
                    <path d="M104.714293,26.2236352 L94.3291535,26.2236352 C94.1334992,26.2236352 93.9467653,26.0640822 93.9140571,25.8689411 C93.8819437,25.6738001 94.0151551,25.5142471 94.2108094,25.5142471 L104.595949,25.5142471 C104.791603,25.5142471 104.978337,25.6738001 105.011045,25.8689411 C105.043158,26.0640822 104.909947,26.2236352 104.714293,26.2236352" id="Fill-143" fill="#FFFFFE"></path>
                    <polyline id="Fill-144" fill="#1A282B" points="114.548151 33.0138319 115.618005 33.6757693 132.054154 7.24690977 130.983705 6.58497236 114.548151 33.0138319"></polyline>
                    <polyline id="Fill-145" fill="#111819" points="115.618005 33.6757693 114.548151 33.0138319 130.983705 6.58497236 132.054154 7.24690977 115.618005 33.6757693"></polyline>
                    <polyline id="Fill-146" fill="#1A282B" points="112.407847 31.6899571 113.477702 32.3518945 129.913851 5.92303495 128.843997 5.26109753 112.407847 31.6899571"></polyline>
                    <polyline id="Fill-147" fill="#111819" points="113.477702 32.3518945 112.407847 31.6899571 128.843997 5.26109753 129.913851 5.92303495 113.477702 32.3518945"></polyline>
                    <polyline id="Fill-148" fill="#1A282B" points="113.477702 32.3518945 114.548151 33.0138319 130.983705 6.58497236 129.913851 5.92303495 113.477702 32.3518945"></polyline>
                    <polyline id="Fill-149" fill="#E78076" points="112.379302 34.2380602 113.342111 34.8335666 115.618005 33.6757693 112.407847 31.6899571 112.379302 34.2380602"></polyline>
                    <polyline id="Fill-150" fill="#1A282B" points="112.366813 35.3294266 113.342111 34.8335666 112.379302 34.2380602 112.366813 35.3294266"></polyline>
                    <path d="M111.775688,35.553038 L111.730491,35.5459204 C110.906245,35.2837552 110.281222,34.6514745 109.677608,34.0393604 C109.320197,33.6775487 108.950892,33.3026881 108.553042,33.0239152 C108.375228,32.9005433 108.208119,32.9325725 108.11951,33.0203564 C108.043389,33.0956844 108.00295,33.2368502 108.120699,33.4070796 C108.265804,33.6164559 108.422209,33.8222734 108.586344,34.0180075 C108.719556,34.1769674 108.739181,34.3869368 108.635704,34.5417448 C108.53639,34.688842 108.35263,34.746376 108.168869,34.688842 C107.944075,34.618259 107.719876,34.5328478 107.502812,34.4343875 C107.4481,34.410069 107.39993,34.4130347 107.369006,34.4432845 C107.337487,34.4747206 107.333324,34.5263233 107.357707,34.5814847 L107.388631,34.6532539 C107.458805,34.8240765 107.442153,35.0008304 107.34284,35.1396237 C107.246499,35.2754514 107.082364,35.3501862 106.90455,35.3406961 C104.314064,35.1930058 101.890091,35.2446084 99.0462653,35.3679803 C98.9600347,35.3697597 98.8946184,35.3074806 98.8916449,35.2262213 C98.8880767,35.1443688 98.951709,35.0749721 99.0337767,35.0714133 C101.886523,34.9480415 104.319416,34.8964388 106.921202,35.0441292 C106.995538,35.0482811 107.062739,35.0209969 107.101394,34.9676149 C107.139454,34.9136397 107.144212,34.8406842 107.113882,34.7665425 L107.085932,34.7018909 C107.011595,34.5346272 107.040735,34.3501625 107.159674,34.232722 C107.279802,34.1146884 107.457616,34.0879973 107.625319,34.1645116 C107.832273,34.2582268 108.045173,34.3394861 108.257479,34.4059171 C108.316353,34.4243043 108.363929,34.4136278 108.388311,34.3768535 C108.41091,34.3424518 108.416857,34.2783933 108.357982,34.2078104 C108.188494,34.0055517 108.026143,33.7926167 107.875685,33.5755297 C107.668732,33.2754039 107.743663,32.974685 107.910178,32.8097938 C108.11832,32.6033832 108.453133,32.5921137 108.723719,32.7813234 C109.143573,33.0755178 109.522987,33.4598686 109.889319,33.8311704 C110.468551,34.4177798 111.066218,35.0233695 111.82029,35.2629956 C111.898789,35.2879072 111.942202,35.3715391 111.917225,35.4492396 C111.897005,35.5127049 111.838725,35.553038 111.775688,35.553038" id="Fill-151" fill="#FFFFFE"></path>
                    <path d="M153.892503,37.130181 C151.993645,35.4960972 149.796846,34.8478018 147.747531,34.9314337 C146.298857,32.0292296 143.318846,30.3293079 140.167563,30.9046478 C135.649079,31.729697 134.272362,37.1444162 137.407589,39.1213315 C138.485174,39.801656 139.588331,40.2862464 140.750958,40.6373817 L140.734306,40.7791407 C136.981193,42.2281667 134.303881,45.4892168 134.02378,49.5539633 C133.559919,56.2712045 140.792586,60.194192 144.755031,56.4586348 C145.312854,55.9337114 145.821318,55.3886213 146.295883,54.8263304 C147.055307,55.8939714 147.877769,56.9853377 148.762079,58.1235617 C158.596531,53.6068471 160.258701,42.6065862 153.892503,37.130181" id="Fill-153" fill="#212121"></path>
                    <path d="M134.1225,63.2351894 C134.06422,64.0655769 133.989883,64.7850483 133.886406,65.5454459 C133.788282,66.2951671 133.6741,67.0401433 133.552188,67.7839332 C133.301227,69.2697336 132.966415,70.7395193 132.603651,72.2039669 C131.873367,75.1310826 130.889744,78.0172721 129.581417,80.7961043 L129.460694,81.0570832 C129.413119,81.1573228 129.40182,81.1952834 129.310237,81.370851 C129.162753,81.6638592 128.98375,81.9455978 128.782149,82.1988659 C128.380136,82.7107405 127.899623,83.1170372 127.4203,83.4147904 C126.449759,84.0097037 125.508953,84.2641581 124.633564,84.4296425 C122.879812,84.7374789 121.287816,84.6461363 119.739828,84.4978529 C116.651583,84.121806 113.776833,83.4058934 110.922897,82.3773992 L111.574681,80.0054568 C112.950208,80.2124606 114.38461,80.4040428 115.783924,80.5309735 C117.186213,80.6739187 118.587311,80.7581437 119.947971,80.7391634 C121.29971,80.7427222 122.644908,80.6270611 123.743902,80.3376118 C124.283884,80.192294 124.74834,79.9799521 124.996922,79.7753209 C125.125971,79.6762675 125.193171,79.58967 125.228258,79.5214596 L125.268102,79.4235925 L125.431049,79.0000949 C125.682009,78.3630691 125.924644,77.7224845 126.13695,77.0658853 C126.372449,76.4211488 126.563346,75.7538732 126.772083,75.0966808 C127.14674,73.7633159 127.51664,72.4263921 127.815771,71.0645567 C128.122633,69.7062801 128.37181,68.3319889 128.603146,66.9565114 C128.83686,65.5976417 129.018242,64.1604783 129.1574,62.8763434 L134.1225,63.2351894" id="Fill-154" fill="#F0AA72"></path>
                    <path d="M130.735123,57.2931742 C128.728626,57.8026762 127.325149,66.0389333 127.325149,66.0389333 L132.854612,69.789912 C132.854612,69.789912 138.156903,61.4806994 136.613078,59.2801727 C135.00562,56.9883034 133.663991,56.5493843 130.735123,57.2931742" id="Fill-155" fill="#212121"></path>
                    <path d="M130.559689,68.2353081 L129.375058,67.4339842 L129.375653,67.4298323 L130.559689,68.2329355 C130.559689,68.2341218 130.559689,68.2347149 130.559689,68.2353081" id="Fill-156" fill="#D28A55"></path>
                    <path d="M130.559689,68.2329355 L129.375653,67.4298323 L130.192762,63.0299651 C130.245096,64.4078151 130.358087,66.1154476 130.559689,68.2329355" id="Fill-157" fill="#141D1F"></path>
                    <path d="M109.50812,80.0849368 L105.753223,81.5428599 L109.991606,84.0951149 C109.991606,84.0951149 112.698058,82.5339866 112.632047,80.5161451 L112.213977,80.2800778 C111.387353,79.8126883 110.393619,79.7409191 109.50812,80.0849368" id="Fill-158" fill="#F0AA72"></path>
                    <path d="M106.373489,81.3020475 C106.514431,81.2368028 106.873031,81.0778429 107.369601,80.9064272 C107.433233,80.8844812 107.499244,80.8619422 107.566444,80.8388099 L106.373489,81.3020475" id="Fill-159" fill="#E5E5E0"></path>
                    <path d="M107.594395,81.618781 C106.994349,81.618781 106.307478,81.3334836 106.307478,81.3334836 C106.307478,81.3334836 106.330076,81.3222141 106.373489,81.3020475 L107.566444,80.8388099 C108.30327,80.5849486 109.229803,80.2682151 109.229803,80.2682151 L110.924086,81.3328905 C110.924086,81.3328905 109.701396,81.5553157 108.781999,81.5553157 C108.538174,81.5553157 108.315164,81.5393011 108.142703,81.5001542 C107.989272,81.5867518 107.797186,81.618781 107.594395,81.618781" id="Fill-160" fill="#EE9E63"></path>
                    <polyline id="Fill-161" fill="#F0AA72" points="103.419049 84.3044912 106.608987 86.9540203 109.991606 84.0951149 105.753223 81.5428599 103.419049 84.3044912"></polyline>
                    <polyline id="Fill-162" fill="#F0AA72" points="141.592449 195.922205 136.723691 195.922205 136.398393 184.676386 141.267152 184.676386 141.592449 195.922205"></polyline>
                    <path d="M136.556582,195.359914 L142.026576,195.359914 C142.225798,195.359914 142.387555,195.497521 142.415506,195.691475 L143.038745,200.007711 C143.102972,200.455527 142.717016,200.879618 142.257912,200.871314 C140.350729,200.838691 139.431927,200.727182 137.02639,200.727182 C135.546197,200.727182 131.29592,200.880211 129.251957,200.880211 C127.253191,200.880211 127.09976,198.864742 127.950767,198.68265 C131.766322,197.864125 134.457312,196.735391 135.74304,195.65826 C135.974376,195.464305 136.265776,195.359914 136.556582,195.359914" id="Fill-163" fill="#212121"></path>
                    <polyline id="Fill-164" fill="#C9C8C3" points="141.437234 190.476049 141.434856 190.476049 141.402742 189.353247 141.405121 189.353247 141.437234 190.476049"></polyline>
                    <polyline id="Fill-165" fill="#D28A55" points="141.434856 190.476049 136.566097 190.476049 136.533983 189.353247 141.402742 189.353247 141.434856 190.476049"></polyline>
                    <path d="M130.735123,57.2931742 C130.735123,57.2931742 128.415817,58.107547 133.06216,86.6022919 C140.909146,86.6022919 149.018392,86.6022919 152.836921,86.6022919 C152.505082,78.575411 152.495567,73.6257088 156.342047,57.1520084 C156.342047,57.1520084 152.198815,56.2534105 147.944969,56.0487793 C144.617657,55.8886332 141.890986,55.7830554 138.965687,56.0493725 C135.109097,56.3999146 130.735123,57.2931742 130.735123,57.2931742" id="Fill-166" fill="#212121"></path>
                    <path d="M144.354802,65.1088994 C141.876713,65.1088994 139.861296,63.7257112 139.770307,63.6622458 C139.703107,63.6153883 139.686456,63.5228594 139.733436,63.4558353 C139.779822,63.3888111 139.873189,63.3722034 139.94039,63.419061 C139.962988,63.4350756 142.253749,65.0056941 144.861482,64.7915728 C145.512671,64.3840898 149.995474,61.3982538 150.333855,56.2356165 C150.339207,56.153764 150.415922,56.0920781 150.491449,56.0974163 C150.573516,56.1027545 150.635364,56.1733374 150.630607,56.2551899 C150.2839,61.5417922 145.869488,64.5193243 144.988151,65.0626349 L144.922735,65.0839878 C144.731838,65.1005955 144.542131,65.1088994 144.354802,65.1088994" id="Fill-167" fill="#FFFFFE"></path>
                    <path d="M135.940479,64.1948801 L135.862574,64.1729341 C135.49089,63.9439844 135.24766,63.4676979 135.137047,62.7577167 C134.856352,60.9468789 135.528951,57.7872547 136.942538,56.1484258 C136.99606,56.0867399 137.090617,56.0796223 137.152465,56.1330043 C137.214908,56.1863864 137.222044,56.2801015 137.167927,56.3417875 C135.846517,57.8744454 135.160835,60.9688249 135.430826,62.7120454 C135.522409,63.2992479 135.713306,63.7079172 135.983891,63.89772 C136.769482,63.871029 138.366235,63.1545232 138.382887,63.1468125 C138.456629,63.113597 138.545833,63.1462194 138.579136,63.2209542 C138.613033,63.2956891 138.580325,63.3834729 138.505393,63.4172815 C138.43522,63.4487176 136.77305,64.1948801 135.940479,64.1948801" id="Fill-168" fill="#FFFFFE"></path>
                    <path d="M147.055307,45.9649102 C146.489159,48.8463546 145.923605,54.1258393 147.944969,56.0487793 C147.944969,56.0487793 147.155216,58.9717431 141.786914,58.9717431 C135.883983,58.9717431 138.965687,56.0493725 138.965687,56.0493725 C142.187738,55.2818572 142.104481,52.897459 141.54309,50.6589717 L147.055307,45.9649102" id="Fill-169" fill="#F0AA72"></path>
                    <path d="M147.942591,56.051745 C144.614684,55.8886332 141.890391,55.7818691 138.964497,56.051745 C138.770032,56.0701322 138.574973,56.0891124 138.379913,56.1080927 C137.662118,57.4634036 137.480141,59.5464898 139.197617,62.6023156 C139.197617,62.6023156 147.074338,59.4397257 149.125437,56.1264799 C148.735318,56.0956369 148.339251,56.0701322 147.942591,56.051745" id="Fill-170" fill="#F0AA72"></path>
                    <path d="M141.823644,52.246198 C141.82066,52.2088306 141.817675,52.17087 141.81469,52.1335026 C141.818272,52.17087 141.821257,52.2082374 141.824838,52.2456049 C141.824241,52.2456049 141.823644,52.2456049 141.823644,52.246198 M141.545469,50.6565992 C141.545469,50.6565992 141.545469,50.6565992 141.545469,50.6560061 L142.378802,49.9495836 L141.545469,50.6565992" id="Fill-171" fill="#141D1F"></path>
                    <path d="M141.823785,52.2456049 C141.820217,52.2082374 141.817244,52.17087 141.813676,52.1335026 C141.770263,51.6465397 141.670949,51.1483072 141.545469,50.6565992 L142.375661,49.9495836 L144.808554,47.8801395 C144.912625,48.1784858 144.939981,48.794752 144.874565,49.4353365 C144.744327,50.7206577 143.054207,52.0676647 141.823785,52.2456049" id="Fill-172" fill="#D28A55"></path>
                    <path d="M150.171503,40.971316 C149.07013,45.6641913 148.704393,47.6737289 145.887329,49.6998743 C141.650135,52.7479893 136.111751,50.3724881 135.785264,45.4459181 C135.491485,41.0116491 137.342172,34.0826591 142.318571,32.9853615 C147.221227,31.9046715 151.272876,36.2784408 150.171503,40.971316" id="Fill-173" fill="#F0AA72"></path>
                    <path d="M133.06216,86.6022919 C133.06216,86.6022919 129.221627,124.01006 129.540978,138.819426 C129.872817,154.22252 135.531924,189.353247 135.531924,189.353247 L142.11578,189.353247 C142.11578,189.353247 141.073876,155.122897 141.656082,139.995018 C142.29062,123.50293 147.542956,86.6022919 147.542956,86.6022919 L133.06216,86.6022919" id="Fill-174" fill="#426AA5"></path>
                    <path d="M142.11578,189.353247 L135.531924,189.353247 C135.531924,189.353247 129.872817,154.22252 129.540978,138.819426 C129.528489,138.226292 129.521948,137.596977 129.521948,136.935633 C129.523137,122.578234 132.422864,92.9713635 132.972956,87.4866545 L134.256306,87.4866545 L134.264037,87.5560512 C134.271768,87.6230753 134.365135,87.6782367 134.471585,87.6782367 L135.007999,87.6782367 C135.110881,87.6782367 135.189975,87.6272272 135.18938,87.5637619 C135.18938,87.5613894 135.18938,87.5584237 135.188786,87.5560512 L135.181055,87.4866545 L138.629684,87.4866545 C138.839611,89.3923937 139.373052,94.209827 140.066465,100.288856 C137.751916,110.2885 140.850866,124.332131 142.334033,130.045197 C142.491627,128.271726 142.668251,126.427673 142.858553,124.544473 C142.269806,130.379131 141.816054,135.836556 141.656082,139.995018 C141.528817,143.296994 141.479458,147.508838 141.479458,152.075969 C141.478863,168.434601 142.11578,189.353247 142.11578,189.353247" id="Fill-175" fill="#FCE165"></path>
                    <polyline id="Fill-176" fill="#1A282B" points="142.686686 189.588721 134.961613 189.588721 134.394869 187.131367 143.045881 186.830648 142.686686 189.588721"></polyline>
                    <path d="M142.858553,124.544473 C142.871636,124.414577 142.884719,124.284681 142.897802,124.154191 L142.898397,124.154191 C142.884719,124.284681 142.871636,124.414577 142.858553,124.544473" id="Fill-177" fill="#B3B3B0"></path>
                    <path d="M142.334033,130.045197 C140.850866,124.332131 137.751916,110.2885 140.066465,100.288856 C140.878222,107.399938 141.909421,116.236447 142.897802,124.154191 C142.884719,124.284681 142.871636,124.414577 142.858553,124.544473 C142.668251,126.427673 142.491627,128.271726 142.334033,130.045197" id="Fill-178" fill="#F1D13C"></path>
                    <polyline id="Fill-179" fill="#F0AA72" points="164.3496 195.922205 159.480841 195.922205 157.692597 184.676386 162.561356 184.676386 164.3496 195.922205"></polyline>
                    <path d="M159.240585,195.359914 L164.710579,195.359914 C164.909802,195.359914 165.089399,195.497521 165.142327,195.691475 L166.327552,200.007711 C166.450059,200.455527 166.119409,200.879618 165.659116,200.871314 C163.74777,200.838691 162.8141,200.727182 160.408564,200.727182 C158.928965,200.727182 154.697718,200.880211 152.65435,200.880211 C150.655584,200.880211 150.239298,198.864742 151.066518,198.68265 C154.776218,197.864125 157.320318,196.735391 158.465699,195.65826 C158.672058,195.464305 158.949185,195.359914 159.240585,195.359914" id="Fill-180" fill="#212121"></path>
                    <path d="M163.48551,190.476049 L163.483726,190.476049 L163.305318,189.353247 L163.307102,189.353247 L163.48551,190.476049 M158.614372,190.476049 L158.490081,189.691926 L158.614967,190.476049" id="Fill-181" fill="#C9C8C3"></path>
                    <polyline id="Fill-182" fill="#D28A55" points="163.483726 190.476049 158.614372 190.476049 158.490081 189.691926 158.435964 189.353247 163.305318 189.353247 163.483726 190.476049"></polyline>
                    <path d="M138.532155,86.6022919 C138.532155,86.6022919 142.621864,124.01006 144.868023,138.819426 C147.203981,154.22252 157.4345,189.353247 157.4345,189.353247 L164.018356,189.353247 C164.018356,189.353247 158.522195,155.122897 157.135963,139.995018 C155.624251,123.50293 153.012951,86.6022919 153.012951,86.6022919 L138.532155,86.6022919" id="Fill-183" fill="#426AA5"></path>
                    <path d="M164.018356,189.353247 L157.4345,189.353247 C157.4345,189.353247 147.203981,154.22252 144.868023,138.819426 C144.297712,135.060144 143.608462,129.844124 142.897802,124.154191 C141.909421,116.236447 140.878222,107.399938 140.066465,100.288856 C139.373052,94.209827 138.839611,89.3923937 138.629684,87.4866545 L142.24245,87.4866545 L142.250181,87.5560512 C142.257317,87.6230753 142.350684,87.6782367 142.457729,87.6782367 L142.994143,87.6782367 C143.09643,87.6782367 143.175524,87.6272272 143.175524,87.5637619 C143.175524,87.5613894 143.17493,87.5584237 143.17493,87.5560512 L143.167199,87.4866545 L150.228594,87.4866545 L150.23573,87.5560512 C150.243461,87.6230753 150.336828,87.6782367 150.443873,87.6782367 L150.979692,87.6782367 C151.082574,87.6782367 151.161669,87.6272272 151.161074,87.5637619 C151.161074,87.5613894 151.161074,87.5584237 151.160479,87.5560512 L151.152748,87.4866545 L153.075988,87.4866545 C153.482164,93.1920093 155.762815,125.013642 157.135963,139.995018 C158.522195,155.122897 164.018356,189.353247 164.018356,189.353247" id="Fill-184" fill="#FCE165"></path>
                    <polyline id="Fill-185" fill="#1A282B" points="164.619591 189.588721 156.894518 189.588721 156.007829 187.131367 164.619591 186.830648 164.619591 189.588721"></polyline>
                    <path d="M156.524618,195.203919 C156.435414,195.203919 156.364051,195.216968 156.315286,195.245439 C156.270684,195.271537 156.252248,195.309497 156.255222,195.369997 C156.260574,195.525398 156.320043,195.645804 156.435414,195.738333 C156.764874,196.003464 157.571874,196.049728 158.62805,195.871195 C157.91858,195.550903 156.9861,195.203919 156.524618,195.203919 Z M157.523109,196.208688 C157.039028,196.208688 156.582898,196.133953 156.303392,195.909749 C156.126173,195.766803 156.031617,195.57878 156.022102,195.349237 C156.016749,195.212223 156.070867,195.106645 156.178506,195.043773 C156.731571,194.71755 158.802296,195.706304 159.035416,195.820186 L159.112131,195.938219 L159.033037,196.0349 C158.629834,196.116752 158.059523,196.208688 157.523109,196.208688 Z" id="Fill-186" fill="#212121"></path>
                    <path d="M157.594472,194.068661 L157.525488,194.07222 C157.31794,194.093573 157.314966,194.177205 157.314371,194.205082 C157.303072,194.535458 158.189761,195.358727 158.827867,195.716387 C158.721417,195.335595 158.457373,194.552065 158.012542,194.218131 C157.878141,194.117891 157.741362,194.068661 157.594472,194.068661 Z M159.011033,196.037273 L158.962268,196.026596 C158.347949,195.765617 157.063411,194.718143 157.081846,194.167715 C157.086009,194.037818 157.157372,193.8753 157.47256,193.84327 C157.70568,193.819545 157.929285,193.885976 158.137428,194.04197 C158.815379,194.550286 159.097858,195.857553 159.109752,195.912714 L159.074665,196.01592 L159.011033,196.037273 Z" id="Fill-187" fill="#212121"></path>
                    <path d="M152.467022,33.6644998 C151.883032,33.2546442 151.247899,33.0013761 150.603846,32.8697003 C150.062674,28.2438492 146.345243,25.3019051 142.203795,26.2313459 C137.503334,27.2871242 135.867331,33.102802 139.028129,35.083276 C140.910336,36.2636124 142.890666,36.8247171 145.154666,37.0696814 C145.234355,40.9048851 147.63216,44.1938124 149.316928,44.3628556 C154.123839,42.4547439 155.363776,35.6971696 152.467022,33.6644998" id="Fill-193" fill="#212121"></path>
                    <path d="M150.717432,45.5384469 C150.221458,46.4067949 149.369856,46.9649339 148.572371,47.168972 C147.372874,47.4762153 146.799589,46.3996773 147.154621,45.2845856 C147.474567,44.28041 148.483762,42.9108638 149.677313,43.0982941 C150.853022,43.2833519 151.28477,44.546134 150.717432,45.5384469" id="Fill-194" fill="#F0AA72"></path>
                    <path d="M158.61794,62.8075399 C159.187657,65.5982348 159.602753,68.3485966 159.937566,71.1517474 C160.280704,73.9471874 160.504309,76.7657596 160.545938,79.6389001 C160.55248,79.7818454 160.548317,80.0760398 160.537612,80.3393912 C160.519771,80.5825761 160.495389,80.8162708 160.46387,81.0351373 C160.397264,81.4663456 160.317576,81.866711 160.219451,82.2463166 C160.026176,83.0073074 159.801381,83.7161024 159.561125,84.4071034 C159.08418,85.7891053 158.523384,87.0981518 157.953073,88.3935562 C156.769632,90.9695366 155.514233,93.4595127 154.080426,95.8943273 L151.844972,94.8575292 L153.168166,90.9558946 C153.616565,89.659897 154.044744,88.3603407 154.442,87.0607844 C154.855312,85.7689388 155.22878,84.4705687 155.557051,83.2036347 C155.718808,82.5707609 155.856182,81.942039 155.952522,81.3494982 C155.999503,81.0529313 156.037564,80.7711927 156.057783,80.515552 C156.066704,80.391587 156.067298,80.2794847 156.069082,80.1774657 L156.043511,79.8405656 C155.936466,78.5137251 155.777682,77.1750219 155.618899,75.8345394 L155.062266,71.8041946 C154.648953,69.1226364 154.191634,66.4048969 153.731341,63.7571473 L158.61794,62.8075399" id="Fill-197" fill="#F0AA72"></path>
                    <path d="M156.342047,57.1520084 C158.323567,57.752853 160.702937,64.5566917 160.702937,64.5566917 L153.016519,70.0378419 C153.016519,70.0378419 150.213727,64.3579919 151.046298,61.8039574 C151.912767,59.1443451 154.081616,56.4663456 156.342047,57.1520084" id="Fill-198" fill="#212121"></path>
                    <path d="M133.860834,195.203919 C133.77163,195.203919 133.698483,195.216968 133.645555,195.245439 C133.59798,195.271537 133.574787,195.309497 133.570029,195.369997 C133.555756,195.525398 133.598574,195.645804 133.702051,195.738333 C133.997019,196.003464 134.798072,196.049728 135.878036,195.871195 C135.2096,195.550903 134.322317,195.203919 133.860834,195.203919 Z M134.728493,196.208688 C134.244412,196.208688 133.798391,196.133953 133.548025,195.909749 C133.389242,195.766803 133.319068,195.57878 133.339882,195.349237 C133.352371,195.212223 133.420166,195.106645 133.535537,195.043773 C134.13142,194.71755 136.073096,195.706304 136.291943,195.820186 L136.353196,195.938219 L136.261019,196.0349 C135.847707,196.116752 135.265501,196.208688 134.728493,196.208688 Z" id="Fill-199" fill="#212121"></path>
                    <path d="M135.078767,194.068661 L135.009188,194.07222 C134.798667,194.093573 134.784989,194.177205 134.780231,194.205082 C134.726114,194.535458 135.505758,195.358727 136.097478,195.716387 C136.040387,195.335595 135.878036,194.552065 135.476618,194.218131 C135.3553,194.117891 135.225062,194.068661 135.078767,194.068661 Z M136.239015,196.037273 L136.19144,196.026596 C135.611018,195.765617 134.462664,194.718143 134.552463,194.167715 C134.574467,194.037818 134.666644,193.8753 134.985995,193.84327 C135.221494,193.819545 135.437368,193.885976 135.624696,194.04197 C136.236636,194.550286 136.349033,195.857553 136.353791,195.912714 L136.305621,196.01592 L136.239015,196.037273 Z" id="Fill-200" fill="#212121"></path>
                    <path d="M153.133079,85.4450877 L153.638569,87.2102541 C153.707553,87.347268 153.545202,87.4866545 153.316839,87.4866545 L132.964631,87.4866545 C132.786222,87.4866545 132.638738,87.4000569 132.627439,87.2879546 L132.449031,85.5227882 C132.436542,85.4000095 132.591163,85.2968042 132.786222,85.2968042 L152.810755,85.2968042 C152.958239,85.2968042 153.088477,85.3567107 153.133079,85.4450877" id="Fill-202" fill="#212121"></path>
                    <path d="M150.443873,87.6782367 L150.979692,87.6782367 C151.086737,87.6782367 151.16821,87.6230753 151.160479,87.5560512 L150.908924,85.2624024 C150.901787,85.1953783 150.80842,85.1402168 150.701376,85.1402168 L150.164962,85.1402168 C150.058511,85.1402168 149.977038,85.1953783 149.984769,85.2624024 L150.23573,87.5560512 C150.243461,87.6230753 150.336828,87.6782367 150.443873,87.6782367" id="Fill-203" fill="#426AA5"></path>
                    <g id="Group-206" transform="translate(149.862857, 84.818145)">
                        <mask id="mask-3" fill="white">
                            <use xlink:href="#path-2"></use>
                        </mask>
                        <g id="Clip-205"></g>
                        <polygon id="Fill-204" fill="#989595" mask="url(#mask-3)" points="0.120722857 2.86009158 1.29881143 2.86009158 1.29881143 0.322071698 0.120722857 0.322071698"></polygon>
                    </g>
                    <path d="M134.471585,87.6782367 L135.007999,87.6782367 C135.115044,87.6782367 135.195922,87.6230753 135.188786,87.5560512 L134.93723,85.2624024 C134.930094,85.1953783 134.836727,85.1402168 134.729682,85.1402168 L134.193268,85.1402168 C134.086818,85.1402168 134.005345,85.1953783 134.012481,85.2624024 L134.264037,87.5560512 C134.271768,87.6230753 134.365135,87.6782367 134.471585,87.6782367" id="Fill-207" fill="#426AA5"></path>
                    <path d="M135.007999,87.6782367 L134.471585,87.6782367 C134.365135,87.6782367 134.271768,87.6230753 134.264037,87.5560512 L134.012481,85.2624024 C134.012481,85.2594368 134.011887,85.2570642 134.011887,85.2546917 C134.011887,85.1912264 134.090981,85.1402168 134.193268,85.1402168 L134.729682,85.1402168 C134.836727,85.1402168 134.930094,85.1953783 134.93723,85.2624024 L135.188786,87.5560512 C135.18938,87.5584237 135.18938,87.5613894 135.18938,87.5637619 C135.189975,87.6272272 135.110881,87.6782367 135.007999,87.6782367" id="Fill-208" fill="#989595"></path>
                    <path d="M142.457729,87.6782367 L142.994143,87.6782367 C143.100593,87.6782367 143.182066,87.6230753 143.17493,87.5560512 L142.923374,85.2624024 C142.915643,85.1953783 142.822276,85.1402168 142.715826,85.1402168 L142.179412,85.1402168 C142.072367,85.1402168 141.991489,85.1953783 141.998625,85.2624024 L142.250181,87.5560512 C142.257317,87.6230753 142.350684,87.6782367 142.457729,87.6782367" id="Fill-209" fill="#426AA5"></path>
                    <path d="M142.994143,87.6782367 L142.457729,87.6782367 C142.350684,87.6782367 142.257317,87.6230753 142.250181,87.5560512 L141.998625,85.2624024 C141.998031,85.2594368 141.998031,85.2570642 141.998031,85.2546917 C141.997436,85.1912264 142.07653,85.1402168 142.179412,85.1402168 L142.715826,85.1402168 C142.822276,85.1402168 142.915643,85.1953783 142.923374,85.2624024 L143.17493,87.5560512 C143.17493,87.5584237 143.175524,87.5613894 143.175524,87.5637619 C143.175524,87.6272272 143.09643,87.6782367 142.994143,87.6782367" id="Fill-210" fill="#989595"></path>
                    <path d="M151.923471,94.3901397 L148.148949,98.0444376 L153.075393,98.5367387 C153.075393,98.5367387 154.848771,95.9690621 153.921643,94.1748321 L151.923471,94.3901397" id="Fill-211" fill="#F0AA72"></path>
                    <polyline id="Fill-212" fill="#F0AA72" points="147.592911 102.089018 151.739711 102.27882 153.075393 98.5367387 148.148949 98.0444376 147.592911 102.089018"></polyline>
                    <path d="M52.1403804,195.810102 C52.2135278,195.810102 52.2795388,195.81722 52.3372241,195.833828 C52.4288069,195.859332 52.4882763,195.906783 52.5186057,195.977959 C52.5727229,196.106076 52.5370412,196.169541 52.5049278,196.206316 C52.2599139,196.487461 51.1549727,196.493986 50.3592722,196.379511 C50.7951829,196.172507 51.6295384,195.810102 52.1403804,195.810102 Z M52.6553853,196.326722 C52.7315061,196.238938 52.8040588,196.088875 52.7130706,195.875347 C52.6625216,195.756127 52.5638024,195.674868 52.4204812,195.634535 C51.7235,195.437021 50.0678722,196.304776 49.9976984,196.34155 L49.9316873,196.448314 L50.0012665,196.532539 C50.2718522,196.587701 50.8005351,196.655318 51.323271,196.655318 C51.8840673,196.655318 52.436538,196.578211 52.6553853,196.326722 Z" id="Fill-213" fill="#212121"></path>
                    <path d="M51.3470588,194.767966 L51.4089069,194.771525 C51.5920727,194.790505 51.593262,194.863461 51.5938567,194.887779 C51.5980196,195.18316 50.7791261,195.923391 50.1933527,196.246056 C50.3003976,195.903224 50.5596841,195.200954 50.9682388,194.902607 C51.0919351,194.812451 51.2162261,194.767966 51.3470588,194.767966 Z M50.0648988,196.525422 C50.6262898,196.289354 51.8103253,195.347458 51.803189,194.854564 C51.8014049,194.738902 51.7401514,194.594771 51.4600506,194.566301 C51.2525024,194.544948 51.0503065,194.604261 50.8600045,194.743054 C50.23736,195.197988 49.9465547,196.3718 49.9346608,196.421623 L49.9638008,196.515338 L50.0208914,196.534319 L50.0648988,196.525422 Z" id="Fill-214" fill="#212121"></path>
                    <polygon id="Fill-215" fill="#BF564D" points="49.6010376 196.431113 51.5242776 186.34072 47.1550616 186.34072 45.2324163 196.431113"></polygon>
                    <path d="M44.8756,195.92695 C44.6971918,195.92695 44.5241359,196.050321 44.459909,196.22411 L43.0255073,200.097274 C42.8768339,200.498826 43.1266053,200.879618 43.5399176,200.8725 C45.2651245,200.843436 47.7670016,200.742604 49.9299033,200.742604 C52.4591363,200.742604 52.2283951,200.880211 55.1947282,200.880211 C56.9883249,200.880211 57.7525065,199.071745 57.0257906,198.908041 C53.7181033,198.162471 53.3345257,198.082398 50.6488882,196.266222 C50.3574882,196.068709 50.0238649,195.92695 49.646829,195.92695 L44.8756,195.92695 Z" id="Fill-216" fill="#212121"></path>
                    <path d="M50.5489796,191.4565 L50.5323282,191.544877 L50.5489796,191.4565 Z M46.3534143,190.537142 L46.1637069,191.544877 L46.3534143,190.537142 Z" id="Fill-217" fill="#C9C8C3"></path>
                    <polygon id="Fill-218" fill="#96443E" points="46.1637069 191.544877 46.3551984 190.537142 50.7244143 190.537142 50.5489796 191.4565 50.5323282 191.544877"></polygon>
                    <path d="M51.8519539,87.719163 L54.711242,90.7156753 L50.0982016,92.3206956 C50.0982016,92.3206956 48.4187861,89.8763909 49.7104612,88.2043465 L51.8519539,87.719163" id="Fill-219" fill="#BF564D"></path>
                    <polyline id="Fill-220" fill="#BF564D" points="55.56998 94.9026074 51.0009469 95.5657311 50.0982016 92.3206956 54.711242 90.7156753 55.56998 94.9026074"></polyline>
                    <path d="M34.7087135,112.577997 L56.9972453,113.554295 C58.0373649,113.599967 59.0441816,112.801609 59.2469722,111.771335 L61.9135796,98.1891623 C62.1157755,97.1588887 61.4372298,96.2869819 60.3971102,96.2413106 L38.1085784,95.2644191 C37.0684588,95.2193409 36.061642,96.017106 35.8594461,97.0473795 L33.1922441,110.630145 C32.9900482,111.660419 33.6685939,112.532326 34.7087135,112.577997" id="Fill-221" fill="#8A8989"></path>
                    <path d="M36.236482,116.751287 L63.7666457,117.957721 C65.0505898,118.014069 66.1816976,117.022942 66.2923106,115.744146 L67.7493106,98.8872808 C67.8599237,97.6090773 66.9084135,96.526608 65.6244694,96.4702603 L38.093711,95.263826 C36.8091722,95.2074782 35.6786592,96.1986049 35.5680461,97.4774016 L34.1104514,114.334267 C33.9998384,115.613063 34.9513486,116.694939 36.236482,116.751287" id="Fill-222" fill="#426AA5"></path>
                    <path d="M39.1837849,116.88059 L36.236482,116.751287 C35.0191437,116.697905 34.101531,115.723979 34.1021257,114.534746 C34.1021257,114.468315 34.1050992,114.401291 34.1104514,114.334267 L35.5680461,97.4774016 C35.6756857,96.2335998 36.7485135,95.2620465 37.9896396,95.2620465 C38.0241318,95.2620465 38.0592188,95.2626397 38.093711,95.263826 L54.14212,95.9672827 L38.7104086,95.2911101 C38.6753216,95.2893307 38.6414241,95.2887376 38.6069318,95.2887376 C37.3717527,95.2887376 36.4083486,96.2656291 36.4357045,97.5153622 L36.8079829,114.4523 C36.8359335,115.737028 37.8992461,116.823649 39.1837849,116.88059" id="Fill-223" fill="#989595"></path>
                    <path d="M48.7030498,98.799497 L56.2663665,99.1310589 L56.5553878,95.7845975 C56.582149,95.4844718 56.488782,95.1979881 56.2949118,94.9773423 C56.1010416,94.7572896 55.8280771,94.6285796 55.5265673,94.6149375 L50.17908,94.3806496 C49.582602,94.3563311 49.0467829,94.8296519 48.9956392,95.4174476 L48.7030498,98.799497 Z M56.4352596,100.918171 L56.3668698,100.916392 L48.3706159,100.56585 C47.9465992,100.547463 47.5588588,100.362998 47.2799473,100.046264 C47.0010359,99.7289378 46.8678245,99.322048 46.9041008,98.8997366 L47.2180992,95.2644191 C47.3507159,93.7293886 48.7131596,92.5371895 50.2575796,92.6030274 L55.6044722,92.8373152 C56.3966045,92.8723101 57.1179682,93.2151415 57.6359465,93.8035303 C58.1533302,94.3919191 58.4013176,95.1499442 58.3335224,95.937626 L58.0290392,99.4620276 C57.9576759,100.27818 57.2511796,100.918171 56.4352596,100.918171 Z" id="Fill-224" fill="#212121"></path>
                    <path d="M66.7145433,118.087025 L39.1843796,116.88059 C37.8998408,116.824243 36.8359335,115.737028 36.8079829,114.4523 L36.4357045,97.5153622 C36.4077539,96.2306342 37.4258698,95.2347624 38.7104086,95.2911101 L66.2405722,96.4975444 C67.525111,96.5538921 68.5890184,97.6405134 68.6175637,98.9252414 L68.9892473,115.862179 C69.017198,117.147501 67.999082,118.142779 66.7145433,118.087025" id="Fill-225" fill="#BABABA"></path>
                    <path d="M58.5595061,54.5439987 C58.2675114,55.1134072 57.9249678,55.8109326 57.6139429,56.4610074 C57.2963763,57.1223517 56.9895143,57.7919998 56.6903833,58.4646136 C56.0891478,59.808655 55.5140788,61.1615934 54.9907482,62.5234288 C54.4715804,63.8864504 54.004151,65.2506584 53.5813237,66.608935 C53.3832906,67.2874801 53.1858522,67.9666184 53.0324212,68.638046 C52.9432171,68.9767254 52.8688804,69.3112529 52.8100057,69.6416285 L52.7118812,70.139861 C52.6779837,70.3071247 52.640518,70.4826924 52.6327869,70.5971672 C52.6042416,70.8593324 52.5560714,71.0953997 52.5489351,71.4453486 C52.5334731,71.7691997 52.5031437,72.084747 52.502549,72.4459655 C52.4781665,73.1363733 52.4900604,73.87008 52.4971967,74.5996346 C52.5322837,76.0771311 52.6167302,77.5819118 52.7059343,79.0961826 C52.8831531,82.1241311 53.1370873,85.203089 53.3743702,88.2387483 L47.9234061,89.1171795 C47.1919327,86.0293245 46.6067539,82.9640086 46.0828286,79.8316686 C45.8348412,78.2640158 45.6213461,76.683314 45.4393698,75.0676173 C45.3596808,74.2496856 45.275829,73.4364991 45.2306322,72.5770481 C45.1967347,72.1636338 45.1895984,71.703955 45.1866249,71.2525801 C45.1705682,70.82671 45.2062498,70.2911101 45.238958,69.781015 C45.2514465,69.5075803 45.2817759,69.3017628 45.3085371,69.0858621 L45.3917943,68.4363805 C45.4417486,67.9986477 45.5071649,67.5709981 45.5862592,67.1528387 C45.7236335,66.3010985 45.9026363,65.4766424 46.0852073,64.6521863 C46.4664061,63.0169162 46.9118318,61.4148616 47.4351624,59.8578851 C47.9561143,58.2997224 48.5115584,56.7640988 49.1258771,55.2545731 C49.4363073,54.501293 49.7550633,53.7527581 50.0886865,53.0065956 C50.4234992,52.2467911 50.7529596,51.5463 51.162109,50.7325203 L58.5595061,54.5439987" id="Fill-226" fill="#FFD100"></path>
                    <path d="M63.8391984,131.461007 C61.3063971,145.282213 52.3086788,190.537142 52.3086788,190.537142 L44.9077135,190.537142 C44.9077135,190.537142 48.6745045,146.090061 50.3467837,132.515599 C52.1701151,117.718095 55.1156339,85.5939643 55.1156339,85.5939643 L70.475982,85.5939643 C70.475982,85.5939643 66.2732804,118.173029 63.8391984,131.461007 Z" id="Fill-227" fill="#212121"></path>
                    <polygon id="Fill-228" fill="#000000" points="53.29706 190.6617 44.2939894 190.6617 44.453962 187.92676 54.1665024 187.596977"></polygon>
                    <path d="M74.2201747,32.1573466 C74.2201747,32.1573466 75.0616665,34.2866972 75.9876049,35.3134119 C75.3328469,35.9231536 74.2201747,35.6443806 74.2201747,35.6443806 L74.2201747,32.1573466" id="Fill-230" fill="#A8282A"></path>
                    <path d="M62.3453273,35.566087 C62.9721347,38.7541816 63.597158,44.5947709 61.361109,46.721749 C61.361109,46.721749 62.2347143,49.955515 68.1733273,49.955515 C74.7036608,49.955515 71.2942808,46.7223422 71.2942808,46.7223422 C67.7302804,45.8729744 67.822458,43.2359012 68.4433184,40.7589741 L62.3453273,35.566087" id="Fill-232" fill="#BF564D"></path>
                    <path d="M60.5053445,47.8320957 C60.0373204,46.8083466 59.5223155,45.6369072 60.5880069,45.2697573 C61.761338,44.8658331 68.1810584,44.4541982 70.394509,45.2122233 C72.6079596,45.9702484 71.9805576,48.046217 71.9805576,48.046217 L60.5053445,47.8320957" id="Fill-233" fill="#1A282B"></path>
                    <path d="M52.757078,47.9732615 C48.9314122,49.7040262 46.5514473,62.8354172 46.5514473,62.8354172 L54.0499424,65.2079527 C54.0499424,65.2079527 56.4180135,59.7505279 57.7174196,54.5244253 C59.0786739,49.0486133 56.6689743,46.2039432 52.757078,47.9732615" id="Fill-234" fill="#FFD100"></path>
                    <path d="M99.2924686,80.4894541 L103.901941,80.4989442 L103.094941,86.0061923 C103.094941,86.0061923 99.4803918,85.8733303 97.8414155,83.1532183 L99.2924686,80.4894541" id="Fill-235" fill="#BF564D"></path>
                    <polyline id="Fill-236" fill="#BF564D" points="108.271157 82.402904 105.950661 86.6556739 103.094941 86.0061923 103.901941 80.4989442 108.271157 82.402904"></polyline>
                    <path d="M61.7179253,30.7071342 C61.9968367,35.2392702 61.9290416,37.9060001 64.22456,40.2322712 C67.6761633,43.731168 73.2847212,41.6557925 74.3694429,37.1319604 C75.3453355,33.0600963 74.7250698,26.3327718 70.2773543,24.5290517 C65.8950551,22.7520226 61.4390139,26.1749982 61.7179253,30.7071342" id="Fill-237" fill="#BF564D"></path>
                    <path d="M61.1951894,36.8703884 C61.1951894,36.8703884 57.0757449,30.7118793 57.9689751,26.6987354 C58.7872739,23.0224916 67.093958,21.7134452 70.5437771,22.0841538 C74.2035233,22.4774016 75.6343567,24.0509858 73.621318,27.2171345 C71.5494045,28.1774182 69.9044812,28.4727989 69.9044812,28.4727989 C69.9044812,28.4727989 71.9484441,30.9710788 71.9633114,32.6093146 C71.3912159,32.9207099 69.5339869,33.6550096 69.5339869,33.6550096 C69.5339869,33.6550096 66.926849,40.0626349 66.8495388,40.0531448 C65.8433167,39.9321455 63.5192531,39.8977437 62.6914392,40.2103253 C61.9064433,38.9113621 61.1951894,36.8703884 61.1951894,36.8703884" id="Fill-238" fill="#212121"></path>
                    <path d="M67.7279016,33.0090868 C68.0276273,34.148497 68.7834833,35.1360649 69.5738314,35.7291988 C70.7632192,36.620679 71.6481237,35.774277 71.5612984,34.4444708 C71.4839882,33.2475266 70.7709502,31.3411943 69.4602449,30.9669269 C68.1691645,30.5979976 67.385358,31.7059717 67.7279016,33.0090868" id="Fill-239" fill="#BF564D"></path>
                    <path d="M68.6294576,99.481601 L68.6294576,99.4691452 C68.6895216,99.0266673 68.748991,98.5919002 68.807271,98.1618781 C68.8078657,98.1618781 68.8084604,98.1624712 68.8090551,98.1624712 C68.7501804,98.5960521 68.690711,99.0355643 68.6294576,99.481601" id="Fill-240" fill="#ADAEAA"></path>
                    <path d="M66.4719082,114.832499 C67.2319269,109.61648 67.9854041,104.199388 68.6294576,99.4691452 L68.6294576,99.481601 C67.9848094,104.209471 67.2319269,109.620632 66.4719082,114.832499" id="Fill-241" fill="#204F91"></path>
                    <path d="M63.6946878,132.238013 C62.5826102,120.215782 61.4764796,99.1239413 67.3282673,97.7710029 C67.3788163,97.7591402 67.4347176,97.7532089 67.4941869,97.7532089 C67.86706,97.7532089 68.39158,97.9726684 68.807271,98.1618781 C68.748991,98.5919002 68.6895216,99.0266673 68.6294576,99.4691452 C67.9854041,104.199388 67.2319269,109.61648 66.4719082,114.832499 C65.5424016,121.206909 64.6027853,127.285345 63.8374143,131.461601 C63.7898388,131.710124 63.7422633,131.965171 63.6946878,132.238013" id="Fill-242" fill="#111819"></path>
                    <path d="M73.6742457,195.810102 C73.7467984,195.810102 73.8139988,195.81722 73.8740629,195.833828 C73.9698086,195.859332 74.0358196,195.906783 74.0768535,195.977959 C74.1500008,196.106076 74.1238343,196.169541 74.0970731,196.206316 C73.8936878,196.487461 72.7887465,196.493986 71.9769894,196.379511 C72.3819759,196.172507 73.1634037,195.810102 73.6742457,195.810102 Z M74.2647767,196.326722 C74.328409,196.238938 74.378958,196.088875 74.256451,195.875347 C74.1880612,195.756127 74.0774482,195.674868 73.92818,195.634535 C73.2020588,195.437021 71.6742902,196.304776 71.6100633,196.34155 L71.5595143,196.448314 L71.6409873,196.532539 C71.9198988,196.587701 72.4586914,196.655318 72.9814273,196.655318 C73.5422237,196.655318 74.0833951,196.578211 74.2647767,196.326722 Z" id="Fill-243" fill="#212121"></path>
                    <path d="M72.7268984,194.767966 L72.7893412,194.771525 C72.9754804,194.790505 72.9873743,194.863461 72.9915371,194.887779 C73.0391127,195.18316 72.3296429,195.923391 71.7914449,196.246056 C71.8473461,195.903224 72.0031559,195.200954 72.3677033,194.902607 C72.4783163,194.812451 72.5960657,194.767966 72.7268984,194.767966 Z M71.7034302,196.525422 C72.2309237,196.289354 73.2758008,195.347458 73.1961118,194.854564 C73.1770816,194.738902 73.0950139,194.594771 72.8107502,194.566301 C72.5996339,194.544948 72.4063584,194.604261 72.2362759,194.743054 C71.6808318,195.197988 71.5630824,196.3718 71.5583249,196.421623 L71.6011429,196.515338 L71.6612069,196.534319 L71.7034302,196.525422 Z" id="Fill-244" fill="#212121"></path>
                    <polygon id="Fill-245" fill="#BF564D" points="71.225891 196.431113 71.6612069 186.34072 67.2925857 186.34072 66.8572698 196.431113"></polygon>
                    <path d="M66.4267114,195.92695 C66.2477086,195.92695 66.0930882,196.050321 66.0544331,196.22411 L65.1915322,200.097274 C65.1023282,200.498826 65.4074061,200.879618 65.8201237,200.8725 C67.5411678,200.843436 70.0275829,200.742604 72.1910792,200.742604 C74.7203122,200.742604 76.9046229,200.880211 79.8709559,200.880211 C81.6645527,200.880211 82.1623114,199.071745 81.4112131,198.908041 C77.994102,198.162471 75.2032037,198.082398 72.2499539,196.266222 C71.9288192,196.068709 71.5743816,195.92695 71.1973457,195.92695 L66.4267114,195.92695 Z" id="Fill-246" fill="#212121"></path>
                    <path d="M71.4506853,191.223398 L71.4370073,191.544877 L71.4506853,191.223398 Z M67.2896122,186.343685 L67.2925857,186.343685 L67.0683861,191.544877 L67.2896122,186.343685 Z" id="Fill-247" fill="#C9C8C3"></path>
                    <polygon id="Fill-248" fill="#96443E" points="67.0683861 191.544877 67.2925857 186.343685 71.6600176 186.343685 71.4370073 191.544877"></polygon>
                    <path d="M78.3996833,131.461007 C77.904898,145.282213 73.0646845,190.537142 73.0646845,190.537142 L65.6643139,190.537142 C65.6643139,190.537142 65.3919441,146.090061 65.0630784,132.515599 C64.7038833,117.718095 62.9126653,85.5939643 62.9126653,85.5939643 L78.2730135,85.5939643 C78.2730135,85.5939643 78.874249,118.173029 78.3996833,131.461007 Z" id="Fill-249" fill="#212121"></path>
                    <polygon id="Fill-250" fill="#000000" points="74.0715012 190.6617 65.0690253 190.6617 64.8252008 187.92676 74.4889763 187.596977"></polygon>
                    <path d="M78.0143216,47.9317422 C78.0143216,47.9317422 83.2559535,55.9034615 78.8647339,88.3277183 C71.8235584,88.3277183 57.6085906,88.3277183 54.1819645,88.3277183 C54.0213971,84.7499348 56.9984347,64.5638093 53.5385057,47.7069444 C53.5385057,47.7069444 57.5443637,46.9056205 61.361109,46.721749 C64.3470669,46.5782106 68.669302,46.4833092 71.2942808,46.7223422 C74.7548045,47.0372963 78.0143216,47.9317422 78.0143216,47.9317422" id="Fill-251" fill="#FFD100"></path>
                    <path d="M80.3666996,73.5592778 C80.3641996,73.5563121 80.3625329,73.5533465 80.3591996,73.5497877 C80.5125329,71.7585233 80.6133663,70.0835133 80.6683663,68.5176398 C80.6133663,70.0858858 80.5150329,71.7650478 80.3666996,73.5592778 M80.7016996,67.3811953 C80.7233663,66.378799 80.7275329,65.4268191 80.7141996,64.5169518 L80.7166996,64.5199174 C80.7283663,65.4268191 80.7241996,66.3805784 80.7016996,67.3811953" id="Fill-252" fill="#C4C3BF"></path>
                    <path d="M80.3591996,73.5497877 C77.3827567,68.0763482 75.4404865,55.9669269 75.4404865,55.9669269 L80.6125392,64.5169518 C80.6220543,65.4268191 80.6190808,66.378799 80.6036188,67.3811953 C80.5970771,67.7536834 80.5893461,68.1321028 80.579831,68.5176398 C80.5405812,70.0835133 80.4686233,71.7585233 80.3591996,73.5497877" id="Fill-253" fill="#FFD100"></path>
                    <path d="M82.823611,54.1721037 C83.674618,56.8791668 84.6160184,59.6574059 85.5633657,62.3704002 C86.5285539,65.0875466 87.521098,67.7886783 88.6159294,70.3788939 L89.0322151,71.3415502 C89.125582,71.5610098 89.1148776,71.5165247 89.123798,71.5616029 C89.1327184,71.5965978 89.1850514,71.6671807 89.2070551,71.7235284 C89.3836792,72.0017082 89.72206,72.4085981 90.1282359,72.8030321 C90.9578339,73.6067285 92.0211465,74.4199151 93.1385763,75.1832784 C94.2583849,75.9543524 95.4430151,76.7028874 96.6615429,77.4116824 C97.867582,78.1181048 99.1432004,78.8399488 100.345671,79.4591805 L98.0293388,84.8478018 C95.0766837,83.7457591 92.3280086,82.5339866 89.5311633,80.9793827 C88.1437424,80.1869558 86.763458,79.3298773 85.3653327,78.198771 C84.667162,77.6174998 83.9541241,76.9786946 83.2511959,76.0717929 C83.0721931,75.8203042 82.9003265,75.5966927 82.72846,75.3108022 C82.5619457,75.0320292 82.363318,74.6702176 82.3092008,74.5515908 L81.7858702,73.5141996 C80.4252106,70.7484163 79.2048988,67.9850056 78.0833061,65.1931244 C76.9420886,62.3982775 75.9102947,59.6235972 74.9058567,56.7403734 L82.823611,54.1721037" id="Fill-254" fill="#FFD100"></path>
                    <path d="M72.1839429,49.897981 C70.6585531,53.7758903 79.952429,69.3931054 79.952429,69.3931054 L85.9980869,63.6266578 C85.9980869,63.6266578 84.6766771,58.7166955 82.9157886,52.8126409 C81.18404,47.0046739 73.6421322,46.1903011 72.1839429,49.897981" id="Fill-255" fill="#FFD100"></path>
                </g>
            </g>
        </g>
    </g>
</svg>