<?xml version="1.0" encoding="UTF-8"?>
<svg width="80px" height="80px" viewBox="0 0 80 80" version="1.1" xmlns="http://www.w3.org/2000/svg" xmlns:xlink="http://www.w3.org/1999/xlink">
    <!-- Generator: Sketch 52.6 (67491) - http://www.bohemiancoding.com/sketch -->
    <title>assessment_process</title>
    <desc>Created with Sketch.</desc>
    <g id="assets" stroke="none" stroke-width="1" fill="none" fill-rule="evenodd">
        <g id="homepage-and-login/signup" transform="translate(-278.000000, -25.000000)">
            <g id="assessment_process" transform="translate(278.000000, 25.000000)">
                <circle id="Oval" fill="#FFF9E0" cx="40" cy="40" r="40"></circle>
                <g id="Group-5" transform="translate(13.000000, 17.000000)">
                    <circle id="Oval" fill="#FFE87F" cx="8" cy="8" r="8"></circle>
                    <g id="exam-(1)" transform="translate(9.000000, 6.000000)" fill="#212121">
                        <path d="M33.75,0 L3.75,0 C3.33525,0 3,0.328 3,0.732142857 L3,2.92857143 L0.75,2.92857143 C0.33525,2.92857143 0,3.25657143 0,3.66071429 L0,37.3392857 C0,39.3578036 1.68225,41 3.75,41 L30.75,41 C31.16475,41 31.5,40.672 31.5,40.2678571 L31.5,38.0714286 L33.75,38.0714286 C34.16475,38.0714286 34.5,37.7434286 34.5,37.3392857 L34.5,0.732142857 C34.5,0.328 34.16475,0 33.75,0 Z M30,37.3392857 L30,39.5357143 L3.75,39.5357143 C2.5095,39.5357143 1.5,38.55025 1.5,37.3392857 L1.5,4.39285714 L3.75,4.39285714 L24,4.39285714 L24,9.51785714 C24,9.922 24.33525,10.25 24.75,10.25 L30,10.25 L30,37.3392857 Z M25.5,8.78571429 L25.5,5.42883929 L28.9395,8.78571429 L25.5,8.78571429 Z M33,36.6071429 L31.5,36.6071429 L31.5,9.51785714 C31.5,9.50248214 31.49175,9.48930357 31.491,9.47392857 C31.4865,9.40730357 31.47375,9.342875 31.4505,9.27917857 C31.44225,9.25575 31.43625,9.23232143 31.42575,9.21035714 C31.38975,9.13494643 31.34475,9.06466071 31.2825,9.00316071 C31.281,9.00169643 31.281,9.00096429 31.2795,8.9995 L25.281,3.14308929 C25.28025,3.14235714 25.27875,3.141625 25.278,3.14089286 C25.21575,3.08085714 25.143,3.03692857 25.0665,3.00178571 C25.0425,2.99080357 25.017,2.98421429 24.9915,2.97616071 C24.92925,2.95492857 24.8655,2.94248214 24.7995,2.93808929 C24.78225,2.93735714 24.768,2.92857143 24.75,2.92857143 L4.5,2.92857143 L4.5,1.46428571 L33,1.46428571 L33,36.6071429 Z" id="Shape" stroke="#212121" stroke-width="0.5" fill-rule="nonzero"></path>
                        <path d="M7.5,11.8097826 C5.8455,11.8097826 4.5,13.1232469 4.5,14.738354 C4.5,16.3534612 5.8455,17.6669255 7.5,17.6669255 C9.1545,17.6669255 10.5,16.3534612 10.5,14.738354 C10.5,13.1232469 9.1545,11.8097826 7.5,11.8097826 Z M7.5,16.2026398 C6.67275,16.2026398 6,15.5459076 6,14.738354 C6,13.9308005 6.67275,13.2740683 7.5,13.2740683 C8.32725,13.2740683 9,13.9308005 9,14.738354 C9,15.5459076 8.32725,16.2026398 7.5,16.2026398 Z" id="Shape" stroke="#212121" stroke-width="0.5" fill-rule="nonzero"></path>
                        <path d="M7.5,19.863354 C5.8455,19.863354 4.5,21.1768183 4.5,22.7919255 C4.5,24.4070326 5.8455,25.7204969 7.5,25.7204969 C9.1545,25.7204969 10.5,24.4070326 10.5,22.7919255 C10.5,21.1768183 9.1545,19.863354 7.5,19.863354 Z M7.5,24.2562112 C6.67275,24.2562112 6,23.599479 6,22.7919255 C6,21.9843719 6.67275,21.3276398 7.5,21.3276398 C8.32725,21.3276398 9,21.9843719 9,22.7919255 C9,23.599479 8.32725,24.2562112 7.5,24.2562112 Z" id="Shape" stroke="#212121" stroke-width="0.5" fill-rule="nonzero"></path>
                        <path d="M7.5,27.9169255 C5.8455,27.9169255 4.5,29.2303898 4.5,30.8454969 C4.5,32.460604 5.8455,33.7740683 7.5,33.7740683 C9.1545,33.7740683 10.5,32.460604 10.5,30.8454969 C10.5,29.2303898 9.1545,27.9169255 7.5,27.9169255 Z M7.5,32.3097826 C6.67275,32.3097826 6,31.6530505 6,30.8454969 C6,30.0379433 6.67275,29.3812112 7.5,29.3812112 C8.32725,29.3812112 9,30.0379433 9,30.8454969 C9,31.6530505 8.32725,32.3097826 7.5,32.3097826 Z" id="Shape" stroke="#212121" stroke-width="0.5" fill-rule="nonzero"></path>
                        <rect id="Rectangle" x="12.75" y="14.0062112" width="14.25" height="1.57692308"></rect>
                        <rect id="Rectangle" x="12.75" y="22.0597826" width="14.25" height="1.57692308"></rect>
                        <rect id="Rectangle" x="12.75" y="30.113354" width="14.25" height="1.57692308"></rect>
                        <path d="M42,0.732142857 C40.3455,0.732142857 39,2.04560714 39,3.66071429 L39,6.58928571 L39,35.875 C39,35.9884821 39.027,36.1012321 39.07875,36.2022679 L41.32875,40.595125 C41.45625,40.8433214 41.71575,41 42,41 C42.28425,41 42.54375,40.8433214 42.67125,40.595125 L44.92125,36.2022679 C44.973,36.1012321 45,35.9884821 45,35.875 L45,6.58928571 L45,3.66071429 C45,2.04560714 43.6545,0.732142857 42,0.732142857 Z M42,38.6307857 L40.9635,36.6071429 L43.0365,36.6071429 L42,38.6307857 Z M43.5,35.1428571 L40.5,35.1428571 L40.5,10.25 L43.5,10.25 L43.5,35.1428571 Z M43.5,8.78571429 L40.5,8.78571429 L40.5,7.32142857 L43.5,7.32142857 L43.5,8.78571429 Z M43.5,5.85714286 L40.5,5.85714286 L40.5,3.66071429 C40.5,2.85316071 41.17275,2.19642857 42,2.19642857 C42.82725,2.19642857 43.5,2.85316071 43.5,3.66071429 L43.5,5.85714286 Z" id="Shape" stroke="#212121" stroke-width="0.5" fill-rule="nonzero"></path>
                    </g>
                </g>
            </g>
        </g>
    </g>
</svg>