<?xml version="1.0" encoding="UTF-8"?>
<svg width="24px" height="24px" viewBox="0 0 24 24" version="1.1" xmlns="http://www.w3.org/2000/svg" xmlns:xlink="http://www.w3.org/1999/xlink">
    <!-- Generator: Sketch 52.6 (67491) - http://www.bohemiancoding.com/sketch -->
    <title>ic_facebook</title>
    <desc>Created with Sketch.</desc>
    <g id="assets" stroke="none" stroke-width="1" fill="none" fill-rule="evenodd">
        <g id="homepage-and-login/signup" transform="translate(-763.000000, -169.000000)">
            <g id="ic_facebook" transform="translate(759.000000, 165.000000)">
                <rect id="Rectangle" fill="#FFFFFF" x="4" y="4" width="24" height="24" rx="5.33333333"></rect>
                <g id="facebook-(1)" stroke-width="1" transform="translate(4.000000, 4.000000)" fill="#475993">
                    <path d="M20.7550709,0 L3.232489,0 C1.44733496,0 0.000117359413,1.44715892 0.000117359413,3.23237164 L0.000117359413,20.7550709 C0.000117359413,22.5402836 1.44727628,23.9874425 3.232489,23.9874425 L11.8745428,23.9874425 L11.8892714,15.4156284 L9.66231785,15.4156284 C9.37290954,15.4156284 9.13801467,15.1816137 9.13689976,14.8922054 L9.12622005,12.129154 C9.12510513,11.8381614 9.36070416,11.6016822 9.65169682,11.6016822 L11.8746015,11.6016822 L11.8746015,8.93187286 C11.8746015,5.83358435 13.766846,4.14654279 16.5307188,4.14654279 L18.7986895,4.14654279 C19.0888606,4.14654279 19.3241663,4.38178973 19.3241663,4.67201956 L19.3241663,7.00183863 C19.3241663,7.2919511 19.0890367,7.52713936 18.7989829,7.5273154 L17.4071589,7.52796088 C15.9040782,7.52796088 15.6130269,8.24221027 15.6130269,9.29040587 L15.6130269,11.6017408 L18.9158142,11.6017408 C19.2305134,11.6017408 19.4746797,11.8765379 19.4375941,12.189066 L19.1101027,14.9521174 C19.0787677,15.2165281 18.8545526,15.4157457 18.5883227,15.4157457 L15.6277555,15.4157457 L15.6130269,23.9875599 L20.7551883,23.9875599 C22.5403423,23.9875599 23.9875012,22.540401 23.9875012,20.7552469 L23.9875012,3.23237164 C23.9874425,1.44715892 22.5402836,0 20.7550709,0 Z" id="Path"></path>
                </g>
            </g>
        </g>
    </g>
</svg>