<?xml version="1.0" encoding="UTF-8"?>
<svg width="22px" height="22px" viewBox="0 0 22 22" version="1.1" xmlns="http://www.w3.org/2000/svg" xmlns:xlink="http://www.w3.org/1999/xlink">
    <!-- Generator: Sketch 52.6 (67491) - http://www.bohemiancoding.com/sketch -->
    <title>ic_linkedin</title>
    <desc>Created with Sketch.</desc>
    <g id="assets" stroke="none" stroke-width="1" fill="none" fill-rule="evenodd">
        <g id="homepage-and-login/signup" transform="translate(-698.000000, -168.000000)" fill="#FFFFFF" fill-rule="nonzero">
            <g id="ic_linkedin" transform="translate(698.000000, 168.000000)">
                <path d="M20.0099215,0 L1.99007853,0 C0.891,0 0,0.891 0,1.99007853 L0,20.0098639 C0,21.109 0.891,22 1.99007853,22 L20.0098639,22 C21.109,22 22,21.109 22,20.0098639 L22,1.99007853 C22,0.891 21.109,0 20.0099215,0 Z M6.80773298,18.9962513 C6.80773298,19.3161152 6.5484555,19.5753927 6.22859162,19.5753927 L3.76332461,19.5753927 C3.44346073,19.5753927 3.18418325,19.3161152 3.18418325,18.9962513 L3.18418325,8.66195288 C3.18418325,8.34208901 3.44346073,8.08281152 3.76332461,8.08281152 L6.22859162,8.08281152 C6.5484555,8.08281152 6.80773298,8.34208901 6.80773298,8.66195288 L6.80773298,18.9962513 Z M4.99595812,7.10864921 C3.70250785,7.10864921 2.65393717,6.06007853 2.65393717,4.76662827 C2.65393717,3.47317801 3.70250785,2.42460733 4.99595812,2.42460733 C6.28940838,2.42460733 7.33797906,3.47317801 7.33797906,4.76662827 C7.33797906,6.06007853 6.28946597,7.10864921 4.99595812,7.10864921 Z M19.6911518,19.0429005 C19.6911518,19.3369634 19.4527225,19.5753927 19.1586597,19.5753927 L16.5132461,19.5753927 C16.2191832,19.5753927 15.9807539,19.3369634 15.9807539,19.0429005 L15.9807539,14.1955288 C15.9807539,13.4724084 16.1928639,11.0267801 14.091,11.0267801 C12.4606387,11.0267801 12.1299476,12.7007382 12.0635445,13.4519634 L12.0635445,19.0429005 C12.0635445,19.3369634 11.8251728,19.5753927 11.5310524,19.5753927 L8.97248691,19.5753927 C8.67842408,19.5753927 8.43999476,19.3369634 8.43999476,19.0429005 L8.43999476,8.61530366 C8.43999476,8.32124084 8.67842408,8.08281152 8.97248691,8.08281152 L11.5310524,8.08281152 C11.8251152,8.08281152 12.0635445,8.32124084 12.0635445,8.61530366 L12.0635445,9.51690052 C12.6680838,8.60965969 13.5665131,7.90940314 15.4794188,7.90940314 C19.7153979,7.90940314 19.6911518,11.8668691 19.6911518,14.0412984 L19.6911518,19.0429005 Z" id="Shape"></path>
            </g>
        </g>
    </g>
</svg>