<?xml version="1.0" encoding="UTF-8"?>
<svg width="24px" height="24px" viewBox="0 0 24 24" version="1.1" xmlns="http://www.w3.org/2000/svg" xmlns:xlink="http://www.w3.org/1999/xlink">
    <!-- Generator: Sketch 52.6 (67491) - http://www.bohemiancoding.com/sketch -->
    <title>ic_show-password</title>
    <desc>Created with Sketch.</desc>
    <g id="assets" stroke="none" stroke-width="1" fill="none" fill-rule="evenodd">
        <g id="homepage-and-login/signup" transform="translate(-823.000000, -170.000000)" fill="#A1A1A1">
            <g id="ic_show-password" transform="translate(823.000000, 170.000000)">
                <g id="show-password" transform="translate(2.000000, 2.000000)">
                    <path d="M7.72916667,19.359375 L3.35416667,19.359375 C2.43516667,19.359375 1.6875,18.6233906 1.6875,17.71875 L1.6875,10.9921875 C1.6875,10.0875469 2.43516667,9.3515625 3.35416667,9.3515625 L15.3541667,9.3515625 C16.2731667,9.3515625 17.0208333,10.0875469 17.0208333,10.9921875 L17.0208333,11.8535156 C17.0208333,12.3065742 17.3939167,12.6738281 17.8541667,12.6738281 C18.3144167,12.6738281 18.6875,12.3065742 18.6875,11.8535156 L18.6875,10.9921875 C18.6875,9.18290625 17.1921667,7.7109375 15.3541667,7.7109375 L14.352625,7.7109375 L14.352625,4.81794141 C14.352625,2.16131836 12.109625,0 9.352625,0 C6.595625,0 4.352625,2.16131836 4.352625,4.81794141 L4.352625,7.7109375 L3.35416667,7.7109375 C1.51616667,7.7109375 0.0208333333,9.18290625 0.0208333333,10.9921875 L0.0208333333,17.71875 C0.0208333333,19.5280313 1.51616667,21 3.35416667,21 L7.72916667,21 C8.18941667,21 8.5625,20.6327461 8.5625,20.1796875 C8.5625,19.7266289 8.18941667,19.359375 7.72916667,19.359375 Z M6.01929167,4.81794141 C6.01929167,3.06595898 7.514625,1.640625 9.352625,1.640625 C11.190625,1.640625 12.6859583,3.06595898 12.6859583,4.81794141 L12.6859583,7.7109375 L6.01929167,7.7109375 L6.01929167,4.81794141 Z" id="Shape" fill-rule="nonzero"></path>
                    <ellipse id="Oval" cx="7.8125" cy="14.1914062" rx="1" ry="1"></ellipse>
                    <path d="M19.8276667,16.5499277 C19.798375,16.5088711 19.697875,16.3688437 19.6354167,16.2915293 C19.3564167,15.9460957 18.7030833,15.1371035 17.7940417,14.4229395 C16.6285417,13.5072246 15.429125,13.0429688 14.2291667,13.0429688 C13.0292083,13.0429688 11.8297917,13.5072246 10.6643333,14.4228574 C9.75516667,15.1371035 9.101875,15.9460547 8.82320833,16.2911602 C8.76058333,16.3686387 8.66,16.508748 8.63066667,16.5498457 C8.42870833,16.8327715 8.42866667,17.2100332 8.63058333,17.492959 C8.65995833,17.5340977 8.76054167,17.6742891 8.82295833,17.7514395 C9.101875,18.096873 9.75516667,18.9058242 10.6642917,19.6200703 C11.8297917,20.5357441 13.0292083,21 14.2291667,21 C15.429125,21 16.6285,20.5357441 17.7940417,19.6201113 C18.7030833,18.9059062 19.3564583,18.0969551 19.6355417,17.7513574 C19.6979583,17.674043 19.798375,17.5341387 19.8276667,17.493082 C20.0296667,17.2101152 20.0296667,16.8328535 19.8276667,16.5499277 Z M14.2291667,19.359375 C12.9914583,19.359375 11.694125,18.5733516 10.3690833,17.0214844 C11.6940417,15.4696582 12.991375,14.6835938 14.2291667,14.6835938 C15.4667917,14.6835938 16.7642917,15.4698223 18.0892917,17.0215254 C16.76425,18.5733105 15.4669167,19.359375 14.2291667,19.359375 Z" id="Shape" fill-rule="nonzero"></path>
                    <ellipse id="Oval" cx="4.6875" cy="14.1914062" rx="1" ry="1"></ellipse>
                    <ellipse id="Oval" cx="14.2708333" cy="17.0214844" rx="1.58333333" ry="1.55859375"></ellipse>
                </g>
            </g>
        </g>
    </g>
</svg>