<?xml version="1.0" encoding="UTF-8"?>
<svg width="40px" height="37px" viewBox="0 0 40 37" version="1.1" xmlns="http://www.w3.org/2000/svg" xmlns:xlink="http://www.w3.org/1999/xlink">
    <!-- Generator: Sketch 52.6 (67491) - http://www.bohemiancoding.com/sketch -->
    <title>id_created</title>
    <desc>Created with Sketch.</desc>
    <g id="assets" stroke="none" stroke-width="1" fill="none" fill-rule="evenodd">
        <g id="homepage-and-login/signup" transform="translate(-949.000000, -160.000000)">
            <g id="id_created" transform="translate(949.000000, 160.000000)">
                <path d="M32.1267023,18.4320914 L35.0832928,14.3605769 C35.6660384,13.5432692 35.782466,12.5078125 35.3921449,11.5889423 C35.0054718,10.6763822 34.1819674,10.0330529 33.1940054,9.87409854 L28.22866,9.08473554 L27.9280156,7.29417069 L27.9611503,7.26141831 L27.8866732,7.05318508 L27.3984679,4.14843754 C27.2358342,3.16556492 26.5816513,2.35306492 25.6487111,1.97085338 C25.1787451,1.77704323 24.6808123,1.71304085 24.1959509,1.76893031 C23.6281007,1.78365385 23.0702821,1.94471154 22.5887646,2.28575723 L18.6426921,5.10847354 L14.6564932,2.27764423 C14.1749757,1.94140623 13.6171571,1.78365385 13.0529548,1.76893031 C12.5647495,1.71304085 12.0649927,1.77704323 11.5950268,1.97235577 C10.6702942,2.35486777 10.0212792,3.16887015 9.85864545,4.14513223 L9.06006809,9.05348554 L4.06614786,9.87229569 C3.07180202,10.0348558 2.25012156,10.6814904 1.86314444,11.601863 C1.47464739,12.5243389 1.59593868,13.5597957 2.18354817,14.3704928 L5.13193089,18.3975361 L2.17534047,22.46875 C1.59259486,23.2860577 1.47647128,24.3233173 1.8649684,25.2406851 C2.25346545,26.1547476 3.07514591,26.7947716 4.06280397,26.9555288 L9.02845331,27.7448918 L9.85864545,32.6808894 C10.0197592,33.6607572 10.6702942,34.4729568 11.5935068,34.8569712 C12.0634728,35.0522837 12.5647495,35.1162861 13.0511308,35.0603966 C13.6171571,35.0456731 14.1767996,34.8849158 14.6647009,34.5450722 L18.6028696,31.7506009 L18.6344844,31.7391827 L22.5887646,34.5450722 C23.0918653,34.8996394 23.6764349,35.0817308 24.270732,35.0817308 C24.6473735,35.0817308 25.0243191,35.0096154 25.3878891,34.8602765 C26.3193093,34.4777645 26.9750121,33.6640625 27.1376459,32.6841947 L27.9362233,27.7758414 L29.7476896,27.4789663 L30.0398225,27.7677284 L31.6384971,27.2115385 L33.1891416,26.9555288 C34.1834873,26.7947716 35.0069918,26.148137 35.3939689,25.2256611 C35.782466,24.3019832 35.6611746,23.2698317 35.0735651,22.4591346 L32.1267023,18.4320914 Z" id="Path" fill="#FFDE4C" opacity="0.699999988"></path>
                <path d="M25.2982125,36.9278846 C24.7106031,36.9278846 24.1312014,36.7472957 23.6347884,36.3963342 L18.9813351,33.0946515 C18.8600437,33.0108173 18.6591075,33.015625 18.514713,33.109375 L13.8828429,36.3963342 C13.0529548,36.9723558 12.0151386,37.085637 11.0989178,36.7049278 C10.1857369,36.3272235 9.54310553,35.5216346 9.38199175,34.5534855 L8.44236381,28.9624399 C8.41591681,28.8082932 8.29310553,28.6865985 8.13533556,28.6604568 L2.4775049,27.7316707 C1.4995744,27.5724158 0.686101634,26.9390024 0.302468405,26.0348558 C-0.0826848249,25.1256009 0.0319187549,24.1015625 0.609800623,23.2926683 L3.95488809,18.6829928 C4.03787696,18.5631009 4.03787696,18.3647837 3.93999268,18.2220553 L0.619832218,13.6451322 C0.037086537,12.8443509 -0.0793409339,11.8203125 0.302468405,10.9077524 C0.684581712,9.99549277 1.4995744,9.35697115 2.48236872,9.19801685 L8.13867946,8.26923077 C8.29462553,8.24278846 8.41743673,8.12139423 8.4441877,7.96724762 L9.38381564,2.37439908 C9.54492949,1.40625 10.1857369,0.602163462 11.1004377,0.224759615 C12.0184825,-0.155949538 13.0559946,-0.0426683077 13.8746352,0.528245231 L18.5362962,3.83653846 C18.6691391,3.93179085 18.8500121,3.93179085 18.9828551,3.83503608 L23.6332685,0.534855769 C24.4449174,-0.0378606154 25.4793896,-0.157451923 26.4022981,0.223257231 C27.3255107,0.600661077 27.9711819,1.40625 28.1338156,2.37620192 L28.4493556,4.25510815 C28.5621353,4.92457931 28.1040248,5.55979569 27.4249149,5.671274 C26.7494528,5.77644231 26.1053016,5.32992785 25.9922179,4.65895431 L25.676678,2.77824523 C25.6487111,2.60096154 25.522556,2.523738 25.4492948,2.49609377 C25.3763376,2.46814908 25.233463,2.43028846 25.0857247,2.53365385 L20.4340953,5.83533654 C19.4312378,6.54447115 18.0882174,6.54266831 17.0871838,5.83713938 L12.4303867,2.53365385 C12.2823444,2.43028846 12.1346061,2.46153846 12.0634728,2.49609377 C11.9771401,2.53034854 11.8692242,2.60757215 11.8409533,2.77493992 L10.8995015,8.37079323 C10.6985651,9.56400238 9.75407346,10.4990985 8.5469358,10.6977163 L2.88758514,11.6265024 C2.70975191,11.65625 2.63345089,11.7791466 2.60366,11.8515625 C2.57204521,11.9236778 2.53708654,12.0664062 2.64165852,12.2109375 L5.91561284,16.7121394 C6.6743677,17.8067908 6.6743677,19.1210938 5.99708171,20.0958534 L2.64165852,24.7169471 C2.53708654,24.8647837 2.57204521,25.0093149 2.60183611,25.0814303 C2.63861868,25.1667668 2.71643969,25.2734375 2.88576117,25.3013822 L8.5469358,26.2301683 C9.75407346,26.4287861 10.6985651,27.3641827 10.8995015,28.5570914 L11.8391293,34.1496394 C11.8674003,34.3203125 11.9771401,34.3957332 12.0616489,34.4320914 C12.1330861,34.4615385 12.2793044,34.4960938 12.4385944,34.3876202 L17.082016,31.0925481 C18.0930812,30.4080529 19.4212062,30.4080529 20.4091682,31.0778245 L25.0842047,34.3942308 C25.2301191,34.4975962 25.3729937,34.4615385 25.4477748,34.4320914 C25.5192121,34.4023438 25.6468872,34.3269231 25.6751581,34.1514423 L26.61661,28.5570914 C26.8172422,27.3641827 27.762038,26.4287861 28.9688716,26.2301683 L34.6285262,25.3013822 C34.7996717,25.2734375 34.8774927,25.1667668 34.9139713,25.0814303 C34.9440661,25.0093149 34.9805447,24.8647837 34.869285,24.7073317 L31.535749,20.1171875 C31.1353964,19.5643029 31.2615516,18.7947716 31.8211941,18.3990385 C32.3805326,18.0069111 33.1593507,18.1283053 33.5593993,18.6814904 L36.899623,23.28125 C37.4823687,24.1000601 37.5969723,25.1240985 37.2118191,26.0330529 C36.8281858,26.9375 36.014713,27.5724158 35.0352626,27.7298678 L29.3789518,28.6589543 C29.2230058,28.6850962 29.1001946,28.8064904 29.0734436,28.960637 L28.1338156,34.5534855 C27.9730058,35.523137 27.3255107,36.3272235 26.4041221,36.7064303 C26.0454159,36.8557692 25.6702942,36.9278846 25.2982125,36.9278846 Z" id="Path" fill="#212121"></path>
                <path d="M20.4188959,22.9774639 C20.1003161,22.9774639 19.7814324,22.8578726 19.5391537,22.6165865 L12.0683366,15.2319712 C11.5819553,14.7512019 11.5819553,13.9717548 12.0683366,13.4906851 C12.5547179,13.0099158 13.3432637,13.0099158 13.829645,13.4906851 L20.4207198,20.0057092 L37.8012525,2.82572115 C38.2876338,2.34495192 39.0761795,2.34495192 39.5625608,2.82572115 C40.0489421,3.30649038 40.0489421,4.086238 39.5625608,4.56700723 L21.3004621,22.6180889 C21.0566634,22.8578726 20.7377797,22.9774639 20.4188959,22.9774639 Z" id="Path" fill="#212121"></path>
            </g>
        </g>
    </g>
</svg>