<?xml version="1.0" encoding="UTF-8"?>
<svg width="36px" height="36px" viewBox="0 0 36 36" version="1.1" xmlns="http://www.w3.org/2000/svg" xmlns:xlink="http://www.w3.org/1999/xlink">
    <!-- Generator: Sketch 52.6 (67491) - http://www.bohemiancoding.com/sketch -->
    <title>instagram_active</title>
    <desc>Created with Sketch.</desc>
    <defs>
        <path d="M11.916,14.30208 C13.23072,14.30208 14.30256,13.23216 14.30256,11.91648 C14.30256,11.39712 14.13264,10.9176 13.85136,10.52592 C13.41792,9.92496 12.71328,9.53088 11.91744,9.53088 C11.12112,9.53088 10.41696,9.92448 9.98256,10.52544 C9.70032,10.91712 9.53184,11.39664 9.53136,11.916 C9.52992,13.23168 10.6008,14.30208 11.916,14.30208 Z" id="path-1"></path>
        <filter x="-188.6%" y="-188.6%" width="477.3%" height="477.3%" filterUnits="objectBoundingBox" id="filter-2">
            <feOffset dx="0" dy="0" in="SourceAlpha" result="shadowOffsetOuter1"></feOffset>
            <feGaussianBlur stdDeviation="3" in="shadowOffsetOuter1" result="shadowBlurOuter1"></feGaussianBlur>
            <feColorMatrix values="0 0 0 0 0   0 0 0 0 0   0 0 0 0 0  0 0 0 0.44 0" type="matrix" in="shadowBlurOuter1"></feColorMatrix>
        </filter>
        <polygon id="path-3" points="17.12544 8.99808 17.12544 6.9984 17.12544 6.7008 16.8264 6.70176 14.82768 6.708 14.83536 9.00576"></polygon>
        <filter x="-391.7%" y="-390.4%" width="883.4%" height="880.9%" filterUnits="objectBoundingBox" id="filter-4">
            <feOffset dx="0" dy="0" in="SourceAlpha" result="shadowOffsetOuter1"></feOffset>
            <feGaussianBlur stdDeviation="3" in="shadowOffsetOuter1" result="shadowBlurOuter1"></feGaussianBlur>
            <feColorMatrix values="0 0 0 0 0   0 0 0 0 0   0 0 0 0 0  0 0 0 0.44 0" type="matrix" in="shadowBlurOuter1"></feColorMatrix>
        </filter>
        <path d="M11.91648,-1.3500312e-13 C5.34576,-1.3500312e-13 7.10542736e-15,5.34576 7.10542736e-15,11.91648 C7.10542736e-15,18.48672 5.34576,23.83296 11.91648,23.83296 C18.48672,23.83296 23.83296,18.48672 23.83296,11.91648 C23.83296,5.34576 18.48768,-1.3500312e-13 11.91648,-1.3500312e-13 Z M18.6936,10.52592 L18.6936,16.07472 C18.6936,17.52 17.51856,18.69456 16.07424,18.69456 L7.75872,18.69456 C6.31392,18.69456 5.13936,17.52 5.13936,16.07472 L5.13936,10.52592 L5.13936,7.7592 C5.13936,6.3144 6.31392,5.13984 7.75872,5.13984 L16.07376,5.13984 C17.51856,5.13984 18.6936,6.3144 18.6936,7.7592 L18.6936,10.52592 Z" id="path-5"></path>
        <filter x="-37.8%" y="-37.8%" width="175.5%" height="175.5%" filterUnits="objectBoundingBox" id="filter-6">
            <feOffset dx="0" dy="0" in="SourceAlpha" result="shadowOffsetOuter1"></feOffset>
            <feGaussianBlur stdDeviation="3" in="shadowOffsetOuter1" result="shadowBlurOuter1"></feGaussianBlur>
            <feColorMatrix values="0 0 0 0 0   0 0 0 0 0   0 0 0 0 0  0 0 0 0.44 0" type="matrix" in="shadowBlurOuter1"></feColorMatrix>
        </filter>
        <path d="M15.62352,11.91648 C15.62352,13.95984 13.9608,15.62352 11.91648,15.62352 C9.87216,15.62352 8.20992,13.95984 8.20992,11.91648 C8.20992,11.42496 8.30784,10.95504 8.48256,10.52592 L6.45936,10.52592 L6.45936,16.07472 C6.45936,16.79184 7.0416,17.37264 7.75824,17.37264 L16.07328,17.37264 C16.78896,17.37264 17.37216,16.79184 17.37216,16.07472 L17.37216,10.52592 L15.348,10.52592 C15.52416,10.95504 15.62352,11.42496 15.62352,11.91648 Z" id="path-7"></path>
        <filter x="-82.5%" y="-131.4%" width="264.9%" height="362.9%" filterUnits="objectBoundingBox" id="filter-8">
            <feOffset dx="0" dy="0" in="SourceAlpha" result="shadowOffsetOuter1"></feOffset>
            <feGaussianBlur stdDeviation="3" in="shadowOffsetOuter1" result="shadowBlurOuter1"></feGaussianBlur>
            <feColorMatrix values="0 0 0 0 0   0 0 0 0 0   0 0 0 0 0  0 0 0 0.44 0" type="matrix" in="shadowBlurOuter1"></feColorMatrix>
        </filter>
    </defs>
    <g id="assets" stroke="none" stroke-width="1" fill="none" fill-rule="evenodd">
        <g id="homepage-and-login/signup" transform="translate(-293.000000, -186.000000)">
            <g id="instagram_active" transform="translate(299.000000, 192.000000)">
                <g id="Path">
                    <use fill="black" fill-opacity="1" filter="url(#filter-2)" xlink:href="#path-1"></use>
                    <use fill="#FFFFFF" fill-rule="evenodd" xlink:href="#path-1"></use>
                </g>
                <g id="Path">
                    <use fill="black" fill-opacity="1" filter="url(#filter-4)" xlink:href="#path-3"></use>
                    <use fill="#FFFFFF" fill-rule="evenodd" xlink:href="#path-3"></use>
                </g>
                <g id="Shape" fill-rule="nonzero">
                    <use fill="black" fill-opacity="1" filter="url(#filter-6)" xlink:href="#path-5"></use>
                    <use fill="#FFFFFF" xlink:href="#path-5"></use>
                </g>
                <g id="Path">
                    <use fill="black" fill-opacity="1" filter="url(#filter-8)" xlink:href="#path-7"></use>
                    <use fill="#FFFFFF" fill-rule="evenodd" xlink:href="#path-7"></use>
                </g>
            </g>
        </g>
    </g>
</svg>