<?xml version="1.0" encoding="UTF-8"?>
<svg width="80px" height="80px" viewBox="0 0 80 80" version="1.1" xmlns="http://www.w3.org/2000/svg" xmlns:xlink="http://www.w3.org/1999/xlink">
    <!-- Generator: Sketch 52.6 (67491) - http://www.bohemiancoding.com/sketch -->
    <title>pitch_talents</title>
    <desc>Created with Sketch.</desc>
    <g id="assets" stroke="none" stroke-width="1" fill="none" fill-rule="evenodd">
        <g id="homepage-and-login/signup" transform="translate(-739.000000, -25.000000)">
            <g id="pitch_talents" transform="translate(739.000000, 25.000000)">
                <circle id="Oval-Copy" fill="#FFF9E0" cx="40" cy="40" r="40"></circle>
                <g id="Group-10" transform="translate(11.000000, 18.000000)">
                    <circle id="Oval" fill="#FFE87F" cx="8" cy="11" r="8"></circle>
                    <g id="speaker" transform="translate(6.000000, 2.000000)" fill="#000000">
                        <path d="M35,0.0453059701 C33.1616211,0.0453059701 31.6666992,1.53050746 31.6666992,3.35671642 L31.6666992,3.95529851 L12.1900391,11.6941791 C11.8742188,11.8208806 11.6666992,12.1246343 11.6666992,12.4632164 L11.6666992,24.0532985 C11.6666992,24.3918806 11.8742188,24.6957313 12.1900391,24.8215597 L31.6666992,32.5604403 L31.6666992,33.1597985 C31.6666992,34.9861045 33.1617188,36.471209 35,36.471209 C36.8382812,36.471209 38.3333008,34.9860075 38.3333008,33.1597985 L38.3333008,3.35671642 C38.3333008,1.53041045 36.8383789,0.0453059701 35,0.0453059701 Z M36.6666992,33.1597015 C36.6666992,34.072806 35.9192383,34.8154552 35,34.8154552 C34.0807617,34.8154552 33.3333008,34.072903 33.3333008,33.1597015 L33.3333008,32.0006642 C33.3333008,31.661209 33.1257812,31.3574552 32.8091797,31.2316269 L13.3333008,23.4927463 L13.3333008,13.0236716 L32.8091797,5.28479104 C33.1258789,5.15808955 33.3333008,4.85433582 33.3333008,4.51575373 L33.3333008,3.35671642 C33.3333008,2.44361194 34.0807617,1.70096269 35,1.70096269 C35.9192383,1.70096269 36.6666992,2.44351493 36.6666992,3.35671642 L36.6666992,33.1597015 Z" id="Shape" fill-rule="nonzero"></path>
                        <path d="M12.5,11.635291 L6.66669922,11.635291 C2.99082031,11.635291 0,14.6064701 0,18.258209 C0,21.9099478 2.99082031,24.8811269 6.66669922,24.8811269 L12.5,24.8811269 C12.9599609,24.8811269 13.3333008,24.5111119 13.3333008,24.0532985 L13.3333008,12.4632164 C13.3333008,12.0061791 12.9599609,11.635291 12.5,11.635291 Z M11.6666992,23.2253731 L6.66669922,23.2253731 C3.90917969,23.2253731 1.66669922,20.9976194 1.66669922,18.258209 C1.66669922,15.5187985 3.90917969,13.2910448 6.66669922,13.2910448 L11.6666992,13.2910448 L11.6666992,23.2253731 Z" id="Shape" fill-rule="nonzero"></path>
                        <path d="M42.7633789,14.989 L37.7633789,13.3332463 C37.5083984,13.2496194 37.2308594,13.2918209 37.0125,13.4475299 C36.7950195,13.6031418 36.6666992,13.8531493 36.6666992,14.1189701 L36.6666992,22.3975448 C36.6666992,22.6632687 36.7950195,22.9132761 37.0125,23.0697612 C37.1566406,23.172403 37.3275391,23.2253731 37.5,23.2253731 C37.5883789,23.2253731 37.6775391,23.211306 37.7633789,23.1822985 L42.7633789,21.5265448 C43.1041992,21.4147836 43.3333984,21.0985149 43.3333984,20.741694 L43.3333984,15.7745299 C43.3333008,15.417806 43.1041992,15.1024104 42.7633789,14.989 Z M41.6666992,20.1448582 L38.3333984,21.248403 L38.3333984,15.2671418 L41.6666992,16.3706866 L41.6666992,20.1448582 Z" id="Shape" fill-rule="nonzero"></path>
                        <path d="M16.5891602,34.3956716 L15.7525391,33.5636716 L13.3083984,23.8528657 C13.215918,23.4845 12.8825195,23.2253731 12.5000977,23.2253731 L5.83330078,23.2253731 C5.57832031,23.2253731 5.33828125,23.341306 5.17998047,23.5383433 C5.02167969,23.7370299 4.96328125,23.9961567 5.02167969,24.2428657 L8.35498047,38.3165299 C8.44580078,38.6965373 8.78662109,38.954791 9.16582031,38.954791 C9.21835937,38.954791 9.27080078,38.9498433 9.32412109,38.9390746 L15.5824219,37.738709 C15.5907227,37.7370597 15.5991211,37.7354104 15.6074219,37.7337612 C15.9741211,37.6517836 16.309082,37.4696866 16.5757812,37.2089104 C16.9557617,36.8355 17.1666016,36.3387836 17.1699219,35.8073358 C17.1733398,35.2765672 16.9683594,34.7765522 16.5891602,34.3956716 Z M15.4049805,36.0298881 C15.3625,36.0720896 15.3091797,36.101097 15.2507812,36.1159403 L9.79492188,37.1632164 L6.88574219,24.8810299 L11.8491211,24.8810299 L14.1924805,34.1878657 C14.2291016,34.3335821 14.3049805,34.4668806 14.4116211,34.5728209 L15.4083008,35.5629552 C15.4924805,35.6465821 15.5041016,35.7450522 15.5041016,35.7972463 C15.5033203,35.847791 15.4900391,35.9462612 15.4049805,36.0298881 Z" id="Shape" fill-rule="nonzero"></path>
                        <rect id="Rectangle" x="45" y="17.4303806" width="5" height="1.65575373"></rect>
                        <polygon id="Rectangle" transform="translate(47.081497, 9.567622) rotate(-30.971618) translate(-47.081497, -9.567622) " points="44.6538297 8.73132615 49.5043346 8.74540595 49.5091638 10.403918 44.6586588 10.3898382"></polygon>
                        <polygon id="Rectangle" transform="translate(47.089195, 26.950349) rotate(-59.036243) translate(-47.089195, -26.950349) " points="46.252823 24.522548 47.9114878 24.527377 47.9255663 29.3781496 46.2669015 29.3733207"></polygon>
                        <rect id="Rectangle" x="31.6666992" y="4.18454478" width="1.66669922" height="28.1472313"></rect>
                    </g>
                </g>
            </g>
        </g>
    </g>
</svg>