<?xml version="1.0" encoding="UTF-8"?>
<svg width="80px" height="80px" viewBox="0 0 80 80" version="1.1" xmlns="http://www.w3.org/2000/svg" xmlns:xlink="http://www.w3.org/1999/xlink">
    <!-- Generator: Sketch 52.6 (67491) - http://www.bohemiancoding.com/sketch -->
    <title>post_a_project</title>
    <desc>Created with Sketch.</desc>
    <g id="assets" stroke="none" stroke-width="1" fill="none" fill-rule="evenodd">
        <g id="homepage-and-login/signup" transform="translate(-623.000000, -25.000000)">
            <g id="post_a_project" transform="translate(623.000000, 25.000000)">
                <circle id="Oval" fill="#FFF9E0" cx="40" cy="40" r="40"></circle>
                <g id="Group-9" transform="translate(15.000000, 18.000000)">
                    <circle id="Oval" fill="#FFE87F" cx="8" cy="8" r="8"></circle>
                    <g id="Group-8" transform="translate(5.000000, 3.000000)">
                        <g id="paper-copy" fill="#000000">
                            <path d="M34.0166667,36.5349255 C33.5057895,36.4828468 33.0435965,36.8624894 32.9967544,37.3742043 L32.8433333,39.0081851 L22.5640351,37.8413426 C22.0625439,37.7799298 21.5853509,38.1484064 21.5272807,38.6602085 C21.4673684,39.1700915 21.8378947,39.6316468 22.3507018,39.6893085 L33.5787719,40.9659787 C33.6142982,40.9697298 33.6499123,40.9715617 33.6854386,40.9715617 C33.8987719,40.9715617 34.1083333,40.898983 34.2749123,40.7631596 C34.4695614,40.6068362 34.5930702,40.377934 34.6173684,40.1285319 L34.860614,37.5491957 C34.9092982,37.0373936 34.529386,36.5832532 34.0166667,36.5349255 Z" id="Path"></path>
                            <path d="M22.5677193,7.69884043 L4.79,5.61822128 C4.25850877,5.55680851 3.81315789,5.91970213 3.7495614,6.42775319 L0.00684210526,36.2036106 C-0.0230701754,36.4492617 0.0461403509,36.6986638 0.201491228,36.8940681 C0.354912281,37.0894723 0.581403509,37.2160489 0.830263158,37.2439638 L10.879386,38.3866426 C10.9168421,38.3903936 10.9505263,38.3922255 10.9878947,38.3922255 C11.4557018,38.3922255 11.8618421,38.0423298 11.9160526,37.5677766 C11.9759649,37.0578936 11.6054386,36.5963383 11.0926316,36.5386766 L1.98298246,35.5020745 L5.49359649,7.57418298 L22.3487719,9.54680638 C22.8839474,9.61563404 23.329386,9.24157447 23.3873684,8.73169149 C23.4491228,8.22172128 23.0805263,7.75833404 22.5677193,7.69884043 Z" id="Path"></path>
                            <path d="M32.4746491,6.81672979 C32.1097368,6.45383617 31.5164912,6.45383617 31.1515789,6.81672979 L26.4732456,11.469183 C26.1083333,11.8320766 26.1083333,12.4220404 26.4732456,12.784934 C26.6566667,12.9654213 26.8961404,13.0566681 27.1357018,13.0566681 C27.3752632,13.0566681 27.6147368,12.9655085 27.7963158,12.784934 L32.4746491,8.13248085 C32.8395614,7.7695 32.8395614,7.1796234 32.4746491,6.81672979 Z" id="Path"></path>
                            <path d="M44.9059649,36.2055298 L41.1633333,6.42958511 C41.0997368,5.92153404 40.6281579,5.56047234 40.1247368,5.62005319 L37.5460526,5.92153404 C37.0314035,5.98111489 36.6646491,6.44450213 36.7264035,6.95438511 C36.7863158,7.46426809 37.2541228,7.83274468 37.765,7.7695 L39.4211404,7.57592766 L42.9317544,35.5001553 L12.0714035,39.0080979 L9.43842105,11.0820383 L32.2931579,8.4096234 C32.807807,8.35004255 33.1745614,7.88665532 33.112807,7.37677234 C33.0528947,6.86688936 32.5776316,6.48907872 32.0742105,6.56165745 L8.31184211,9.34206809 C7.80842105,9.39972979 7.44350877,9.84828723 7.49035088,10.3525872 L10.2973684,40.1284447 C10.3216667,40.3759277 10.4451754,40.6067489 10.6398246,40.7630723 C10.8064035,40.8988957 11.0159649,40.9714745 11.2292982,40.9714745 C11.2648246,40.9714745 11.3004386,40.9696426 11.3341228,40.9677234 L44.0826316,37.2457085 C44.3314912,37.2159617 44.5579825,37.091217 44.7114035,36.8958128 C44.8666667,36.7004957 44.937807,36.4511809 44.9059649,36.2055298 Z" id="Path"></path>
                            <path d="M34.6210526,0.0296595745 C32.0404386,0.0296595745 29.9427193,2.11769362 29.9427193,4.68211277 C29.9427193,7.24653191 32.0405263,9.33456596 34.6210526,9.33456596 C37.2015789,9.33456596 39.299386,7.24653191 39.299386,4.68211277 C39.299386,2.11769362 37.2016667,0.0296595745 34.6210526,0.0296595745 Z M34.6210526,7.47360213 C33.0734211,7.47360213 31.8140351,6.22118298 31.8140351,4.68211277 C31.8140351,3.14304255 33.0734211,1.8906234 34.6210526,1.8906234 C36.1686842,1.8906234 37.4280702,3.14304255 37.4280702,4.68211277 C37.4280702,6.22118298 36.1686842,7.47360213 34.6210526,7.47360213 Z" id="Shape" fill-rule="nonzero"></path>
                        </g>
                        <path d="M32.386056,15.9969144 C31.4231839,15.0337083 29.8621283,15.0337083 28.8992562,15.9969144 L19.1245739,25.7749879 C19.0575859,25.8419991 19.0092176,25.9250674 18.9839634,26.0162711 L17.6985644,30.6584582 C17.6457017,30.8487872 17.6994204,31.0526041 17.838961,31.1924071 C17.9787155,31.331996 18.1824617,31.3857335 18.3727247,31.3330665 L23.0133017,30.0470075 C23.1044739,30.0217444 23.1875133,29.9733594 23.2545013,29.9063481 L33.0289695,20.1280605 C33.9903435,19.1642121 33.9903435,17.6038994 33.0289695,16.640051 L32.386056,15.9969144 Z M20.3183727,26.1312393 L28.3181942,18.1284282 L30.8981949,20.7093241 L22.8981594,28.7121352 L20.3183727,26.1312393 Z M19.8030146,27.1657386 L21.864233,29.2278861 L19.01307,30.0181049 L19.8030146,27.1657386 Z M32.2542202,19.3530424 L31.6731583,19.934306 L29.0929435,17.3531961 L29.6742195,16.7719325 C30.2090533,16.2369131 31.0762589,16.2369131 31.6110927,16.7719325 L32.2542202,17.415069 C32.788198,17.9507307 32.788198,18.8175949 32.2542202,19.3530424 Z" id="Shape" stroke="#212121" stroke-width="0.802139037" fill="#212121" fill-rule="nonzero"></path>
                    </g>
                </g>
            </g>
        </g>
    </g>
</svg>