<?xml version="1.0" encoding="UTF-8"?>
<svg width="80px" height="80px" viewBox="0 0 80 80" version="1.1" xmlns="http://www.w3.org/2000/svg" xmlns:xlink="http://www.w3.org/1999/xlink">
    <!-- Generator: Sketch 52.6 (67491) - http://www.bohemiancoding.com/sketch -->
    <title>project_management_tools</title>
    <desc>Created with Sketch.</desc>
    <g id="assets" stroke="none" stroke-width="1" fill="none" fill-rule="evenodd">
        <g id="homepage-and-login/signup" transform="translate(-160.000000, -129.000000)">
            <g id="project_management_tools" transform="translate(160.000000, 129.000000)">
                <circle id="Oval-Copy-3" fill="#FFF9E0" cx="40" cy="40" r="40"></circle>
                <g id="Group-13" transform="translate(14.000000, 17.000000)">
                    <g id="Group-19">
                        <circle id="Oval" fill="#FFE87F" cx="8" cy="8" r="8"></circle>
                        <g id="project" transform="translate(13.000000, 5.000000)" fill="#000000">
                            <path d="M28.6721138,18.375 L27.804878,18.375 L27.804878,27.1250273 L20,27.1250273 L20,28.875 L28.6721138,28.875 C29.1510569,28.875 29.5393496,28.4832187 29.5393496,27.9999727 L29.5393496,19.2500273 C29.5392683,18.7667813 29.1510569,18.375 28.6721138,18.375 Z" id="Path"></path>
                            <path d="M20,10.5 L20,12.2499727 C22.3947154,12.2499727 24.3360163,14.2087148 24.3360163,16.6249453 C24.3360163,19.0412578 22.3947154,21 20,21 L20,22.7499727 C23.3526016,22.7499727 26.0704878,20.00775 26.0704878,16.6249453 C26.0704878,13.2422227 23.3526016,10.5 20,10.5 Z" id="Path"></path>
                            <path d="M39.0786179,31.5 L33.8753659,31.5 C31.4817886,31.5028711 29.5421951,33.4599727 29.5393496,35.8749727 L29.5393496,41.1249727 C29.5393496,41.6082188 29.9276423,42 30.4065854,42 C30.6365854,41.999918 30.8570732,41.9077148 31.0196748,41.7436523 L39.6917886,32.993625 C39.8543089,32.8295625 39.9456098,32.6071758 39.9456911,32.3751914 C39.9456911,31.8919453 39.557561,31.500082 39.0786179,31.5 Z M31.2737398,39.01275 L31.2737398,35.8749727 C31.2737398,34.4252344 32.4385366,33.2499727 33.8753659,33.2499727 L36.9852033,33.2499727 L31.2737398,39.01275 Z" id="Shape" fill-rule="nonzero"></path>
                            <path d="M35.6097561,3.50002734 L19.1327642,3.50002734 L19.1327642,5.25 L35.6097561,5.25 C37.0465854,5.25 38.2113821,6.42526172 38.2113821,7.875 L38.2113821,32.0127773 L30.0474797,40.2500273 L20,40.2500273 L20,42 L30.4065041,42 C30.6365041,41.999918 30.8569919,41.9077148 31.0195935,41.7436523 L39.6917073,32.993625 C39.8543902,32.8295625 39.9457724,32.6070117 39.9457724,32.3750273 L39.9457724,7.875 C39.9429268,5.45991797 38.0033333,3.50289844 35.6097561,3.50002734 Z" id="Path"></path>
                            <rect id="Rectangle" x="0.921382114" y="25.3749727" width="3.46886179" height="1.74997266"></rect>
                            <rect id="Rectangle" x="0.921382114" y="35.8749727" width="3.46886179" height="1.74997266"></rect>
                            <rect id="Rectangle" x="0.921382114" y="4.37497266" width="3.46886179" height="1.74997266"></rect>
                            <rect id="Rectangle" x="0.921382114" y="14.8749727" width="3.46886179" height="1.74997266"></rect>
                            <path d="M8.72626016,1.74997266 L8.72626016,0 L1.78861789,0 C0.830731707,0 0.0542276423,0.783480469 0.0542276423,1.74997266 L0.0542276423,40.2499453 C0.0542276423,41.2165195 0.830731707,42 1.78861789,42 L6.12463415,42 L6.12463415,40.2500273 L1.78861789,40.2500273 L1.78861789,1.74997266 L8.72626016,1.74997266 Z" id="Path"></path>
                            <rect id="Rectangle" x="0.921382114" y="20.1249727" width="5.20325203" height="1.74997266"></rect>
                            <rect id="Rectangle" x="0.921382114" y="30.6249727" width="5.20325203" height="1.74997266"></rect>
                            <rect id="Rectangle" x="0.921382114" y="9.62497266" width="5.20325203" height="1.74997266"></rect>
                            <rect id="Rectangle" x="12.195122" y="8.75002734" width="1.73439024" height="27.1250273"></rect>
                            <path d="M17.3073171,7.483875 L13.8384553,0.483902344 C13.761626,0.353882813 13.6539024,0.245191406 13.5250407,0.167671875 C13.0963415,-0.0901523437 12.5417073,0.0513515625 12.2860976,0.483902344 L8.81723577,7.483875 C8.75723577,7.60536328 8.72601626,7.73923828 8.72617886,7.875 L8.72617886,41.1249727 C8.72617886,41.6082188 9.11447154,42 9.59341463,42 L16.5310569,42 C17.01,42 17.3982927,41.6082187 17.3982927,41.1249727 L17.3982927,7.875 C17.3984553,7.73923828 17.3673171,7.60536328 17.3073171,7.483875 Z M15.6639837,40.2500273 L10.4607317,40.2500273 L10.4607317,8.08147266 L13.0623577,2.83147266 L15.6639837,8.08147266 L15.6639837,40.2500273 Z" id="Shape" fill-rule="nonzero"></path>
                            <path d="M14.1836585,7.25640234 C13.7560976,7.68509766 13.5505691,7.875 13.0623577,7.875 C12.5741463,7.875 12.3660163,7.68509766 11.9410569,7.25640234 C11.361626,6.54912891 10.5029268,6.13528125 9.59349593,6.12502734 L9.59349593,7.875 C10.0808943,7.875 10.2872358,8.06490234 10.7147967,8.49359766 C11.2942276,9.20087109 12.1529268,9.61471875 13.0623577,9.62497266 C13.9717073,9.61471875 14.8304878,9.20087109 15.4099187,8.49359766 C15.8373984,8.06490234 16.0429268,7.875 16.5311382,7.875 L16.5311382,6.12502734 C15.6217886,6.13528125 14.7630894,6.54912891 14.1836585,7.25640234 Z" id="Path"></path>
                            <rect id="Rectangle" x="11.3278862" y="2.625" width="3.46886179" height="1.74997266"></rect>
                            <rect id="Rectangle" x="9.59349593" y="35.0000273" width="6.93764228" height="1.74997266"></rect>
                        </g>
                    </g>
                </g>
            </g>
        </g>
    </g>
</svg>