<?xml version="1.0" encoding="UTF-8"?>
<svg width="80px" height="80px" viewBox="0 0 80 80" version="1.1" xmlns="http://www.w3.org/2000/svg" xmlns:xlink="http://www.w3.org/1999/xlink">
    <!-- Generator: Sketch 52.6 (67491) - http://www.bohemiancoding.com/sketch -->
    <title>safe_payment</title>
    <desc>Created with Sketch.</desc>
    <g id="assets" stroke="none" stroke-width="1" fill="none" fill-rule="evenodd">
        <g id="homepage-and-login/signup" transform="translate(-32.000000, -128.000000)">
            <g id="safe_payment" transform="translate(32.000000, 128.000000)">
                <circle id="Oval-Copy-2" fill="#FFF9E0" cx="40" cy="40" r="40"></circle>
                <g id="Group-11" transform="translate(15.000000, 15.000000)">
                    <g id="Group-12">
                        <circle id="Oval" fill="#FFE87F" cx="17" cy="12" r="8"></circle>
                        <g id="payment" transform="translate(3.000000, 3.000000)" fill="#000000">
                            <path d="M20.6835938,30.5213928 C21.0259046,30.1777268 21.0259046,29.6215439 20.6835938,29.2778779 C20.3409403,28.9352417 19.7858416,28.9352417 19.4428454,29.2778779 C19.1008772,29.6215439 19.1008772,30.1777268 19.4428454,30.5213928 C19.7858416,30.8640289 20.3409403,30.8640289 20.6835938,30.5213928 Z" id="Path"></path>
                            <path d="M16.5306332,9.66522217 C16.5306332,14.9946213 20.8580044,19.3307876 26.1770148,19.3307876 C31.4960253,19.3307876 35.8233964,14.9946213 35.8233964,9.66522217 C35.8233964,4.33582304 31.4960253,0 26.1770148,0 C20.8580044,0 16.5306332,4.33582304 16.5306332,9.66522217 Z M34.0696957,9.66522217 C34.0696957,14.0257644 30.529057,17.5733184 26.1770148,17.5733184 C21.8249726,17.5733184 18.2843339,14.0257644 18.2843339,9.66522217 C18.2843339,5.30502319 21.8249726,1.7574692 26.1770148,1.7574692 C30.529057,1.7574692 34.0696957,5.30502319 34.0696957,9.66522217 Z" id="Shape" fill-rule="nonzero"></path>
                            <path d="M10.1449425,44.7401047 C10.4848547,45.0834275 11.0382402,45.087204 11.3826069,44.7473145 L15.6342517,40.5505371 C16.3565653,39.8268127 16.5762061,38.7553025 16.2585663,37.8238678 L17.1731086,36.940155 C17.6655017,36.463623 18.3138021,36.2009812 18.9991091,36.2009812 L30.6572095,36.2009812 C32.725466,36.2009812 34.6803043,35.405159 36.1622807,33.9601135 C36.223273,33.9007187 35.6993558,34.519043 44.1156113,24.4404602 C45.3638981,22.9607392 45.1771518,20.7387543 43.6989446,19.4866562 C42.229989,18.246231 40.0294682,18.4244156 38.7777549,19.8787308 L33.6030017,25.2077866 C32.9495614,24.4020081 31.953125,23.8997268 30.8765077,23.8997268 L21.0975192,23.8997268 C19.7060033,23.3164215 18.2295093,23.021164 16.7060718,23.021164 C12.48321,23.021164 8.79591561,24.975357 6.81709158,28.6392974 C5.98341561,28.4810257 5.10416667,28.7337112 4.47162825,29.3674851 L0.299821842,33.5597992 C-0.0407757895,33.902092 -0.0414610526,34.4558716 0.298451228,34.7991943 L10.1449425,44.7401047 Z M16.7057291,24.7782898 C18.0489309,24.7782898 19.3475877,25.0491714 20.5664062,25.5833816 C20.677426,25.6321335 20.7970121,25.657196 20.9179688,25.657196 L30.8765077,25.657196 C31.8273711,25.657196 32.630551,26.4341355 32.630551,27.4143219 C32.630551,28.383522 31.8438185,29.1717911 30.8765077,29.1717911 L23.7215597,29.1717911 C23.2373904,29.1717911 22.8447095,29.565239 22.8447095,30.050354 C22.8447095,30.5358124 23.2373904,30.928917 23.7215597,30.928917 L30.8765077,30.928917 C32.8107868,30.928917 34.3842517,29.3523789 34.3842517,27.4143219 C34.3842517,27.2598267 34.3732868,27.1067047 34.3534128,26.9549561 C39.3592379,21.7992783 40.0651042,21.0748672 40.0952577,21.0388184 C40.7202577,20.2996445 41.8297697,20.2059174 42.5678454,20.8293915 C43.3066063,21.4552688 43.4001508,22.5662613 42.7734375,23.3095551 L34.9078262,32.7310181 C33.7592517,33.8358306 32.2512335,34.4438553 30.6572095,34.4438553 L18.9991091,34.4438553 C17.8567023,34.4438553 16.7752878,34.8815918 15.9549754,35.6756973 L15.2097039,36.3963318 L8.33950105,29.5130539 C9.94517544,26.4949036 12.9581277,24.7782898 16.7057291,24.7782898 Z M5.7127193,30.6092834 C6.00191886,30.319519 6.44599781,30.267334 6.79858825,30.4856873 C6.95038377,30.5783844 6.51452851,30.1808167 14.3941886,38.0648804 C14.7447232,38.4160996 14.7258772,38.9757156 14.3989858,39.3032456 L10.7743969,42.881012 L2.15768912,34.1815567 L5.7127193,30.6092834 Z" id="Shape" fill-rule="nonzero"></path>
                            <path d="M25.1247259,4.39350126 L25.1247259,5.42312622 C24.1039611,5.78567505 23.3706825,6.76242826 23.3706825,7.90809627 C23.3706825,9.36138155 24.5507812,10.5441284 26.0015762,10.5441284 C26.4850604,10.5441284 26.8784265,10.9382629 26.8784265,11.4226914 C26.8784265,11.9071197 26.4850604,12.3012543 26.0015762,12.3012543 C25.627056,12.3012543 25.2223821,12.0653916 24.8629386,11.6365815 C24.5511239,11.2651062 23.9980811,11.2173843 23.62733,11.5294648 C23.2565789,11.8418884 23.2086075,12.3960113 23.5204221,12.7674866 C23.9891721,13.3260727 24.5405017,13.7154007 25.1247259,13.9117813 L25.1247259,14.9372864 C25.1247259,15.4227447 25.5174068,15.8158493 26.0015762,15.8158493 C26.4857456,15.8158493 26.8784265,15.4227447 26.8784265,14.9372864 L26.8784265,13.9076614 C27.8991913,13.5447693 28.6324698,12.5680161 28.6324698,11.4226914 C28.6324698,9.96906278 27.4523711,8.78665922 26.0015762,8.78665922 C25.5180921,8.78665922 25.1247259,8.3925247 25.1247259,7.90809627 C25.1247259,7.42366793 25.5180921,7.02919002 26.0015762,7.02919002 C26.312363,7.02919002 26.6402824,7.18814848 26.9500411,7.48855591 C27.2981771,7.8260422 27.8532758,7.81677246 28.1901042,7.46829984 C28.5269325,7.11948393 28.5176809,6.56330106 28.1698876,6.22581486 C27.7247807,5.7942581 27.2793311,5.55015568 26.8784265,5.41694637 L26.8784265,4.39350126 C26.8784265,3.90804293 26.4857456,3.51459501 26.0015762,3.51459501 C25.5174068,3.51459501 25.1247259,3.90804293 25.1247259,4.39350126 Z" id="Path"></path>
                        </g>
                    </g>
                </g>
            </g>
        </g>
    </g>
</svg>