<?xml version="1.0" encoding="UTF-8"?>
<svg width="80px" height="80px" viewBox="0 0 80 80" version="1.1" xmlns="http://www.w3.org/2000/svg" xmlns:xlink="http://www.w3.org/1999/xlink">
    <!-- Generator: Sketch 52.6 (67491) - http://www.bohemiancoding.com/sketch -->
    <title>talent_availability</title>
    <desc>Created with Sketch.</desc>
    <g id="assets" stroke="none" stroke-width="1" fill="none" fill-rule="evenodd">
        <g id="homepage-and-login/signup" transform="translate(-389.000000, -25.000000)">
            <g id="talent_availability" transform="translate(389.000000, 25.000000)">
                <circle id="Oval" fill="#FFF9E0" cx="40" cy="40" r="40"></circle>
                <g id="Group-6" transform="translate(13.000000, 16.000000)">
                    <circle id="Oval" fill="#FFE87F" cx="8" cy="8" r="8"></circle>
                    <g id="24-hours" transform="translate(7.000000, 2.000000)" fill="#212121" stroke="#212121" stroke-width="0.5">
                        <path d="M44.25,40.5 L42,40.5 L42,26.25 C41.9997188,25.8358125 41.663625,25.5002813 41.2494375,25.5005625 C41.0050313,25.50075 40.776,25.62 40.63575,25.82025 L30.13575,40.82025 C29.898375,41.1597188 29.9811563,41.6273438 30.320625,41.864625 C30.4465313,41.9526563 30.5963438,41.9999063 30.75,42 L40.5,42 L40.5,44.25 C40.5,44.6641875 40.8358125,45 41.25,45 C41.6641875,45 42,44.6641875 42,44.25 L42,42 L44.25,42 C44.6641875,42 45,41.6641875 45,41.25 C45,40.8358125 44.6641875,40.5 44.25,40.5 Z M40.5,40.5 L32.19,40.5 L40.5,28.629 L40.5,40.5 Z" id="Shape" fill-rule="nonzero"></path>
                        <path d="M30.75,43.5 L21.87075,43.5 L30.126,33.77925 C30.14475,33.7569375 30.1622813,33.7336875 30.1785,33.7095 C31.7315625,31.4109375 31.21425,28.2989063 29.001,26.6265 C26.3099063,24.6929063 22.5608438,25.3070625 20.6273438,27.9981562 C19.894125,29.018625 19.4998125,30.2434688 19.5,31.5 C19.5,31.9141875 19.8358125,32.25 20.25,32.25 C20.6641875,32.25 21,31.9141875 21,31.5 C20.9997188,29.0146875 23.0143125,26.9998125 25.4995313,26.9995313 C26.4415313,26.9994375 27.3598125,27.2949375 28.125,27.8445 C29.6753438,29.0324063 30.036375,31.2201563 28.95,32.84325 L19.6785,43.76475 C19.4104688,44.0805938 19.4492813,44.5538437 19.765125,44.821875 C19.9005938,44.9368125 20.0723438,44.9999063 20.25,45 L30.75,45 C31.1641875,45 31.5,44.6641875 31.5,44.25 C31.5,43.8358125 31.1641875,43.5 30.75,43.5 Z" id="Path"></path>
                        <path d="M20.2665,39.76425 C20.2821562,39.3503438 19.9591875,39.0021562 19.5452812,38.9865 C19.5451875,38.9865 19.5450937,38.9865 19.545,38.9865 C9.7603125,38.6233125 1.90696875,30.7840313 1.52625,21 L4.5,21 C4.9141875,21 5.25,20.6641875 5.25,20.25 C5.25,19.8358125 4.9141875,19.5 4.5,19.5 L1.52625,19.5 C1.90153125,9.73321875 9.733125,1.90190625 19.5,1.527 L19.5,3.75 C19.5,4.1641875 19.8358125,4.5 20.25,4.5 C20.6641875,4.5 21,4.1641875 21,3.75 L21,1.527 C30.6331875,1.8995625 38.4080625,9.527625 38.964,19.152 L36.039,16.227 C35.7410625,15.9391875 35.2663125,15.9474375 34.9785,16.245375 C34.6978125,16.536 34.6978125,16.9967813 34.9785,17.2875 L39.165,21.474 C39.2438438,21.5694375 39.3454688,21.6434063 39.4605,21.68925 C39.4898437,21.6980625 39.5196562,21.705375 39.54975,21.711 C39.6012188,21.7295625 39.6544687,21.7424063 39.70875,21.74925 C39.71625,21.74925 39.723,21.74925 39.7305,21.74925 C39.738,21.74925 39.74475,21.74925 39.7515,21.74925 C39.8085938,21.7449375 39.8650313,21.733875 39.9195,21.71625 C39.9503438,21.7125 39.9809063,21.7067813 40.011,21.699 C40.1125313,21.6629063 40.2049688,21.6050625 40.28175,21.5295 L44.52525,17.2875 C44.8129688,16.9895625 44.8048125,16.5148125 44.506875,16.227 C44.21625,15.9463125 43.7554687,15.9463125 43.46475,16.227 L40.467,19.2225 C39.9312187,8.4721875 31.066875,0.02634375 20.30325,0.0105 C20.2845,0.00975 20.26875,0 20.25,0 C20.23125,0 20.2155,0.00975 20.19675,0.0105 C9.0545625,0.02578125 0.02578125,9.0545625 0.0105,20.19675 C0.0105,20.2155 0,20.23125 0,20.25 C0,20.26875 0.00975,20.2845 0.0105,20.30325 C0.02915625,31.1704688 8.62978125,40.0816875 19.4895,40.48575 L19.51725,40.48575 C19.9202813,40.4856562 20.2512188,40.167 20.2665,39.76425 Z" id="Path"></path>
                        <path d="M30.32625,10.17375 C30.033375,9.88096875 29.558625,9.88096875 29.26575,10.17375 L21.20625,18.2325 C20.5973437,17.961 19.9018125,17.961 19.293,18.2325 L15.477,14.4165 C15.1790625,14.1287813 14.7042187,14.1370313 14.4165,14.4349688 C14.1358125,14.7255938 14.1358125,15.186375 14.4165,15.477 L18.225,19.2855 C17.69025,20.404875 18.16425,21.745875 19.2837187,22.2805313 C20.1429375,22.6909687 21.167625,22.515 21.84075,21.8415 C22.5175312,21.1704375 22.6918125,20.1429375 22.27425,19.28625 L30.32625,11.23425 C30.6190313,10.941375 30.6190313,10.466625 30.32625,10.17375 Z M20.7804375,20.7800625 C20.7803438,20.7801563 20.7803438,20.7801563 20.78025,20.78025 C20.483625,21.0638438 20.016375,21.0638438 19.71975,20.78025 C19.4267813,20.487375 19.4267813,20.0125313 19.7195625,19.7195625 C20.0124375,19.4265938 20.4872812,19.4265938 20.78025,19.719375 C21.0732188,20.01225 21.0732188,20.4871875 20.7804375,20.7800625 Z" id="Shape" fill-rule="nonzero"></path>
                    </g>
                </g>
            </g>
        </g>
    </g>
</svg>