<?xml version="1.0" encoding="UTF-8"?>
<svg width="80px" height="80px" viewBox="0 0 80 80" version="1.1" xmlns="http://www.w3.org/2000/svg" xmlns:xlink="http://www.w3.org/1999/xlink">
    <!-- Generator: Sketch 52.6 (67491) - http://www.bohemiancoding.com/sketch -->
    <title>talent_signup</title>
    <desc>Created with Sketch.</desc>
    <g id="assets" stroke="none" stroke-width="1" fill="none" fill-rule="evenodd">
        <g id="homepage-and-login/signup" transform="translate(-162.000000, -29.000000)">
            <g id="talent_signup" transform="translate(162.000000, 29.000000)">
                <circle id="Oval" fill="#FFF9E0" cx="40" cy="40" r="40"></circle>
                <g id="Group-3" transform="translate(19.000000, 15.000000)">
                    <circle id="Oval" fill="#FFE87F" cx="8" cy="9" r="8"></circle>
                    <g id="login-(1)">
                        <path d="M37.3387568,29.0764648 L33.4093386,29.0764648 L5.66124318,29.0764648 C2.54902045,29.0764648 0.0171022727,31.6066406 0.0171022727,34.7166016 C0.0171022727,37.8265625 2.54911818,40.3566406 5.66124318,40.3566406 L8.96950682,40.3566406 L8.54253636,40.7032227 C8.05087045,41.1024414 7.82961591,41.7345703 7.96506591,42.352832 C8.10051591,42.9711914 8.56579545,43.4532227 9.179425,43.6105469 L9.40116818,43.6674805 L8.30681818,47.928125 C8.17263864,48.4505859 8.48771136,48.9827148 9.01045455,49.1167969 L12.3340614,49.9692383 C12.4141,49.9898438 12.4957023,49.9999023 12.5770114,49.9999023 C12.750575,49.9999023 12.9226727,49.9536133 13.0745409,49.8638672 C13.2976523,49.7319336 13.4591955,49.5168945 13.5235977,49.2661133 L14.6180455,45.0052734 L14.8397886,45.062207 C15.4534182,45.2195313 16.0934341,45.0210938 16.5101432,44.5442383 C16.9268523,44.0674805 17.0374795,43.4070313 16.799025,42.8207031 L15.7966364,40.356543 L33.4093386,40.356543 L37.3387568,40.356543 L37.3387568,40.3566406 C40.4509795,40.3566406 42.9828977,37.8265625 42.9828977,34.7166016 C42.9828977,31.6066406 40.4507841,29.0764648 37.3387568,29.0764648 Z M14.2795182,42.9021484 C13.9940568,42.8287109 13.6971614,42.8708984 13.4433636,43.0208984 C13.1896636,43.1708008 13.00965,43.4104492 12.93655,43.6954102 L11.873375,47.8347656 L10.4428432,47.4677734 L11.5059205,43.3289063 C11.5793136,43.0435547 11.5370955,42.7467773 11.3868886,42.4931641 C11.2366818,42.2396484 10.9967614,42.0597656 10.7119841,41.9871094 L10.2170932,41.8600586 L12.0693182,40.356543 L13.2851432,39.3696289 L13.6866068,40.356543 L14.7736273,43.0288086 L14.2795182,42.9021484 Z M32.4320659,38.4035156 L15.0021136,38.4035156 L14.5988909,37.4123047 C14.4822045,37.1255859 14.2365182,36.9110352 13.9364955,36.8341797 C13.6362773,36.7570312 13.3176864,36.8268555 13.0772773,37.0220703 L11.3754545,38.4035156 L5.66124318,38.4035156 C3.62675682,38.4035156 1.97164773,36.7495117 1.97164773,34.7166016 C1.97164773,32.6835938 3.62685455,31.0295898 5.66124318,31.0295898 L32.4320659,31.0295898 L32.4320659,38.4035156 Z M37.3387568,38.4035156 L34.3866114,38.4035156 L34.3866114,31.0295898 L37.3387568,31.0295898 C39.3732432,31.0295898 41.0283523,32.6835938 41.0283523,34.7166016 C41.0282545,36.7495117 39.3730477,38.4035156 37.3387568,38.4035156 Z" id="Shape" fill="#212121" fill-rule="nonzero"></path>
                        <path d="M37.9052818,32.4793945 C37.5705659,32.0563477 36.9559591,31.984375 36.5326045,32.319043 C36.1091523,32.6535156 36.0374205,33.2676758 36.3721364,33.6907227 L37.0303295,34.5226563 L36.3721364,35.3545898 C36.0374205,35.7776367 36.10925,36.3917969 36.5326045,36.7262695 C36.7120318,36.8680664 36.9257614,36.9368164 37.138025,36.9368164 C37.4266136,36.9367188 37.7123682,36.809668 37.9052818,36.565918 L39.0428273,35.1283203 C39.3237932,34.7733398 39.3237932,34.271875 39.0428273,33.9169922 L37.9052818,32.4793945 Z" id="Path" fill="#212121"></path>
                        <path d="M5.95931136,35.0897461 C5.98374318,35.1493164 6.01403864,35.205957 6.04922045,35.2586914 C6.08537955,35.3124023 6.126425,35.362207 6.17137955,35.4071289 C6.21633409,35.4521484 6.266175,35.4931641 6.319925,35.5282227 C6.37269773,35.5633789 6.42937955,35.5936523 6.48801591,35.6180664 C6.54762955,35.6424805 6.60822045,35.6610352 6.67076591,35.6737305 C6.73428864,35.6864258 6.79781136,35.6932617 6.86231136,35.6932617 C6.92583409,35.6932617 6.98935682,35.6864258 7.05287955,35.6737305 C7.115425,35.6610352 7.17699318,35.6424805 7.23562955,35.6180664 C7.29426591,35.5936523 7.351925,35.5633789 7.40469773,35.5282227 C7.45747045,35.4931641 7.50828864,35.4521484 7.55324318,35.4071289 C7.59819773,35.362207 7.63924318,35.3124023 7.674425,35.2586914 C7.70960682,35.205957 7.73990227,35.1493164 7.76433409,35.0897461 C7.78876591,35.0311523 7.80733409,34.9697266 7.82003864,34.9072266 C7.83274318,34.8446289 7.83958409,34.7801758 7.83958409,34.7167969 C7.83958409,34.6533203 7.83274318,34.5887695 7.82003864,34.5253906 C7.80733409,34.4638672 7.78876591,34.4023438 7.76433409,34.3427734 C7.73990227,34.284082 7.70960682,34.2275391 7.674425,34.1748047 C7.63924318,34.1209961 7.59819773,34.0711914 7.55324318,34.0262695 C7.50828864,33.9813477 7.45747045,33.940332 7.40469773,33.9041992 C7.351925,33.869043 7.29426591,33.8387695 7.23562955,33.8143555 C7.17699318,33.7899414 7.115425,33.7713867 7.05287955,33.7586914 C6.73526591,33.6953125 6.39810682,33.7987305 6.17137955,34.0262695 C6.126425,34.0711914 6.08537955,34.1209961 6.04922045,34.1748047 C6.01403864,34.2275391 5.98374318,34.284082 5.95931136,34.3427734 C5.93487955,34.4023438 5.91631136,34.4638672 5.90360682,34.5253906 C5.89090227,34.5887695 5.88503864,34.6533203 5.88503864,34.7167969 C5.88503864,34.7801758 5.89090227,34.8447266 5.90360682,34.9072266 C5.91631136,34.9697266 5.93487955,35.03125 5.95931136,35.0897461 Z" id="Path" fill="#212121"></path>
                        <path d="M11.1565455,35.0897461 C11.1809773,35.1493164 11.2112727,35.205957 11.2464545,35.2586914 C11.2826136,35.3124023 11.3236591,35.362207 11.3686136,35.4071289 C11.4135682,35.4521484 11.4634091,35.4931641 11.5171591,35.5282227 C11.5699318,35.5633789 11.6266136,35.5936523 11.68525,35.6180664 C11.7448636,35.6424805 11.8064318,35.6610352 11.868,35.6737305 C11.9315227,35.6864258 11.9960227,35.6932617 12.0595455,35.6932617 C12.1230682,35.6932617 12.1875682,35.6864258 12.2501136,35.6737305 C12.3126591,35.6610352 12.3742273,35.6424805 12.4328636,35.6180664 C12.4924773,35.5936523 12.5491591,35.5633789 12.6019318,35.5282227 C12.6556818,35.4931641 12.7055227,35.4521484 12.7504773,35.4071289 C12.7954318,35.362207 12.8364773,35.3124023 12.8716591,35.2586914 C12.9068409,35.205957 12.9371364,35.1493164 12.9615682,35.0897461 C12.986,35.0311523 13.0045682,34.9697266 13.0172727,34.9072266 C13.0299773,34.8446289 13.0368182,34.7801758 13.0368182,34.7167969 C13.0368182,34.6533203 13.0299773,34.5887695 13.0172727,34.5253906 C13.0045682,34.4638672 12.986,34.4023438 12.9615682,34.3427734 C12.9371364,34.284082 12.9068409,34.2275391 12.8716591,34.1748047 C12.8364773,34.1209961 12.7954318,34.0711914 12.7504773,34.0262695 C12.52375,33.7987305 12.1865909,33.6952148 11.868,33.7586914 C11.8064318,33.7713867 11.7448636,33.7899414 11.68525,33.8143555 C11.6266136,33.8387695 11.5699318,33.869043 11.5171591,33.9041992 C11.4634091,33.940332 11.4135682,33.9813477 11.3686136,34.0262695 C11.3236591,34.0711914 11.2826136,34.1209961 11.2464545,34.1748047 C11.2112727,34.2275391 11.1809773,34.284082 11.1565455,34.3427734 C11.1321136,34.4023438 11.1135455,34.4638672 11.1008409,34.5253906 C11.0881364,34.5887695 11.0822727,34.6533203 11.0822727,34.7167969 C11.0822727,34.7801758 11.0881364,34.8447266 11.1008409,34.9072266 C11.1135455,34.9697266 11.1321136,35.03125 11.1565455,35.0897461 Z" id="Path" fill="#212121"></path>
                        <path d="M16.3545614,35.0897461 C16.3789932,35.1493164 16.4092886,35.205957 16.4444705,35.2586914 C16.4796523,35.3124023 16.5206977,35.362207 16.5656523,35.4071289 C16.6106068,35.4521484 16.6604477,35.4931641 16.7141977,35.5282227 C16.7669705,35.5633789 16.8236523,35.5936523 16.8832659,35.6180664 C16.9419023,35.6424805 17.0034705,35.6610352 17.0660159,35.6737305 C17.1285614,35.6864258 17.1930614,35.6932617 17.2565841,35.6932617 C17.3201068,35.6932617 17.3846068,35.6864258 17.4471523,35.6737305 C17.5096977,35.6610352 17.5712659,35.6424805 17.6299023,35.6180664 C17.6895159,35.5936523 17.7461977,35.5633789 17.7989705,35.5282227 C17.8527205,35.4931641 17.9025614,35.4521484 17.9475159,35.4071289 C17.9924705,35.362207 18.0335159,35.3124023 18.0686977,35.2586914 C18.1038795,35.205957 18.134175,35.1493164 18.1586068,35.0897461 C18.1830386,35.0311523 18.2016068,34.9697266 18.2143114,34.9072266 C18.2270159,34.8446289 18.2338568,34.7801758 18.2338568,34.7167969 C18.2338568,34.6533203 18.2270159,34.5887695 18.2143114,34.5253906 C18.2025841,34.4638672 18.1830386,34.4023438 18.1586068,34.3427734 C18.134175,34.284082 18.1038795,34.2275391 18.0686977,34.1748047 C18.0335159,34.1209961 17.9924705,34.0711914 17.9475159,34.0262695 C17.7207886,33.7987305 17.3826523,33.6952148 17.0660159,33.7586914 C17.0034705,33.7713867 16.9419023,33.7899414 16.8822886,33.8143555 C16.8236523,33.8387695 16.7669705,33.869043 16.7141977,33.9041992 C16.6604477,33.940332 16.6106068,33.9813477 16.5656523,34.0262695 C16.5206977,34.0711914 16.4796523,34.1209961 16.4444705,34.1748047 C16.4092886,34.2275391 16.3789932,34.284082 16.3545614,34.3427734 C16.3301295,34.4023438 16.3105841,34.4638672 16.2988568,34.5253906 C16.2861523,34.5887695 16.2793114,34.6533203 16.2793114,34.7167969 C16.2793114,34.7801758 16.2861523,34.8447266 16.2988568,34.9072266 C16.3105841,34.9697266 16.3301295,35.03125 16.3545614,35.0897461 Z" id="Path" fill="#212121"></path>
                        <path d="M21.5517955,35.0897461 C21.5762273,35.1493164 21.6065227,35.205957 21.6417045,35.2586914 C21.6768864,35.3124023 21.7179318,35.362207 21.7628864,35.4071289 C21.8078409,35.4521484 21.8576818,35.4931641 21.9114318,35.5282227 C21.9642045,35.5633789 22.0208864,35.5936523 22.0805,35.6180664 C22.1391364,35.6424805 22.2007045,35.6610352 22.26325,35.6737305 C22.3257955,35.6864258 22.3902955,35.6932617 22.4538182,35.6932617 C22.5173409,35.6932617 22.5818409,35.6864258 22.6443864,35.6737305 C22.7069318,35.6610352 22.7685,35.6424805 22.8271364,35.6180664 C22.88675,35.5936523 22.9434318,35.5633789 22.9962045,35.5282227 C23.0499545,35.4931641 23.0997955,35.4521484 23.14475,35.4071289 C23.1897045,35.362207 23.23075,35.3124023 23.2659318,35.2586914 C23.3011136,35.205957 23.3314091,35.1493164 23.3558409,35.0897461 C23.3802727,35.0311523 23.3998182,34.9697266 23.4115455,34.9072266 C23.42425,34.8446289 23.4310909,34.7801758 23.4310909,34.7167969 C23.4310909,34.6533203 23.42425,34.5887695 23.4115455,34.5253906 C23.3998182,34.4638672 23.3802727,34.4023438 23.3558409,34.3427734 C23.3314091,34.284082 23.3011136,34.2275391 23.2659318,34.1748047 C23.23075,34.1209961 23.1897045,34.0711914 23.14475,34.0262695 C22.9180227,33.7987305 22.5798864,33.6952148 22.26325,33.7586914 C22.2007045,33.7713867 22.1391364,33.7899414 22.0805,33.8143555 C22.0208864,33.8387695 21.9642045,33.869043 21.9114318,33.9041992 C21.8576818,33.940332 21.8078409,33.9813477 21.7628864,34.0262695 C21.7179318,34.0711914 21.6768864,34.1209961 21.6417045,34.1748047 C21.6065227,34.2275391 21.5762273,34.284082 21.5517955,34.3427734 C21.5273636,34.4023438 21.5087955,34.4638672 21.4960909,34.5253906 C21.4833864,34.5887695 21.4765455,34.6533203 21.4765455,34.7167969 C21.4765455,34.7801758 21.4833864,34.8447266 21.4960909,34.9072266 C21.5087955,34.9697266 21.5273636,35.03125 21.5517955,35.0897461 Z" id="Path" fill="#212121"></path>
                        <path d="M26.7489318,35.0897461 C26.7733636,35.1493164 26.8036591,35.205957 26.8388409,35.2586914 C26.8740227,35.3124023 26.9150682,35.362207 26.9600227,35.4071289 C27.0049773,35.4521484 27.0548182,35.4931641 27.1085682,35.5282227 C27.1613409,35.5633789 27.2180227,35.5936523 27.2776364,35.6180664 C27.3362727,35.6424805 27.3978409,35.6610352 27.4603864,35.6737305 C27.5229318,35.6864258 27.5874318,35.6932617 27.6509545,35.6932617 C27.7144773,35.6932617 27.7789773,35.6864258 27.8425,35.6737305 C27.9040682,35.6610352 27.9656364,35.6424805 28.02525,35.6180664 C28.0838864,35.5936523 28.1405682,35.5633789 28.1933409,35.5282227 C28.2470909,35.4931641 28.2969318,35.4521484 28.3418864,35.4071289 C28.3868409,35.362207 28.4278864,35.3124023 28.4640455,35.2586914 C28.4992273,35.205957 28.5295227,35.1493164 28.5539545,35.0897461 C28.5783864,35.0311523 28.5969545,34.9697266 28.6096591,34.9072266 C28.6223636,34.8446289 28.6282273,34.7801758 28.6282273,34.7167969 C28.6282273,34.6533203 28.6223636,34.5887695 28.6096591,34.5253906 C28.5969545,34.4638672 28.5783864,34.4023437 28.5539545,34.3427734 C28.5295227,34.284082 28.4992273,34.2275391 28.4640455,34.1748047 C28.4278864,34.1209961 28.3868409,34.0711914 28.3418864,34.0262695 C28.2969318,33.9813477 28.2470909,33.940332 28.1933409,33.9041992 C28.1405682,33.869043 28.0838864,33.8387695 28.02525,33.8143555 C27.9656364,33.7899414 27.9040682,33.7713867 27.8425,33.7586914 C27.7164318,33.7333008 27.5864545,33.7333008 27.4603864,33.7586914 C27.3978409,33.7713867 27.3362727,33.7899414 27.2776364,33.8143555 C27.2180227,33.8387695 27.1613409,33.869043 27.1085682,33.9041992 C27.0548182,33.940332 27.0049773,33.9813477 26.9600227,34.0262695 C26.9150682,34.0711914 26.8740227,34.1209961 26.8388409,34.1748047 C26.8036591,34.2275391 26.7733636,34.284082 26.7489318,34.3427734 C26.7245,34.4023437 26.7059318,34.4638672 26.6932273,34.5253906 C26.6805227,34.5887695 26.6736818,34.6533203 26.6736818,34.7167969 C26.6736818,34.7801758 26.6805227,34.8447266 26.6932273,34.9072266 C26.7059318,34.9697266 26.7245,35.03125 26.7489318,35.0897461 Z" id="Path" fill="#212121"></path>
                        <path d="M12.9253114,24.6838867 C12.9492545,24.7066406 12.9739795,24.7287109 13.0003659,24.7491211 C15.2444773,26.484082 17.8975773,27.4660156 20.7134909,27.6125 C20.733525,27.6135742 20.7536568,27.6145508 20.7736909,27.6155273 C20.8630136,27.6198242 20.9526295,27.6231445 21.0422455,27.6257812 C21.0686318,27.6265625 21.0950182,27.6275391 21.1214045,27.6282227 C21.2319341,27.6307617 21.3425614,27.6324219 21.4535795,27.6324219 C21.5651841,27.6324219 21.6764955,27.6307617 21.7877091,27.6282227 C21.8131182,27.6276367 21.8383318,27.6266602 21.8636432,27.6258789 C21.9555068,27.6232422 22.0470773,27.6198242 22.13855,27.6154297 C22.1561409,27.6145508 22.1736341,27.6136719 22.1911273,27.6126953 C25.0531682,27.4647461 27.7417432,26.4561523 30.0065727,24.6720703 C30.03765,24.6475586 30.0668705,24.6210937 30.0944295,24.5933594 C33.2533659,22.059082 35.2795455,18.1700195 35.2795455,13.8163086 C35.2796432,6.19794922 29.0772841,0 21.4535795,0 C13.829875,0 7.62722273,6.19794922 7.62722273,13.8162109 C7.62722273,18.2217773 9.70138636,22.1522461 12.9253114,24.6838867 Z M22.7230568,25.6112305 C22.6624659,25.6175781 22.6017773,25.6234375 22.5409909,25.6289062 C22.4737545,25.6350586 22.4066159,25.6412109 22.3390864,25.6461914 C22.2219114,25.6546875 22.1044432,25.6615234 21.9865841,25.6666016 C21.9462227,25.668457 21.9058614,25.6698242 21.8654023,25.6711914 C21.7284864,25.6757812 21.5912773,25.6791016 21.4534818,25.6791016 C21.3174455,25.6791016 21.1819955,25.6758789 21.0467409,25.6713867 C21.0068682,25.6700195 20.9670932,25.6685547 20.9274159,25.6668945 C20.8149318,25.6620117 20.7028386,25.6555664 20.5909409,25.6476562 C20.5258545,25.6429687 20.4609636,25.6373047 20.3961705,25.631543 C20.3260023,25.6253906 20.2559318,25.61875 20.1859591,25.6114258 C20.107875,25.603125 20.0298886,25.5945312 19.9521955,25.584668 C19.9384159,25.5829102 19.9247341,25.5808594 19.9109545,25.5791016 C17.9408705,25.3225586 16.1210909,24.5817383 14.5754364,23.4801758 L14.5754364,21.7121094 C14.5754364,19.3852539 15.7319409,17.3246094 17.4994364,16.0696289 C18.6041455,16.9323242 19.9923614,17.4484375 21.4998045,17.4484375 C23.0072477,17.4484375 24.3955614,16.9324219 25.5001727,16.0696289 C27.2676682,17.3246094 28.4241727,19.3852539 28.4241727,21.7121094 L28.4241727,23.4125 L28.4242705,23.4125 C26.7883159,24.6024414 24.8380705,25.3855469 22.7230568,25.6112305 Z M21.4535795,1.953125 C27.9996455,1.953125 33.3252932,7.27480469 33.3252932,13.8162109 C33.3252932,16.8066406 32.2117886,19.5417969 30.3779364,21.6304688 C30.3520386,18.7790039 28.9734977,16.2447266 26.8535,14.6385742 C27.5818614,13.5881836 28.0101023,12.3150391 28.0101023,10.9431641 C28.0101023,10.6204102 27.9861591,10.2958008 27.9388591,9.97832031 C27.8594068,9.44492188 27.3625614,9.07685547 26.8283841,9.15615234 C26.2945,9.23554688 25.9261659,9.73222656 26.0056182,10.2657227 C26.0387477,10.4882812 26.0555568,10.7162109 26.0555568,10.9431641 C26.0555568,11.9493164 25.7266068,12.8798828 25.1713205,13.6342773 C24.7207977,14.2463867 24.1210455,14.7417969 23.4260091,15.0671875 C22.8406227,15.3413086 22.1880977,15.4954102 21.5000977,15.4954102 C20.8120977,15.4954102 20.1595727,15.3413086 19.5741864,15.0671875 C18.87915,14.7417969 18.2793977,14.2463867 17.828875,13.6342773 C17.2735886,12.8798828 16.9446386,11.9494141 16.9446386,10.9431641 C16.9446386,8.43310547 18.9882136,6.39101562 21.5000977,6.39101562 C21.8458568,6.39101562 22.19015,6.4296875 22.5235955,6.50615234 C23.0502477,6.62714844 23.5740659,6.29824219 23.6945636,5.77246094 C23.8151591,5.24677734 23.4865023,4.72294922 22.9604364,4.60244141 C22.4840159,4.49326172 21.9926432,4.43789062 21.5001955,4.43789062 C17.910575,4.43789062 14.9901909,7.35615234 14.9901909,10.9431641 C14.9901909,12.3150391 15.4184318,13.5881836 16.1467932,14.6385742 C14.0064682,16.2600586 12.6212818,18.8273438 12.6212818,21.7121094 L12.6212818,21.7337891 C10.7326045,19.6324219 9.58186591,16.85625 9.58186591,13.8162109 C9.58176818,7.27480469 14.9074159,1.953125 21.4535795,1.953125 Z" id="Shape" fill="#212121" fill-rule="nonzero"></path>
                        <path d="M24.6525841,7.55566406 C24.6770159,7.61425781 24.7073114,7.67089844 24.7424932,7.72363281 C24.777675,7.77734375 24.8187205,7.82714844 24.863675,7.87207031 C24.9086295,7.91806641 24.9584705,7.95810547 25.0122205,7.99414062 C25.0649932,8.02929688 25.121675,8.05966797 25.1812886,8.08408203 C25.239925,8.10849609 25.3014932,8.12695312 25.3640386,8.13964844 C25.4265841,8.15234375 25.4910841,8.15820312 25.5546068,8.15820312 C25.6181295,8.15820312 25.6826295,8.15224609 25.745175,8.13964844 C25.8077205,8.12695312 25.8692886,8.10849609 25.9289023,8.08408203 C25.9875386,8.05966797 26.0442205,8.02929688 26.0969932,7.99414062 C26.1507432,7.95810547 26.2005841,7.91806641 26.2455386,7.87207031 C26.2904932,7.82714844 26.3315386,7.77734375 26.3667205,7.72363281 C26.4019023,7.67089844 26.4321977,7.61425781 26.4566295,7.55566406 C26.4810614,7.49609375 26.5006068,7.43554687 26.5123341,7.37304687 C26.5250386,7.30957031 26.5318795,7.24609375 26.5318795,7.18164062 C26.5318795,7.11816406 26.5250386,7.05361328 26.5123341,6.99121094 C26.5006068,6.92871094 26.4810614,6.86708984 26.4566295,6.80859375 C26.4321977,6.75009766 26.4019023,6.69248047 26.3667205,6.63974609 C26.3315386,6.5859375 26.2904932,6.53613281 26.2455386,6.49121094 C26.2005841,6.44628906 26.1507432,6.40527344 26.0969932,6.37011719 C26.0442205,6.33505859 25.9875386,6.3046875 25.9289023,6.28027344 C25.8692886,6.25585937 25.8077205,6.23740234 25.745175,6.22470703 C25.6191068,6.19921875 25.4901068,6.19921875 25.3640386,6.22470703 C25.3014932,6.23740234 25.239925,6.25585937 25.1812886,6.28027344 C25.121675,6.3046875 25.0649932,6.33505859 25.0122205,6.37011719 C24.9584705,6.40527344 24.9086295,6.44628906 24.863675,6.49121094 C24.8187205,6.53613281 24.777675,6.5859375 24.7424932,6.63974609 C24.7073114,6.69248047 24.6770159,6.75009766 24.6525841,6.80859375 C24.6281523,6.86708984 24.6095841,6.92871094 24.5968795,6.99121094 C24.584175,7.05371094 24.5773341,7.11816406 24.5773341,7.18164062 C24.5773341,7.24609375 24.584175,7.30957031 24.5968795,7.37304687 C24.6095841,7.43554687 24.6281523,7.49609375 24.6525841,7.55566406 Z" id="Path" fill="#000000"></path>
                    </g>
                </g>
            </g>
        </g>
    </g>
</svg>