<?xml version="1.0" encoding="UTF-8"?>
<svg width="36px" height="36px" viewBox="0 0 36 36" version="1.1" xmlns="http://www.w3.org/2000/svg" xmlns:xlink="http://www.w3.org/1999/xlink">
    <!-- Generator: Sketch 52.6 (67491) - http://www.bohemiancoding.com/sketch -->
    <title>youtube_active</title>
    <desc>Created with Sketch.</desc>
    <defs>
        <path d="M12,1.77635684e-15 C18.6172561,1.77635684e-15 24,5.38322726 24,12 C24,18.6162894 18.6162894,24 12,24 C5.38322726,24 -1.687539e-13,18.6162894 -1.687539e-13,12 C-1.687539e-13,5.38322726 5.38322726,1.77635684e-15 12,1.77635684e-15 Z M18.7182792,8.18203789 C18.3249416,7.5035703 17.8980706,7.37877445 17.0289213,7.33131687 C16.1606783,7.27419201 13.9773826,7.25046322 12.085918,7.25046322 C10.1908282,7.25046322 8.00662612,7.27419201 7.13928945,7.33043803 C6.27195279,7.37877445 5.84417546,7.50269146 5.4472126,8.18203789 C5.04209297,8.85962664 4.83364215,10.0267315 4.83364215,12.0814688 C4.83364215,12.0832265 4.83364215,12.0841054 4.83364215,12.0841054 C4.83364215,12.0858631 4.83364215,12.0867419 4.83364215,12.0867419 L4.83364215,12.0884996 C4.83364215,14.1344485 5.04209297,15.3103418 5.4472126,15.9808998 C5.84417546,16.6593674 6.27104648,16.7824055 7.13838315,16.8395304 C8.00662612,16.8887457 10.1908282,16.9177475 12.085918,16.9177475 C13.9773826,16.9177475 16.1606783,16.8887457 17.0298276,16.8404092 C17.8989769,16.7832844 18.3258479,16.6602462 18.7191855,15.9817786 C19.1279304,15.3112206 19.3345686,14.1353273 19.3345686,12.0893784 C19.3345686,12.0893784 19.3345686,12.0867419 19.3345686,12.0849842 C19.3345686,12.0849842 19.3345686,12.0832265 19.3345686,12.0823477 C19.3345686,10.0267315 19.1279304,8.85962664 18.7182792,8.18203789 Z M10.2714896,14.7206375 L10.2714896,9.44757329 L14.8030291,12.0841054 L10.2714896,14.7206375 Z" id="path-1"></path>
        <filter x="-37.5%" y="-37.5%" width="175.0%" height="175.0%" filterUnits="objectBoundingBox" id="filter-2">
            <feOffset dx="0" dy="0" in="SourceAlpha" result="shadowOffsetOuter1"></feOffset>
            <feGaussianBlur stdDeviation="3" in="shadowOffsetOuter1" result="shadowBlurOuter1"></feGaussianBlur>
            <feColorMatrix values="0 0 0 0 0   0 0 0 0 0   0 0 0 0 0  0 0 0 0.44 0" type="matrix" in="shadowBlurOuter1"></feColorMatrix>
        </filter>
    </defs>
    <g id="assets" stroke="none" stroke-width="1" fill="none" fill-rule="evenodd">
        <g id="homepage-and-login/signup" transform="translate(-385.000000, -188.000000)" fill-rule="nonzero">
            <g id="youtube_active" transform="translate(391.000000, 194.000000)">
                <g id="Combined-Shape">
                    <use fill="black" fill-opacity="1" filter="url(#filter-2)" xlink:href="#path-1"></use>
                    <use fill="#FFFFFF" xlink:href="#path-1"></use>
                </g>
            </g>
        </g>
    </g>
</svg>